#  ==========================================================================
#  
#  Wavefront OBJ format exported by Red-i Productions' "Riptide Pro"
#     (a commercial plugin for Cinema 4D PC & Mac, R9.6 or later)
#  
#  Red-i Productions
#  http://skinprops.com
#  
#  ==========================================================================
mtllib barracks.mtl
v 1 0.005 1
v -1 0.005 1
v 1 0.005 -1
v -1 0.005 -1
# 4 vertices

vt 0.00000 1.00000
vt 0.00000 0.00000
vt 1.00000 0.00000
vt 1.00000 1.00000
# 4 texture coordinates

vn 0 1 0
vn 0 1 0
vn 0 1 0
vn 0 1 0
# 4 vertex normals

usemtl Mat.2
f 1/1/1 3/2/2 4/3/3 2/4/4
# 1 facets

v -0.91686 1.50704 -0.972665
v -0.91686 1.6658 -0.972665
v 9.6299e-005 1.50704 -0.972665
v 9.6299e-005 1.6658 -0.972665
v 9.6299e-005 1.50704 0.941671
v 9.6299e-005 1.6658 0.941671
v -0.91686 1.50704 0.941671
v -0.91686 1.6658 0.941671
# 8 vertices

vt 0.00000 1.00000
vt 0.00000 0.00000
vt 1.00000 0.00000
vt 1.00000 1.00000
vt 0.00000 1.00000
vt 0.00000 0.00000
vt 1.00000 0.00000
vt 1.00000 1.00000
vt 0.00000 1.00000
vt 0.00000 0.00000
vt 1.00000 0.00000
vt 1.00000 1.00000
vt 0.00000 1.00000
vt 0.00000 0.00000
vt 1.00000 0.00000
vt 1.00000 1.00000
vt 0.00000 1.00000
vt 0.00000 0.00000
vt 1.00000 0.00000
vt 1.00000 1.00000
vt 0.00000 1.00000
vt 0.00000 0.00000
vt 1.00000 0.00000
vt 1.00000 1.00000
# 24 texture coordinates

vn 0 0 -1
vn 0 0 -1
vn 0 0 -1
vn 0 0 -1
vn 1 0 0
vn 1 0 0
vn 1 0 0
vn 1 0 0
vn 0 0 1
vn 0 0 1
vn 0 0 1
vn 0 0 1
vn -1 0 0
vn -1 0 0
vn -1 0 0
vn -1 0 0
vn 0 1 0
vn 0 1 0
vn 0 1 0
vn 0 1 0
vn 0 -1 0
vn 0 -1 0
vn 0 -1 0
vn 0 -1 0
# 24 vertex normals

usemtl Mat.11
f 5/5/5 6/6/6 8/7/7 7/8/8
f 7/9/9 8/10/10 10/11/11 9/12/12
f 9/13/13 10/14/14 12/15/15 11/16/16
f 11/17/17 12/18/18 6/19/19 5/20/20
f 6/21/21 12/22/22 10/23/23 8/24/24
f 11/25/25 5/26/26 7/27/27 9/28/28
# 6 facets

v -0.91686 0.922932 -0.972665
v -0.91686 1.0817 -0.972665
v 9.6299e-005 0.922932 -0.972665
v 9.6299e-005 1.0817 -0.972665
v 9.6299e-005 0.922932 0.941671
v 9.6299e-005 1.0817 0.941671
v -0.91686 0.922932 0.941671
v -0.91686 1.0817 0.941671
# 8 vertices

vt 0.00000 1.00000
vt 0.00000 0.00000
vt 1.00000 0.00000
vt 1.00000 1.00000
vt 0.00000 1.00000
vt 0.00000 0.00000
vt 1.00000 0.00000
vt 1.00000 1.00000
vt 0.00000 1.00000
vt 0.00000 0.00000
vt 1.00000 0.00000
vt 1.00000 1.00000
vt 0.00000 1.00000
vt 0.00000 0.00000
vt 1.00000 0.00000
vt 1.00000 1.00000
vt 0.00000 1.00000
vt 0.00000 0.00000
vt 1.00000 0.00000
vt 1.00000 1.00000
vt 0.00000 1.00000
vt 0.00000 0.00000
vt 1.00000 0.00000
vt 1.00000 1.00000
# 24 texture coordinates

vn 0 0 -1
vn 0 0 -1
vn 0 0 -1
vn 0 0 -1
vn 1 0 0
vn 1 0 0
vn 1 0 0
vn 1 0 0
vn 0 0 1
vn 0 0 1
vn 0 0 1
vn 0 0 1
vn -1 0 0
vn -1 0 0
vn -1 0 0
vn -1 0 0
vn 0 1 0
vn 0 1 0
vn 0 1 0
vn 0 1 0
vn 0 -1 0
vn 0 -1 0
vn 0 -1 0
vn 0 -1 0
# 24 vertex normals

usemtl Mat.11
f 13/29/29 14/30/30 16/31/31 15/32/32
f 15/33/33 16/34/34 18/35/35 17/36/36
f 17/37/37 18/38/38 20/39/39 19/40/40
f 19/41/41 20/42/42 14/43/43 13/44/44
f 14/45/45 20/46/46 18/47/47 16/48/48
f 19/49/49 13/50/50 15/51/51 17/52/52
# 6 facets

v -0.91686 0.375911 -0.972665
v -0.91686 0.534677 -0.972665
v 9.6299e-005 0.375911 -0.972665
v 9.6299e-005 0.534677 -0.972665
v 9.6299e-005 0.375911 0.941671
v 9.6299e-005 0.534677 0.941671
v -0.91686 0.375911 0.941671
v -0.91686 0.534677 0.941671
# 8 vertices

vt 0.00000 1.00000
vt 0.00000 0.00000
vt 1.00000 0.00000
vt 1.00000 1.00000
vt 0.00000 1.00000
vt 0.00000 0.00000
vt 1.00000 0.00000
vt 1.00000 1.00000
vt 0.00000 1.00000
vt 0.00000 0.00000
vt 1.00000 0.00000
vt 1.00000 1.00000
vt 0.00000 1.00000
vt 0.00000 0.00000
vt 1.00000 0.00000
vt 1.00000 1.00000
vt 0.00000 1.00000
vt 0.00000 0.00000
vt 1.00000 0.00000
vt 1.00000 1.00000
vt 0.00000 1.00000
vt 0.00000 0.00000
vt 1.00000 0.00000
vt 1.00000 1.00000
# 24 texture coordinates

vn 0 0 -1
vn 0 0 -1
vn 0 0 -1
vn 0 0 -1
vn 1 0 0
vn 1 0 0
vn 1 0 0
vn 1 0 0
vn 0 0 1
vn 0 0 1
vn 0 0 1
vn 0 0 1
vn -1 0 0
vn -1 0 0
vn -1 0 0
vn -1 0 0
vn 0 1 0
vn 0 1 0
vn 0 1 0
vn 0 1 0
vn 0 -1 0
vn 0 -1 0
vn 0 -1 0
vn 0 -1 0
# 24 vertex normals

usemtl Mat.11
f 21/53/53 22/54/54 24/55/55 23/56/56
f 23/57/57 24/58/58 26/59/59 25/60/60
f 25/61/61 26/62/62 28/63/63 27/64/64
f 27/65/65 28/66/66 22/67/67 21/68/68
f 22/69/69 28/70/70 26/71/71 24/72/72
f 27/73/73 21/74/74 23/75/75 25/76/76
# 6 facets

v -0.80907 -0.0254998 -0.83061
v -0.80907 1.9745 -0.83061
v -0.74907 -0.0254998 -0.83061
v -0.74907 -0.0254998 -0.83061
v -0.74907 1.9745 -0.83061
v -0.74907 1.9745 -0.83061
v -0.80907 -0.0254998 -0.77061
v -0.80907 -0.0254998 -0.77061
v -0.80907 1.9745 -0.77061
v -0.80907 1.9745 -0.77061
v -0.86907 -0.0254998 -0.83061
v -0.86907 -0.0254998 -0.83061
v -0.86907 1.9745 -0.83061
v -0.86907 1.9745 -0.83061
v -0.80907 -0.0254998 -0.89061
v -0.80907 -0.0254998 -0.89061
v -0.80907 1.9745 -0.89061
v -0.80907 1.9745 -0.89061
# 18 vertices

vt 0.50000 0.50000
vt 0.00000 0.50000
vt 0.50000 0.00000
vt 0.00000 1.00000
vt 0.00000 0.00000
vt 0.25000 0.00000
vt 0.25000 1.00000
vt 1.00000 0.50000
vt 0.50000 0.50000
vt 0.50000 0.00000
vt 0.50000 0.50000
vt 0.50000 0.00000
vt 1.00000 0.50000
vt 0.25000 1.00000
vt 0.25000 0.00000
vt 0.50000 0.00000
vt 0.50000 1.00000
vt 0.50000 0.00000
vt 0.50000 0.50000
vt 0.00000 0.50000
vt 0.50000 0.50000
vt 1.00000 0.50000
vt 0.50000 1.00000
vt 0.50000 1.00000
vt 0.50000 0.00000
vt 0.75000 0.00000
vt 0.75000 1.00000
vt 0.00000 0.50000
vt 0.50000 0.50000
vt 0.50000 1.00000
vt 0.50000 0.50000
vt 0.50000 1.00000
vt 0.00000 0.50000
vt 0.75000 1.00000
vt 0.75000 0.00000
vt 1.00000 0.00000
vt 1.00000 1.00000
vt 0.50000 1.00000
vt 0.50000 0.50000
vt 1.00000 0.50000
# 40 texture coordinates

vn 0 -1 0
vn 0 -1 0
vn 0 -1 0
vn 0.707107 0 0.707107
vn 0.707107 0 0.707107
vn 0.707107 0 0.707107
vn 0.707107 0 0.707107
vn 0 1 0
vn 0 1 0
vn 0 1 0
vn 0 -1 0
vn 0 -1 0
vn 0 -1 0
vn -0.707107 0 0.707107
vn -0.707107 0 0.707107
vn -0.707107 0 0.707107
vn -0.707107 0 0.707107
vn 0 1 0
vn 0 1 0
vn 0 1 0
vn 0 -1 0
vn 0 -1 0
vn 0 -1 0
vn -0.707107 0 -0.707107
vn -0.707107 0 -0.707107
vn -0.707107 0 -0.707107
vn -0.707107 0 -0.707107
vn 0 1 0
vn 0 1 0
vn 0 1 0
vn 0 -1 0
vn 0 -1 0
vn 0 -1 0
vn 0.707107 0 -0.707107
vn 0.707107 0 -0.707107
vn 0.707107 0 -0.707107
vn 0.707107 0 -0.707107
vn 0 1 0
vn 0 1 0
vn 0 1 0
# 40 vertex normals

usemtl Mat.4
f 29/77/77 31/78/78 35/79/79
f 32/80/80 33/81/81 37/82/82 36/83/83
f 34/84/84 30/85/85 38/86/86
f 29/87/87 35/88/88 39/89/89
f 36/90/90 37/91/91 41/92/92 40/93/93
f 38/94/94 30/95/95 42/96/96
f 29/97/97 39/98/98 43/99/99
f 40/100/100 41/101/101 45/102/102 44/103/103
f 42/104/104 30/105/105 46/106/106
f 29/107/107 43/108/108 31/109/109
f 44/110/110 45/111/111 33/112/112 32/113/113
f 46/114/114 30/115/115 34/116/116
# 12 facets

v -0.136128 -0.0254998 -0.83061
v -0.136128 1.9745 -0.83061
v -0.0761277 -0.0254998 -0.83061
v -0.0761277 -0.0254998 -0.83061
v -0.0761277 1.9745 -0.83061
v -0.0761277 1.9745 -0.83061
v -0.136128 -0.0254998 -0.77061
v -0.136128 -0.0254998 -0.77061
v -0.136128 1.9745 -0.77061
v -0.136128 1.9745 -0.77061
v -0.196128 -0.0254998 -0.83061
v -0.196128 -0.0254998 -0.83061
v -0.196128 1.9745 -0.83061
v -0.196128 1.9745 -0.83061
v -0.136128 -0.0254998 -0.89061
v -0.136128 -0.0254998 -0.89061
v -0.136128 1.9745 -0.89061
v -0.136128 1.9745 -0.89061
# 18 vertices

vt 0.50000 0.50000
vt 0.00000 0.50000
vt 0.50000 0.00000
vt 0.00000 1.00000
vt 0.00000 0.00000
vt 0.25000 0.00000
vt 0.25000 1.00000
vt 1.00000 0.50000
vt 0.50000 0.50000
vt 0.50000 0.00000
vt 0.50000 0.50000
vt 0.50000 0.00000
vt 1.00000 0.50000
vt 0.25000 1.00000
vt 0.25000 0.00000
vt 0.50000 0.00000
vt 0.50000 1.00000
vt 0.50000 0.00000
vt 0.50000 0.50000
vt 0.00000 0.50000
vt 0.50000 0.50000
vt 1.00000 0.50000
vt 0.50000 1.00000
vt 0.50000 1.00000
vt 0.50000 0.00000
vt 0.75000 0.00000
vt 0.75000 1.00000
vt 0.00000 0.50000
vt 0.50000 0.50000
vt 0.50000 1.00000
vt 0.50000 0.50000
vt 0.50000 1.00000
vt 0.00000 0.50000
vt 0.75000 1.00000
vt 0.75000 0.00000
vt 1.00000 0.00000
vt 1.00000 1.00000
vt 0.50000 1.00000
vt 0.50000 0.50000
vt 1.00000 0.50000
# 40 texture coordinates

vn 0 -1 0
vn 0 -1 0
vn 0 -1 0
vn 0.707107 0 0.707107
vn 0.707107 0 0.707107
vn 0.707107 0 0.707107
vn 0.707107 0 0.707107
vn 0 1 0
vn 0 1 0
vn 0 1 0
vn 0 -1 0
vn 0 -1 0
vn 0 -1 0
vn -0.707107 0 0.707107
vn -0.707107 0 0.707107
vn -0.707107 0 0.707107
vn -0.707107 0 0.707107
vn 0 1 0
vn 0 1 0
vn 0 1 0
vn 0 -1 0
vn 0 -1 0
vn 0 -1 0
vn -0.707107 0 -0.707107
vn -0.707107 0 -0.707107
vn -0.707107 0 -0.707107
vn -0.707107 0 -0.707107
vn 0 1 0
vn 0 1 0
vn 0 1 0
vn 0 -1 0
vn 0 -1 0
vn 0 -1 0
vn 0.707107 0 -0.707107
vn 0.707107 0 -0.707107
vn 0.707107 0 -0.707107
vn 0.707107 0 -0.707107
vn 0 1 0
vn 0 1 0
vn 0 1 0
# 40 vertex normals

usemtl Mat.4
f 47/117/117 49/118/118 53/119/119
f 50/120/120 51/121/121 55/122/122 54/123/123
f 52/124/124 48/125/125 56/126/126
f 47/127/127 53/128/128 57/129/129
f 54/130/130 55/131/131 59/132/132 58/133/133
f 56/134/134 48/135/135 60/136/136
f 47/137/137 57/138/138 61/139/139
f 58/140/140 59/141/141 63/142/142 62/143/143
f 60/144/144 48/145/145 64/146/146
f 47/147/147 61/148/148 49/149/149
f 62/150/150 63/151/151 51/152/152 50/153/153
f 64/154/154 48/155/155 52/156/156
# 12 facets

v -0.136128 -0.0254998 0.799616
v -0.136128 1.9745 0.799616
v -0.0761277 -0.0254998 0.799616
v -0.0761277 -0.0254998 0.799616
v -0.0761277 1.9745 0.799616
v -0.0761277 1.9745 0.799616
v -0.136128 -0.0254998 0.859616
v -0.136128 -0.0254998 0.859616
v -0.136128 1.9745 0.859616
v -0.136128 1.9745 0.859616
v -0.196128 -0.0254998 0.799616
v -0.196128 -0.0254998 0.799616
v -0.196128 1.9745 0.799616
v -0.196128 1.9745 0.799616
v -0.136128 -0.0254998 0.739616
v -0.136128 -0.0254998 0.739616
v -0.136128 1.9745 0.739616
v -0.136128 1.9745 0.739616
# 18 vertices

vt 0.50000 0.50000
vt 0.00000 0.50000
vt 0.50000 0.00000
vt 0.00000 1.00000
vt 0.00000 0.00000
vt 0.25000 0.00000
vt 0.25000 1.00000
vt 1.00000 0.50000
vt 0.50000 0.50000
vt 0.50000 0.00000
vt 0.50000 0.50000
vt 0.50000 0.00000
vt 1.00000 0.50000
vt 0.25000 1.00000
vt 0.25000 0.00000
vt 0.50000 0.00000
vt 0.50000 1.00000
vt 0.50000 0.00000
vt 0.50000 0.50000
vt 0.00000 0.50000
vt 0.50000 0.50000
vt 1.00000 0.50000
vt 0.50000 1.00000
vt 0.50000 1.00000
vt 0.50000 0.00000
vt 0.75000 0.00000
vt 0.75000 1.00000
vt 0.00000 0.50000
vt 0.50000 0.50000
vt 0.50000 1.00000
vt 0.50000 0.50000
vt 0.50000 1.00000
vt 0.00000 0.50000
vt 0.75000 1.00000
vt 0.75000 0.00000
vt 1.00000 0.00000
vt 1.00000 1.00000
vt 0.50000 1.00000
vt 0.50000 0.50000
vt 1.00000 0.50000
# 40 texture coordinates

vn 0 -1 0
vn 0 -1 0
vn 0 -1 0
vn 0.707107 0 0.707107
vn 0.707107 0 0.707107
vn 0.707107 0 0.707107
vn 0.707107 0 0.707107
vn 0 1 0
vn 0 1 0
vn 0 1 0
vn 0 -1 0
vn 0 -1 0
vn 0 -1 0
vn -0.707107 0 0.707107
vn -0.707107 0 0.707107
vn -0.707107 0 0.707107
vn -0.707107 0 0.707107
vn 0 1 0
vn 0 1 0
vn 0 1 0
vn 0 -1 0
vn 0 -1 0
vn 0 -1 0
vn -0.707107 0 -0.707107
vn -0.707107 0 -0.707107
vn -0.707107 0 -0.707107
vn -0.707107 0 -0.707107
vn 0 1 0
vn 0 1 0
vn 0 1 0
vn 0 -1 0
vn 0 -1 0
vn 0 -1 0
vn 0.707107 0 -0.707107
vn 0.707107 0 -0.707107
vn 0.707107 0 -0.707107
vn 0.707107 0 -0.707107
vn 0 1 0
vn 0 1 0
vn 0 1 0
# 40 vertex normals

usemtl Mat.4
f 65/157/157 67/158/158 71/159/159
f 68/160/160 69/161/161 73/162/162 72/163/163
f 70/164/164 66/165/165 74/166/166
f 65/167/167 71/168/168 75/169/169
f 72/170/170 73/171/171 77/172/172 76/173/173
f 74/174/174 66/175/175 78/176/176
f 65/177/177 75/178/178 79/179/179
f 76/180/180 77/181/181 81/182/182 80/183/183
f 78/184/184 66/185/185 82/186/186
f 65/187/187 79/188/188 67/189/189
f 80/190/190 81/191/191 69/192/192 68/193/193
f 82/194/194 66/195/195 70/196/196
# 12 facets

v -0.790114 -0.0254998 0.799616
v -0.790114 1.9745 0.799616
v -0.730114 -0.0254998 0.799616
v -0.730114 -0.0254998 0.799616
v -0.730114 1.9745 0.799616
v -0.730114 1.9745 0.799616
v -0.790114 -0.0254998 0.859616
v -0.790114 -0.0254998 0.859616
v -0.790114 1.9745 0.859616
v -0.790114 1.9745 0.859616
v -0.850114 -0.0254998 0.799616
v -0.850114 -0.0254998 0.799616
v -0.850114 1.9745 0.799616
v -0.850114 1.9745 0.799616
v -0.790114 -0.0254998 0.739616
v -0.790114 -0.0254998 0.739616
v -0.790114 1.9745 0.739616
v -0.790114 1.9745 0.739616
# 18 vertices

vt 0.50000 0.50000
vt 0.00000 0.50000
vt 0.50000 0.00000
vt 0.00000 1.00000
vt 0.00000 0.00000
vt 0.25000 0.00000
vt 0.25000 1.00000
vt 1.00000 0.50000
vt 0.50000 0.50000
vt 0.50000 0.00000
vt 0.50000 0.50000
vt 0.50000 0.00000
vt 1.00000 0.50000
vt 0.25000 1.00000
vt 0.25000 0.00000
vt 0.50000 0.00000
vt 0.50000 1.00000
vt 0.50000 0.00000
vt 0.50000 0.50000
vt 0.00000 0.50000
vt 0.50000 0.50000
vt 1.00000 0.50000
vt 0.50000 1.00000
vt 0.50000 1.00000
vt 0.50000 0.00000
vt 0.75000 0.00000
vt 0.75000 1.00000
vt 0.00000 0.50000
vt 0.50000 0.50000
vt 0.50000 1.00000
vt 0.50000 0.50000
vt 0.50000 1.00000
vt 0.00000 0.50000
vt 0.75000 1.00000
vt 0.75000 0.00000
vt 1.00000 0.00000
vt 1.00000 1.00000
vt 0.50000 1.00000
vt 0.50000 0.50000
vt 1.00000 0.50000
# 40 texture coordinates

vn 0 -1 0
vn 0 -1 0
vn 0 -1 0
vn 0.707107 0 0.707107
vn 0.707107 0 0.707107
vn 0.707107 0 0.707107
vn 0.707107 0 0.707107
vn 0 1 0
vn 0 1 0
vn 0 1 0
vn 0 -1 0
vn 0 -1 0
vn 0 -1 0
vn -0.707107 0 0.707107
vn -0.707107 0 0.707107
vn -0.707107 0 0.707107
vn -0.707107 0 0.707107
vn 0 1 0
vn 0 1 0
vn 0 1 0
vn 0 -1 0
vn 0 -1 0
vn 0 -1 0
vn -0.707107 0 -0.707107
vn -0.707107 0 -0.707107
vn -0.707107 0 -0.707107
vn -0.707107 0 -0.707107
vn 0 1 0
vn 0 1 0
vn 0 1 0
vn 0 -1 0
vn 0 -1 0
vn 0 -1 0
vn 0.707107 0 -0.707107
vn 0.707107 0 -0.707107
vn 0.707107 0 -0.707107
vn 0.707107 0 -0.707107
vn 0 1 0
vn 0 1 0
vn 0 1 0
# 40 vertex normals

usemtl Mat.4
f 83/197/197 85/198/198 89/199/199
f 86/200/200 87/201/201 91/202/202 90/203/203
f 88/204/204 84/205/205 92/206/206
f 83/207/207 89/208/208 93/209/209
f 90/210/210 91/211/211 95/212/212 94/213/213
f 92/214/214 84/215/215 96/216/216
f 83/217/217 93/218/218 97/219/219
f 94/220/220 95/221/221 99/222/222 98/223/223
f 96/224/224 84/225/225 100/226/226
f 83/227/227 97/228/228 85/229/229
f 98/230/230 99/231/231 87/232/232 86/233/233
f 100/234/234 84/235/235 88/236/236
# 12 facets

v 0.122538 0.0102598 0.377576
v 0.20706 0.156926 0.306653
v 0.55663 0.0102598 0.0133296
v 0.472108 0.156926 0.084252
v 0.920876 0.0102598 0.447421
v 0.836354 0.156926 0.518344
v 0.486784 0.0102598 0.811668
v 0.571306 0.156926 0.740745
v 0.275412 0.302926 0.249299
v 0.403756 0.302926 0.141606
v 0.768002 0.302926 0.575698
v 0.639658 0.302926 0.683391
v 0.339584 0.493926 0.195453
v 0.70383 0.493926 0.629545
v 0.308615 0.302926 0.161152
v 0.281273 0.156926 0.13242
v 0.2538 0.0102598 0.103799
v 0.782988 0.0102598 0.718146
v 0.760928 0.156926 0.693595
v 0.738871 0.302926 0.66904
v 0.567045 0.0102598 0.85722
v 0.621992 0.156926 0.775213
v 0.663276 0.302926 0.706649
# 23 vertices

vt 0.00000 1.00000
vt 0.00000 0.00000
vt 0.48800 0.00000
vt 0.48800 1.00000
vt 0.00000 1.00000
vt 0.00000 0.00000
vt 1.00000 0.00000
vt 1.00000 1.00000
vt 0.64075 0.00000
vt 1.00000 0.00000
vt 1.00000 1.00000
vt 0.62365 1.00000
vt 0.00000 1.00000
vt 0.00000 0.00000
vt 1.00000 0.00000
vt 1.00000 1.00000
vt 0.00000 0.00000
vt 0.00000 0.00000
vt 0.00000 1.00000
vt 0.00000 1.00000
vt 0.49349 1.00000
vt 0.00000 1.00000
vt 0.00000 0.00000
vt 0.49258 0.00000
vt 0.00000 1.00000
vt 0.00000 1.00000
vt 0.49000 1.00000
vt 0.48800 1.00000
vt 1.00000 1.00000
vt 1.00000 1.00000
vt 1.00000 0.00000
vt 1.00000 0.00000
vt 0.33493 0.00000
vt 0.00000 0.00000
vt 0.00000 0.00000
vt 0.35925 0.00000
vt 0.00000 0.00000
vt 0.00000 0.00000
vt 0.00000 1.00000
vt 0.00000 1.00000
vt 0.50000 1.00000
vt 1.00000 1.00000
vt 0.49000 1.00000
vt 1.00000 1.00000
vt 1.00000 1.00000
vt 1.00000 0.00000
vt 1.00000 0.00000
vt 1.00000 0.00000
vt 0.50000 0.00000
vt 0.50869 0.00000
vt 0.49000 1.00000
vt 1.00000 1.00000
vt 1.00000 1.00000
vt 0.48800 1.00000
vt 0.48800 0.00000
vt 1.00000 0.00000
vt 1.00000 1.00000
vt 0.48800 1.00000
vt 0.50742 0.00000
vt 1.00000 0.00000
vt 1.00000 0.00000
vt 0.50869 0.00000
vt 0.49000 1.00000
vt 0.00000 1.00000
vt 0.50000 1.00000
vt 0.50000 0.00000
vt 0.00000 0.00000
vt 0.33493 0.00000
# 68 texture coordinates

vn -0.856984 0.51081 0.0682103
vn -0.872444 0.480645 0.0884442
vn -0.619691 0.297893 -0.726115
vn -0.618241 0.305155 -0.724333
vn 0.206916 0.507419 -0.836488
vn 0.229749 0.477389 -0.848124
vn 0.883302 0.460019 -0.0903312
vn 0.869022 0.491207 -0.0592971
vn -0.491739 0.538209 0.684488
vn -0.565856 0.553152 0.611416
vn -0.526957 0.591641 0.610145
vn -0.432974 0.572255 0.696461
vn -0.526957 0.591641 0.610145
vn -0.565856 0.553152 0.611416
vn -0.872444 0.480645 0.0884442
vn -0.856984 0.51081 0.0682103
vn -0.639342 0.458186 0.617501
vn -0.67292 0.401276 0.621415
vn -0.528979 0.579308 -0.620148
vn -0.90765 0.400906 0.124283
vn 0.878629 0.241486 0.411942
vn 0.869022 0.491207 -0.0592971
vn 0.883302 0.460019 -0.0903312
vn 0.896701 0.23509 0.375046
vn -0.872444 0.480645 0.0884442
vn -0.90765 0.400906 0.124283
vn -0.626181 0.263076 -0.733954
vn -0.619691 0.297893 -0.726115
vn 0.229749 0.477389 -0.848124
vn 0.271678 0.398448 -0.876031
vn 0.908271 0.392526 -0.144799
vn 0.883302 0.460019 -0.0903312
vn -0.597059 0.451976 0.66275
vn -0.639342 0.458186 0.617501
vn -0.565856 0.553152 0.611416
vn -0.491739 0.538209 0.684488
vn -0.565856 0.553152 0.611416
vn -0.639342 0.458186 0.617501
vn -0.90765 0.400906 0.124283
vn -0.872444 0.480645 0.0884442
vn -0.528979 0.579308 -0.620148
vn 0.271678 0.398448 -0.876031
vn -0.626181 0.263076 -0.733954
vn 0.271678 0.398448 -0.876031
vn -0.528979 0.579308 -0.620148
vn 0.919081 0.35627 -0.168408
vn 0.908271 0.392526 -0.144799
vn 0.908271 0.392526 -0.144799
vn 0.919081 0.35627 -0.168408
vn 0.92136 0.229399 0.313801
vn -0.626181 0.263076 -0.733954
vn 0.271678 0.398448 -0.876031
vn 0.229749 0.477389 -0.848124
vn -0.619691 0.297893 -0.726115
vn -0.619691 0.297893 -0.726115
vn 0.229749 0.477389 -0.848124
vn 0.206916 0.507419 -0.836488
vn -0.618241 0.305155 -0.724333
vn 0.896701 0.23509 0.375046
vn 0.883302 0.460019 -0.0903312
vn 0.908271 0.392526 -0.144799
vn 0.92136 0.229399 0.313801
vn -0.626181 0.263076 -0.733954
vn -0.90765 0.400906 0.124283
vn -0.528979 0.579308 -0.620148
vn -0.67292 0.401276 0.621415
vn -0.639342 0.458186 0.617501
vn -0.597059 0.451976 0.66275
# 68 vertex normals

usemtl TEAM
f 101/237/237 102/238/238 116/239/239 117/240/240
f 103/241/241 104/242/242 106/243/243 105/244/244
f 122/245/245 108/246/246 107/247/247 121/248/248
f 107/249/249 108/250/250 102/251/251 101/252/252
f 112/253/253 114/254/254 113/255/255 109/256/256
f 118/257/257 105/258/258 106/259/259 119/260/260
f 102/261/261 109/262/262 115/263/263 116/264/264
f 104/265/265 110/266/266 111/267/267 106/268/268
f 123/269/269 112/270/270 108/271/271 122/272/272
f 108/273/273 112/274/274 109/275/275 102/276/276
f 113/277/277 110/278/278 115/279/279
f 110/280/280 113/281/281 114/282/282 111/283/283
f 111/284/284 114/285/285 120/286/286
f 115/287/287 110/288/288 104/289/289 116/290/290
f 116/291/291 104/292/292 103/293/293 117/294/294
f 119/295/295 106/296/296 111/297/297 120/298/298
f 115/299/299 109/300/300 113/301/301
f 114/302/302 112/303/303 123/304/304
# 18 facets

v 0.124223 0.0102598 -0.579008
v 0.208745 0.156926 -0.649931
v 0.558315 0.0102598 -0.943255
v 0.473793 0.156926 -0.872332
v 0.922561 0.0102598 -0.509163
v 0.838039 0.156926 -0.43824
v 0.488469 0.0102598 -0.144917
v 0.572991 0.156926 -0.215839
v 0.277097 0.302926 -0.707285
v 0.405441 0.302926 -0.814978
v 0.769687 0.302926 -0.380886
v 0.641343 0.302926 -0.273193
v 0.341269 0.493926 -0.761132
v 0.705515 0.493926 -0.32704
v 0.3103 0.302926 -0.795432
v 0.282958 0.156926 -0.824164
v 0.255485 0.0102598 -0.852785
v 0.784673 0.0102598 -0.238439
v 0.762613 0.156926 -0.26299
v 0.740556 0.302926 -0.287544
v 0.56873 0.0102598 -0.0993647
v 0.623677 0.156926 -0.181371
v 0.664961 0.302926 -0.249935
# 23 vertices

vt 0.00000 1.00000
vt 0.00000 0.00000
vt 0.48800 0.00000
vt 0.48800 1.00000
vt 0.00000 1.00000
vt 0.00000 0.00000
vt 1.00000 0.00000
vt 1.00000 1.00000
vt 0.64075 0.00000
vt 1.00000 0.00000
vt 1.00000 1.00000
vt 0.62365 1.00000
vt 0.00000 1.00000
vt 0.00000 0.00000
vt 1.00000 0.00000
vt 1.00000 1.00000
vt 0.00000 0.00000
vt 0.00000 0.00000
vt 0.00000 1.00000
vt 0.00000 1.00000
vt 0.49349 1.00000
vt 0.00000 1.00000
vt 0.00000 0.00000
vt 0.49258 0.00000
vt 0.00000 1.00000
vt 0.00000 1.00000
vt 0.49000 1.00000
vt 0.48800 1.00000
vt 1.00000 1.00000
vt 1.00000 1.00000
vt 1.00000 0.00000
vt 1.00000 0.00000
vt 0.33493 0.00000
vt 0.00000 0.00000
vt 0.00000 0.00000
vt 0.35925 0.00000
vt 0.00000 0.00000
vt 0.00000 0.00000
vt 0.00000 1.00000
vt 0.00000 1.00000
vt 0.50000 1.00000
vt 1.00000 1.00000
vt 0.49000 1.00000
vt 1.00000 1.00000
vt 1.00000 1.00000
vt 1.00000 0.00000
vt 1.00000 0.00000
vt 1.00000 0.00000
vt 0.50000 0.00000
vt 0.50869 0.00000
vt 0.49000 1.00000
vt 1.00000 1.00000
vt 1.00000 1.00000
vt 0.48800 1.00000
vt 0.48800 0.00000
vt 1.00000 0.00000
vt 1.00000 1.00000
vt 0.48800 1.00000
vt 0.50742 0.00000
vt 1.00000 0.00000
vt 1.00000 0.00000
vt 0.50869 0.00000
vt 0.49000 1.00000
vt 0.00000 1.00000
vt 0.50000 1.00000
vt 0.50000 0.00000
vt 0.00000 0.00000
vt 0.33493 0.00000
# 68 texture coordinates

vn -0.856984 0.51081 0.0682103
vn -0.872444 0.480645 0.0884442
vn -0.619691 0.297893 -0.726115
vn -0.618241 0.305155 -0.724333
vn 0.206916 0.507419 -0.836488
vn 0.229749 0.477389 -0.848124
vn 0.883302 0.460019 -0.0903312
vn 0.869022 0.491207 -0.0592971
vn -0.491739 0.538209 0.684488
vn -0.565856 0.553152 0.611416
vn -0.526957 0.591641 0.610145
vn -0.432974 0.572255 0.696461
vn -0.526957 0.591641 0.610145
vn -0.565856 0.553152 0.611416
vn -0.872444 0.480645 0.0884442
vn -0.856984 0.51081 0.0682103
vn -0.639342 0.458186 0.617501
vn -0.67292 0.401276 0.621415
vn -0.528979 0.579308 -0.620148
vn -0.90765 0.400906 0.124283
vn 0.878629 0.241486 0.411942
vn 0.869022 0.491207 -0.0592971
vn 0.883302 0.460019 -0.0903312
vn 0.896701 0.23509 0.375046
vn -0.872444 0.480645 0.0884442
vn -0.90765 0.400906 0.124283
vn -0.626181 0.263076 -0.733954
vn -0.619691 0.297893 -0.726115
vn 0.229749 0.477389 -0.848124
vn 0.271678 0.398448 -0.876031
vn 0.908271 0.392526 -0.144799
vn 0.883302 0.460019 -0.0903312
vn -0.597059 0.451976 0.66275
vn -0.639342 0.458186 0.617501
vn -0.565856 0.553152 0.611416
vn -0.491739 0.538209 0.684488
vn -0.565856 0.553152 0.611416
vn -0.639342 0.458186 0.617501
vn -0.90765 0.400906 0.124283
vn -0.872444 0.480645 0.0884442
vn -0.528979 0.579308 -0.620148
vn 0.271678 0.398448 -0.876031
vn -0.626181 0.263076 -0.733954
vn 0.271678 0.398448 -0.876031
vn -0.528979 0.579308 -0.620148
vn 0.919081 0.35627 -0.168408
vn 0.908271 0.392526 -0.144799
vn 0.908271 0.392526 -0.144799
vn 0.919081 0.35627 -0.168408
vn 0.92136 0.229399 0.313801
vn -0.626181 0.263076 -0.733954
vn 0.271678 0.398448 -0.876031
vn 0.229749 0.477389 -0.848124
vn -0.619691 0.297893 -0.726115
vn -0.619691 0.297893 -0.726115
vn 0.229749 0.477389 -0.848124
vn 0.206916 0.507419 -0.836488
vn -0.618241 0.305155 -0.724333
vn 0.896701 0.23509 0.375046
vn 0.883302 0.460019 -0.0903312
vn 0.908271 0.392526 -0.144799
vn 0.92136 0.229399 0.313801
vn -0.626181 0.263076 -0.733954
vn -0.90765 0.400906 0.124283
vn -0.528979 0.579308 -0.620148
vn -0.67292 0.401276 0.621415
vn -0.639342 0.458186 0.617501
vn -0.597059 0.451976 0.66275
# 68 vertex normals

usemtl TEAM
f 124/305/305 125/306/306 139/307/307 140/308/308
f 126/309/309 127/310/310 129/311/311 128/312/312
f 145/313/313 131/314/314 130/315/315 144/316/316
f 130/317/317 131/318/318 125/319/319 124/320/320
f 135/321/321 137/322/322 136/323/323 132/324/324
f 141/325/325 128/326/326 129/327/327 142/328/328
f 125/329/329 132/330/330 138/331/331 139/332/332
f 127/333/333 133/334/334 134/335/335 129/336/336
f 146/337/337 135/338/338 131/339/339 145/340/340
f 131/341/341 135/342/342 132/343/343 125/344/344
f 136/345/345 133/346/346 138/347/347
f 133/348/348 136/349/349 137/350/350 134/351/351
f 134/352/352 137/353/353 143/354/354
f 138/355/355 133/356/356 127/357/357 139/358/358
f 139/359/359 127/360/360 126/361/361 140/362/362
f 142/363/363 129/364/364 134/365/365 143/366/366
f 138/367/367 132/368/368 136/369/369
f 137/370/370 135/371/371 146/372/372
# 18 facets

