#  ==========================================================================
#  
#  Wavefront OBJ format exported by Red-i Productions' "Riptide Pro"
#     (a commercial plugin for Cinema 4D PC & Mac, R9.6 or later)
#  
#  Red-i Productions
#  http://skinprops.com
#  
#  ==========================================================================
mtllib barracks.mtl
v -0.91686 1.50704 -0.972665
v -0.91686 1.6658 -0.972665
v 9.6299e-005 1.50704 -0.972665
v 9.6299e-005 1.6658 -0.972665
v 9.6299e-005 1.50704 0.941671
v 9.6299e-005 1.6658 0.941671
v -0.91686 1.50704 0.941671
v -0.91686 1.6658 0.941671
# 8 vertices

vt 0.00000 1.00000
vt 0.00000 0.00000
vt 1.00000 0.00000
vt 1.00000 1.00000
vt 0.00000 1.00000
vt 0.00000 0.00000
vt 1.00000 0.00000
vt 1.00000 1.00000
vt 0.00000 1.00000
vt 0.00000 0.00000
vt 1.00000 0.00000
vt 1.00000 1.00000
vt 0.00000 1.00000
vt 0.00000 0.00000
vt 1.00000 0.00000
vt 1.00000 1.00000
vt 0.00000 1.00000
vt 0.00000 0.00000
vt 1.00000 0.00000
vt 1.00000 1.00000
vt 0.00000 1.00000
vt 0.00000 0.00000
vt 1.00000 0.00000
vt 1.00000 1.00000
# 24 texture coordinates

vn 0 0 -1
vn 0 0 -1
vn 0 0 -1
vn 0 0 -1
vn 1 0 0
vn 1 0 0
vn 1 0 0
vn 1 0 0
vn 0 0 1
vn 0 0 1
vn 0 0 1
vn 0 0 1
vn -1 0 0
vn -1 0 0
vn -1 0 0
vn -1 0 0
vn 0 1 0
vn 0 1 0
vn 0 1 0
vn 0 1 0
vn 0 -1 0
vn 0 -1 0
vn 0 -1 0
vn 0 -1 0
# 24 vertex normals

usemtl Mat.11
f 1/1/1 2/2/2 4/3/3 3/4/4
f 3/5/5 4/6/6 6/7/7 5/8/8
f 5/9/9 6/10/10 8/11/11 7/12/12
f 7/13/13 8/14/14 2/15/15 1/16/16
f 2/17/17 8/18/18 6/19/19 4/20/20
f 7/21/21 1/22/22 3/23/23 5/24/24
# 6 facets

v -0.91686 0.922932 -0.972665
v -0.91686 1.0817 -0.972665
v 9.6299e-005 0.922932 -0.972665
v 9.6299e-005 1.0817 -0.972665
v 9.6299e-005 0.922932 0.941671
v 9.6299e-005 1.0817 0.941671
v -0.91686 0.922932 0.941671
v -0.91686 1.0817 0.941671
# 8 vertices

vt 0.00000 1.00000
vt 0.00000 0.00000
vt 1.00000 0.00000
vt 1.00000 1.00000
vt 0.00000 1.00000
vt 0.00000 0.00000
vt 1.00000 0.00000
vt 1.00000 1.00000
vt 0.00000 1.00000
vt 0.00000 0.00000
vt 1.00000 0.00000
vt 1.00000 1.00000
vt 0.00000 1.00000
vt 0.00000 0.00000
vt 1.00000 0.00000
vt 1.00000 1.00000
vt 0.00000 1.00000
vt 0.00000 0.00000
vt 1.00000 0.00000
vt 1.00000 1.00000
vt 0.00000 1.00000
vt 0.00000 0.00000
vt 1.00000 0.00000
vt 1.00000 1.00000
# 24 texture coordinates

vn 0 0 -1
vn 0 0 -1
vn 0 0 -1
vn 0 0 -1
vn 1 0 0
vn 1 0 0
vn 1 0 0
vn 1 0 0
vn 0 0 1
vn 0 0 1
vn 0 0 1
vn 0 0 1
vn -1 0 0
vn -1 0 0
vn -1 0 0
vn -1 0 0
vn 0 1 0
vn 0 1 0
vn 0 1 0
vn 0 1 0
vn 0 -1 0
vn 0 -1 0
vn 0 -1 0
vn 0 -1 0
# 24 vertex normals

usemtl Mat.11
f 9/25/25 10/26/26 12/27/27 11/28/28
f 11/29/29 12/30/30 14/31/31 13/32/32
f 13/33/33 14/34/34 16/35/35 15/36/36
f 15/37/37 16/38/38 10/39/39 9/40/40
f 10/41/41 16/42/42 14/43/43 12/44/44
f 15/45/45 9/46/46 11/47/47 13/48/48
# 6 facets

v -0.91686 0.375911 -0.972665
v -0.91686 0.534677 -0.972665
v 9.6299e-005 0.375911 -0.972665
v 9.6299e-005 0.534677 -0.972665
v 9.6299e-005 0.375911 0.941671
v 9.6299e-005 0.534677 0.941671
v -0.91686 0.375911 0.941671
v -0.91686 0.534677 0.941671
# 8 vertices

vt 0.00000 1.00000
vt 0.00000 0.00000
vt 1.00000 0.00000
vt 1.00000 1.00000
vt 0.00000 1.00000
vt 0.00000 0.00000
vt 1.00000 0.00000
vt 1.00000 1.00000
vt 0.00000 1.00000
vt 0.00000 0.00000
vt 1.00000 0.00000
vt 1.00000 1.00000
vt 0.00000 1.00000
vt 0.00000 0.00000
vt 1.00000 0.00000
vt 1.00000 1.00000
vt 0.00000 1.00000
vt 0.00000 0.00000
vt 1.00000 0.00000
vt 1.00000 1.00000
vt 0.00000 1.00000
vt 0.00000 0.00000
vt 1.00000 0.00000
vt 1.00000 1.00000
# 24 texture coordinates

vn 0 0 -1
vn 0 0 -1
vn 0 0 -1
vn 0 0 -1
vn 1 0 0
vn 1 0 0
vn 1 0 0
vn 1 0 0
vn 0 0 1
vn 0 0 1
vn 0 0 1
vn 0 0 1
vn -1 0 0
vn -1 0 0
vn -1 0 0
vn -1 0 0
vn 0 1 0
vn 0 1 0
vn 0 1 0
vn 0 1 0
vn 0 -1 0
vn 0 -1 0
vn 0 -1 0
vn 0 -1 0
# 24 vertex normals

usemtl Mat.11
f 17/49/49 18/50/50 20/51/51 19/52/52
f 19/53/53 20/54/54 22/55/55 21/56/56
f 21/57/57 22/58/58 24/59/59 23/60/60
f 23/61/61 24/62/62 18/63/63 17/64/64
f 18/65/65 24/66/66 22/67/67 20/68/68
f 23/69/69 17/70/70 19/71/71 21/72/72
# 6 facets

v -0.80907 -0.0254998 -0.83061
v -0.80907 1.9745 -0.83061
v -0.74907 -0.0254998 -0.83061
v -0.74907 -0.0254998 -0.83061
v -0.74907 1.9745 -0.83061
v -0.74907 1.9745 -0.83061
v -0.80907 -0.0254998 -0.77061
v -0.80907 -0.0254998 -0.77061
v -0.80907 1.9745 -0.77061
v -0.80907 1.9745 -0.77061
v -0.86907 -0.0254998 -0.83061
v -0.86907 -0.0254998 -0.83061
v -0.86907 1.9745 -0.83061
v -0.86907 1.9745 -0.83061
v -0.80907 -0.0254998 -0.89061
v -0.80907 -0.0254998 -0.89061
v -0.80907 1.9745 -0.89061
v -0.80907 1.9745 -0.89061
# 18 vertices

vt 0.50000 0.50000
vt 0.00000 0.50000
vt 0.50000 0.00000
vt 0.00000 1.00000
vt 0.00000 0.00000
vt 0.25000 0.00000
vt 0.25000 1.00000
vt 1.00000 0.50000
vt 0.50000 0.50000
vt 0.50000 0.00000
vt 0.50000 0.50000
vt 0.50000 0.00000
vt 1.00000 0.50000
vt 0.25000 1.00000
vt 0.25000 0.00000
vt 0.50000 0.00000
vt 0.50000 1.00000
vt 0.50000 0.00000
vt 0.50000 0.50000
vt 0.00000 0.50000
vt 0.50000 0.50000
vt 1.00000 0.50000
vt 0.50000 1.00000
vt 0.50000 1.00000
vt 0.50000 0.00000
vt 0.75000 0.00000
vt 0.75000 1.00000
vt 0.00000 0.50000
vt 0.50000 0.50000
vt 0.50000 1.00000
vt 0.50000 0.50000
vt 0.50000 1.00000
vt 0.00000 0.50000
vt 0.75000 1.00000
vt 0.75000 0.00000
vt 1.00000 0.00000
vt 1.00000 1.00000
vt 0.50000 1.00000
vt 0.50000 0.50000
vt 1.00000 0.50000
# 40 texture coordinates

vn 0 -1 0
vn 0 -1 0
vn 0 -1 0
vn 0.707107 0 0.707107
vn 0.707107 0 0.707107
vn 0.707107 0 0.707107
vn 0.707107 0 0.707107
vn 0 1 0
vn 0 1 0
vn 0 1 0
vn 0 -1 0
vn 0 -1 0
vn 0 -1 0
vn -0.707107 0 0.707107
vn -0.707107 0 0.707107
vn -0.707107 0 0.707107
vn -0.707107 0 0.707107
vn 0 1 0
vn 0 1 0
vn 0 1 0
vn 0 -1 0
vn 0 -1 0
vn 0 -1 0
vn -0.707107 0 -0.707107
vn -0.707107 0 -0.707107
vn -0.707107 0 -0.707107
vn -0.707107 0 -0.707107
vn 0 1 0
vn 0 1 0
vn 0 1 0
vn 0 -1 0
vn 0 -1 0
vn 0 -1 0
vn 0.707107 0 -0.707107
vn 0.707107 0 -0.707107
vn 0.707107 0 -0.707107
vn 0.707107 0 -0.707107
vn 0 1 0
vn 0 1 0
vn 0 1 0
# 40 vertex normals

usemtl Mat.4
f 25/73/73 27/74/74 31/75/75
f 28/76/76 29/77/77 33/78/78 32/79/79
f 30/80/80 26/81/81 34/82/82
f 25/83/83 31/84/84 35/85/85
f 32/86/86 33/87/87 37/88/88 36/89/89
f 34/90/90 26/91/91 38/92/92
f 25/93/93 35/94/94 39/95/95
f 36/96/96 37/97/97 41/98/98 40/99/99
f 38/100/100 26/101/101 42/102/102
f 25/103/103 39/104/104 27/105/105
f 40/106/106 41/107/107 29/108/108 28/109/109
f 42/110/110 26/111/111 30/112/112
# 12 facets

v -0.136128 -0.0254998 -0.83061
v -0.136128 1.9745 -0.83061
v -0.0761277 -0.0254998 -0.83061
v -0.0761277 -0.0254998 -0.83061
v -0.0761277 1.9745 -0.83061
v -0.0761277 1.9745 -0.83061
v -0.136128 -0.0254998 -0.77061
v -0.136128 -0.0254998 -0.77061
v -0.136128 1.9745 -0.77061
v -0.136128 1.9745 -0.77061
v -0.196128 -0.0254998 -0.83061
v -0.196128 -0.0254998 -0.83061
v -0.196128 1.9745 -0.83061
v -0.196128 1.9745 -0.83061
v -0.136128 -0.0254998 -0.89061
v -0.136128 -0.0254998 -0.89061
v -0.136128 1.9745 -0.89061
v -0.136128 1.9745 -0.89061
# 18 vertices

vt 0.50000 0.50000
vt 0.00000 0.50000
vt 0.50000 0.00000
vt 0.00000 1.00000
vt 0.00000 0.00000
vt 0.25000 0.00000
vt 0.25000 1.00000
vt 1.00000 0.50000
vt 0.50000 0.50000
vt 0.50000 0.00000
vt 0.50000 0.50000
vt 0.50000 0.00000
vt 1.00000 0.50000
vt 0.25000 1.00000
vt 0.25000 0.00000
vt 0.50000 0.00000
vt 0.50000 1.00000
vt 0.50000 0.00000
vt 0.50000 0.50000
vt 0.00000 0.50000
vt 0.50000 0.50000
vt 1.00000 0.50000
vt 0.50000 1.00000
vt 0.50000 1.00000
vt 0.50000 0.00000
vt 0.75000 0.00000
vt 0.75000 1.00000
vt 0.00000 0.50000
vt 0.50000 0.50000
vt 0.50000 1.00000
vt 0.50000 0.50000
vt 0.50000 1.00000
vt 0.00000 0.50000
vt 0.75000 1.00000
vt 0.75000 0.00000
vt 1.00000 0.00000
vt 1.00000 1.00000
vt 0.50000 1.00000
vt 0.50000 0.50000
vt 1.00000 0.50000
# 40 texture coordinates

vn 0 -1 0
vn 0 -1 0
vn 0 -1 0
vn 0.707107 0 0.707107
vn 0.707107 0 0.707107
vn 0.707107 0 0.707107
vn 0.707107 0 0.707107
vn 0 1 0
vn 0 1 0
vn 0 1 0
vn 0 -1 0
vn 0 -1 0
vn 0 -1 0
vn -0.707107 0 0.707107
vn -0.707107 0 0.707107
vn -0.707107 0 0.707107
vn -0.707107 0 0.707107
vn 0 1 0
vn 0 1 0
vn 0 1 0
vn 0 -1 0
vn 0 -1 0
vn 0 -1 0
vn -0.707107 0 -0.707107
vn -0.707107 0 -0.707107
vn -0.707107 0 -0.707107
vn -0.707107 0 -0.707107
vn 0 1 0
vn 0 1 0
vn 0 1 0
vn 0 -1 0
vn 0 -1 0
vn 0 -1 0
vn 0.707107 0 -0.707107
vn 0.707107 0 -0.707107
vn 0.707107 0 -0.707107
vn 0.707107 0 -0.707107
vn 0 1 0
vn 0 1 0
vn 0 1 0
# 40 vertex normals

usemtl Mat.4
f 43/113/113 45/114/114 49/115/115
f 46/116/116 47/117/117 51/118/118 50/119/119
f 48/120/120 44/121/121 52/122/122
f 43/123/123 49/124/124 53/125/125
f 50/126/126 51/127/127 55/128/128 54/129/129
f 52/130/130 44/131/131 56/132/132
f 43/133/133 53/134/134 57/135/135
f 54/136/136 55/137/137 59/138/138 58/139/139
f 56/140/140 44/141/141 60/142/142
f 43/143/143 57/144/144 45/145/145
f 58/146/146 59/147/147 47/148/148 46/149/149
f 60/150/150 44/151/151 48/152/152
# 12 facets

v -0.136128 -0.0254998 0.799616
v -0.136128 1.9745 0.799616
v -0.0761277 -0.0254998 0.799616
v -0.0761277 -0.0254998 0.799616
v -0.0761277 1.9745 0.799616
v -0.0761277 1.9745 0.799616
v -0.136128 -0.0254998 0.859616
v -0.136128 -0.0254998 0.859616
v -0.136128 1.9745 0.859616
v -0.136128 1.9745 0.859616
v -0.196128 -0.0254998 0.799616
v -0.196128 -0.0254998 0.799616
v -0.196128 1.9745 0.799616
v -0.196128 1.9745 0.799616
v -0.136128 -0.0254998 0.739616
v -0.136128 -0.0254998 0.739616
v -0.136128 1.9745 0.739616
v -0.136128 1.9745 0.739616
# 18 vertices

vt 0.50000 0.50000
vt 0.00000 0.50000
vt 0.50000 0.00000
vt 0.00000 1.00000
vt 0.00000 0.00000
vt 0.25000 0.00000
vt 0.25000 1.00000
vt 1.00000 0.50000
vt 0.50000 0.50000
vt 0.50000 0.00000
vt 0.50000 0.50000
vt 0.50000 0.00000
vt 1.00000 0.50000
vt 0.25000 1.00000
vt 0.25000 0.00000
vt 0.50000 0.00000
vt 0.50000 1.00000
vt 0.50000 0.00000
vt 0.50000 0.50000
vt 0.00000 0.50000
vt 0.50000 0.50000
vt 1.00000 0.50000
vt 0.50000 1.00000
vt 0.50000 1.00000
vt 0.50000 0.00000
vt 0.75000 0.00000
vt 0.75000 1.00000
vt 0.00000 0.50000
vt 0.50000 0.50000
vt 0.50000 1.00000
vt 0.50000 0.50000
vt 0.50000 1.00000
vt 0.00000 0.50000
vt 0.75000 1.00000
vt 0.75000 0.00000
vt 1.00000 0.00000
vt 1.00000 1.00000
vt 0.50000 1.00000
vt 0.50000 0.50000
vt 1.00000 0.50000
# 40 texture coordinates

vn 0 -1 0
vn 0 -1 0
vn 0 -1 0
vn 0.707107 0 0.707107
vn 0.707107 0 0.707107
vn 0.707107 0 0.707107
vn 0.707107 0 0.707107
vn 0 1 0
vn 0 1 0
vn 0 1 0
vn 0 -1 0
vn 0 -1 0
vn 0 -1 0
vn -0.707107 0 0.707107
vn -0.707107 0 0.707107
vn -0.707107 0 0.707107
vn -0.707107 0 0.707107
vn 0 1 0
vn 0 1 0
vn 0 1 0
vn 0 -1 0
vn 0 -1 0
vn 0 -1 0
vn -0.707107 0 -0.707107
vn -0.707107 0 -0.707107
vn -0.707107 0 -0.707107
vn -0.707107 0 -0.707107
vn 0 1 0
vn 0 1 0
vn 0 1 0
vn 0 -1 0
vn 0 -1 0
vn 0 -1 0
vn 0.707107 0 -0.707107
vn 0.707107 0 -0.707107
vn 0.707107 0 -0.707107
vn 0.707107 0 -0.707107
vn 0 1 0
vn 0 1 0
vn 0 1 0
# 40 vertex normals

usemtl Mat.4
f 61/153/153 63/154/154 67/155/155
f 64/156/156 65/157/157 69/158/158 68/159/159
f 66/160/160 62/161/161 70/162/162
f 61/163/163 67/164/164 71/165/165
f 68/166/166 69/167/167 73/168/168 72/169/169
f 70/170/170 62/171/171 74/172/172
f 61/173/173 71/174/174 75/175/175
f 72/176/176 73/177/177 77/178/178 76/179/179
f 74/180/180 62/181/181 78/182/182
f 61/183/183 75/184/184 63/185/185
f 76/186/186 77/187/187 65/188/188 64/189/189
f 78/190/190 62/191/191 66/192/192
# 12 facets

v -0.790114 -0.0254998 0.799616
v -0.790114 1.9745 0.799616
v -0.730114 -0.0254998 0.799616
v -0.730114 -0.0254998 0.799616
v -0.730114 1.9745 0.799616
v -0.730114 1.9745 0.799616
v -0.790114 -0.0254998 0.859616
v -0.790114 -0.0254998 0.859616
v -0.790114 1.9745 0.859616
v -0.790114 1.9745 0.859616
v -0.850114 -0.0254998 0.799616
v -0.850114 -0.0254998 0.799616
v -0.850114 1.9745 0.799616
v -0.850114 1.9745 0.799616
v -0.790114 -0.0254998 0.739616
v -0.790114 -0.0254998 0.739616
v -0.790114 1.9745 0.739616
v -0.790114 1.9745 0.739616
# 18 vertices

vt 0.50000 0.50000
vt 0.00000 0.50000
vt 0.50000 0.00000
vt 0.00000 1.00000
vt 0.00000 0.00000
vt 0.25000 0.00000
vt 0.25000 1.00000
vt 1.00000 0.50000
vt 0.50000 0.50000
vt 0.50000 0.00000
vt 0.50000 0.50000
vt 0.50000 0.00000
vt 1.00000 0.50000
vt 0.25000 1.00000
vt 0.25000 0.00000
vt 0.50000 0.00000
vt 0.50000 1.00000
vt 0.50000 0.00000
vt 0.50000 0.50000
vt 0.00000 0.50000
vt 0.50000 0.50000
vt 1.00000 0.50000
vt 0.50000 1.00000
vt 0.50000 1.00000
vt 0.50000 0.00000
vt 0.75000 0.00000
vt 0.75000 1.00000
vt 0.00000 0.50000
vt 0.50000 0.50000
vt 0.50000 1.00000
vt 0.50000 0.50000
vt 0.50000 1.00000
vt 0.00000 0.50000
vt 0.75000 1.00000
vt 0.75000 0.00000
vt 1.00000 0.00000
vt 1.00000 1.00000
vt 0.50000 1.00000
vt 0.50000 0.50000
vt 1.00000 0.50000
# 40 texture coordinates

vn 0 -1 0
vn 0 -1 0
vn 0 -1 0
vn 0.707107 0 0.707107
vn 0.707107 0 0.707107
vn 0.707107 0 0.707107
vn 0.707107 0 0.707107
vn 0 1 0
vn 0 1 0
vn 0 1 0
vn 0 -1 0
vn 0 -1 0
vn 0 -1 0
vn -0.707107 0 0.707107
vn -0.707107 0 0.707107
vn -0.707107 0 0.707107
vn -0.707107 0 0.707107
vn 0 1 0
vn 0 1 0
vn 0 1 0
vn 0 -1 0
vn 0 -1 0
vn 0 -1 0
vn -0.707107 0 -0.707107
vn -0.707107 0 -0.707107
vn -0.707107 0 -0.707107
vn -0.707107 0 -0.707107
vn 0 1 0
vn 0 1 0
vn 0 1 0
vn 0 -1 0
vn 0 -1 0
vn 0 -1 0
vn 0.707107 0 -0.707107
vn 0.707107 0 -0.707107
vn 0.707107 0 -0.707107
vn 0.707107 0 -0.707107
vn 0 1 0
vn 0 1 0
vn 0 1 0
# 40 vertex normals

usemtl Mat.4
f 79/193/193 81/194/194 85/195/195
f 82/196/196 83/197/197 87/198/198 86/199/199
f 84/200/200 80/201/201 88/202/202
f 79/203/203 85/204/204 89/205/205
f 86/206/206 87/207/207 91/208/208 90/209/209
f 88/210/210 80/211/211 92/212/212
f 79/213/213 89/214/214 93/215/215
f 90/216/216 91/217/217 95/218/218 94/219/219
f 92/220/220 80/221/221 96/222/222
f 79/223/223 93/224/224 81/225/225
f 94/226/226 95/227/227 83/228/228 82/229/229
f 96/230/230 80/231/231 84/232/232
# 12 facets

v 0.122538 0.0102598 0.377576
v 0.20706 0.156926 0.306653
v 0.55663 0.0102598 0.0133296
v 0.472108 0.156926 0.084252
v 0.920876 0.0102598 0.447421
v 0.836354 0.156926 0.518344
v 0.486784 0.0102598 0.811668
v 0.571306 0.156926 0.740745
v 0.275412 0.302926 0.249299
v 0.403756 0.302926 0.141606
v 0.768002 0.302926 0.575698
v 0.639658 0.302926 0.683391
v 0.339584 0.493926 0.195453
v 0.70383 0.493926 0.629545
v 0.308615 0.302926 0.161152
v 0.281273 0.156926 0.13242
v 0.2538 0.0102598 0.103799
v 0.782988 0.0102598 0.718146
v 0.760928 0.156926 0.693595
v 0.738871 0.302926 0.66904
v 0.567045 0.0102598 0.85722
v 0.621992 0.156926 0.775213
v 0.663276 0.302926 0.706649
# 23 vertices

vt 0.00000 1.00000
vt 0.00000 0.00000
vt 0.48800 0.00000
vt 0.48800 1.00000
vt 0.00000 1.00000
vt 0.00000 0.00000
vt 1.00000 0.00000
vt 1.00000 1.00000
vt 0.64075 0.00000
vt 1.00000 0.00000
vt 1.00000 1.00000
vt 0.62365 1.00000
vt 0.00000 1.00000
vt 0.00000 0.00000
vt 1.00000 0.00000
vt 1.00000 1.00000
vt 0.00000 0.00000
vt 0.00000 0.00000
vt 0.00000 1.00000
vt 0.00000 1.00000
vt 0.49349 1.00000
vt 0.00000 1.00000
vt 0.00000 0.00000
vt 0.49258 0.00000
vt 0.00000 1.00000
vt 0.00000 1.00000
vt 0.49000 1.00000
vt 0.48800 1.00000
vt 1.00000 1.00000
vt 1.00000 1.00000
vt 1.00000 0.00000
vt 1.00000 0.00000
vt 0.33493 0.00000
vt 0.00000 0.00000
vt 0.00000 0.00000
vt 0.35925 0.00000
vt 0.00000 0.00000
vt 0.00000 0.00000
vt 0.00000 1.00000
vt 0.00000 1.00000
vt 0.50000 1.00000
vt 1.00000 1.00000
vt 0.49000 1.00000
vt 1.00000 1.00000
vt 1.00000 1.00000
vt 1.00000 0.00000
vt 1.00000 0.00000
vt 1.00000 0.00000
vt 0.50000 0.00000
vt 0.50869 0.00000
vt 0.49000 1.00000
vt 1.00000 1.00000
vt 1.00000 1.00000
vt 0.48800 1.00000
vt 0.48800 0.00000
vt 1.00000 0.00000
vt 1.00000 1.00000
vt 0.48800 1.00000
vt 0.50742 0.00000
vt 1.00000 0.00000
vt 1.00000 0.00000
vt 0.50869 0.00000
vt 0.49000 1.00000
vt 0.00000 1.00000
vt 0.50000 1.00000
vt 0.50000 0.00000
vt 0.00000 0.00000
vt 0.33493 0.00000
# 68 texture coordinates

vn -0.856984 0.51081 0.0682103
vn -0.872444 0.480645 0.0884442
vn -0.619691 0.297893 -0.726115
vn -0.618241 0.305155 -0.724333
vn 0.206916 0.507419 -0.836488
vn 0.229749 0.477389 -0.848124
vn 0.883302 0.460019 -0.0903312
vn 0.869022 0.491207 -0.0592971
vn -0.491739 0.538209 0.684488
vn -0.565856 0.553152 0.611416
vn -0.526957 0.591641 0.610145
vn -0.432974 0.572255 0.696461
vn -0.526957 0.591641 0.610145
vn -0.565856 0.553152 0.611416
vn -0.872444 0.480645 0.0884442
vn -0.856984 0.51081 0.0682103
vn -0.639342 0.458186 0.617501
vn -0.67292 0.401276 0.621415
vn -0.528979 0.579308 -0.620148
vn -0.90765 0.400906 0.124283
vn 0.878629 0.241486 0.411942
vn 0.869022 0.491207 -0.0592971
vn 0.883302 0.460019 -0.0903312
vn 0.896701 0.23509 0.375046
vn -0.872444 0.480645 0.0884442
vn -0.90765 0.400906 0.124283
vn -0.626181 0.263076 -0.733954
vn -0.619691 0.297893 -0.726115
vn 0.229749 0.477389 -0.848124
vn 0.271678 0.398448 -0.876031
vn 0.908271 0.392526 -0.144799
vn 0.883302 0.460019 -0.0903312
vn -0.597059 0.451976 0.66275
vn -0.639342 0.458186 0.617501
vn -0.565856 0.553152 0.611416
vn -0.491739 0.538209 0.684488
vn -0.565856 0.553152 0.611416
vn -0.639342 0.458186 0.617501
vn -0.90765 0.400906 0.124283
vn -0.872444 0.480645 0.0884442
vn -0.528979 0.579308 -0.620148
vn 0.271678 0.398448 -0.876031
vn -0.626181 0.263076 -0.733954
vn 0.271678 0.398448 -0.876031
vn -0.528979 0.579308 -0.620148
vn 0.919081 0.35627 -0.168408
vn 0.908271 0.392526 -0.144799
vn 0.908271 0.392526 -0.144799
vn 0.919081 0.35627 -0.168408
vn 0.92136 0.229399 0.313801
vn -0.626181 0.263076 -0.733954
vn 0.271678 0.398448 -0.876031
vn 0.229749 0.477389 -0.848124
vn -0.619691 0.297893 -0.726115
vn -0.619691 0.297893 -0.726115
vn 0.229749 0.477389 -0.848124
vn 0.206916 0.507419 -0.836488
vn -0.618241 0.305155 -0.724333
vn 0.896701 0.23509 0.375046
vn 0.883302 0.460019 -0.0903312
vn 0.908271 0.392526 -0.144799
vn 0.92136 0.229399 0.313801
vn -0.626181 0.263076 -0.733954
vn -0.90765 0.400906 0.124283
vn -0.528979 0.579308 -0.620148
vn -0.67292 0.401276 0.621415
vn -0.639342 0.458186 0.617501
vn -0.597059 0.451976 0.66275
# 68 vertex normals

usemtl TEAM
f 97/233/233 98/234/234 112/235/235 113/236/236
f 99/237/237 100/238/238 102/239/239 101/240/240
f 118/241/241 104/242/242 103/243/243 117/244/244
f 103/245/245 104/246/246 98/247/247 97/248/248
f 108/249/249 110/250/250 109/251/251 105/252/252
f 114/253/253 101/254/254 102/255/255 115/256/256
f 98/257/257 105/258/258 111/259/259 112/260/260
f 100/261/261 106/262/262 107/263/263 102/264/264
f 119/265/265 108/266/266 104/267/267 118/268/268
f 104/269/269 108/270/270 105/271/271 98/272/272
f 109/273/273 106/274/274 111/275/275
f 106/276/276 109/277/277 110/278/278 107/279/279
f 107/280/280 110/281/281 116/282/282
f 111/283/283 106/284/284 100/285/285 112/286/286
f 112/287/287 100/288/288 99/289/289 113/290/290
f 115/291/291 102/292/292 107/293/293 116/294/294
f 111/295/295 105/296/296 109/297/297
f 110/298/298 108/299/299 119/300/300
# 18 facets

v 0.124223 0.0102598 -0.579008
v 0.208745 0.156926 -0.649931
v 0.558315 0.0102598 -0.943255
v 0.473793 0.156926 -0.872332
v 0.922561 0.0102598 -0.509163
v 0.838039 0.156926 -0.43824
v 0.488469 0.0102598 -0.144917
v 0.572991 0.156926 -0.215839
v 0.277097 0.302926 -0.707285
v 0.405441 0.302926 -0.814978
v 0.769687 0.302926 -0.380886
v 0.641343 0.302926 -0.273193
v 0.341269 0.493926 -0.761132
v 0.705515 0.493926 -0.32704
v 0.3103 0.302926 -0.795432
v 0.282958 0.156926 -0.824164
v 0.255485 0.0102598 -0.852785
v 0.784673 0.0102598 -0.238439
v 0.762613 0.156926 -0.26299
v 0.740556 0.302926 -0.287544
v 0.56873 0.0102598 -0.0993647
v 0.623677 0.156926 -0.181371
v 0.664961 0.302926 -0.249935
# 23 vertices

vt 0.00000 1.00000
vt 0.00000 0.00000
vt 0.48800 0.00000
vt 0.48800 1.00000
vt 0.00000 1.00000
vt 0.00000 0.00000
vt 1.00000 0.00000
vt 1.00000 1.00000
vt 0.64075 0.00000
vt 1.00000 0.00000
vt 1.00000 1.00000
vt 0.62365 1.00000
vt 0.00000 1.00000
vt 0.00000 0.00000
vt 1.00000 0.00000
vt 1.00000 1.00000
vt 0.00000 0.00000
vt 0.00000 0.00000
vt 0.00000 1.00000
vt 0.00000 1.00000
vt 0.49349 1.00000
vt 0.00000 1.00000
vt 0.00000 0.00000
vt 0.49258 0.00000
vt 0.00000 1.00000
vt 0.00000 1.00000
vt 0.49000 1.00000
vt 0.48800 1.00000
vt 1.00000 1.00000
vt 1.00000 1.00000
vt 1.00000 0.00000
vt 1.00000 0.00000
vt 0.33493 0.00000
vt 0.00000 0.00000
vt 0.00000 0.00000
vt 0.35925 0.00000
vt 0.00000 0.00000
vt 0.00000 0.00000
vt 0.00000 1.00000
vt 0.00000 1.00000
vt 0.50000 1.00000
vt 1.00000 1.00000
vt 0.49000 1.00000
vt 1.00000 1.00000
vt 1.00000 1.00000
vt 1.00000 0.00000
vt 1.00000 0.00000
vt 1.00000 0.00000
vt 0.50000 0.00000
vt 0.50869 0.00000
vt 0.49000 1.00000
vt 1.00000 1.00000
vt 1.00000 1.00000
vt 0.48800 1.00000
vt 0.48800 0.00000
vt 1.00000 0.00000
vt 1.00000 1.00000
vt 0.48800 1.00000
vt 0.50742 0.00000
vt 1.00000 0.00000
vt 1.00000 0.00000
vt 0.50869 0.00000
vt 0.49000 1.00000
vt 0.00000 1.00000
vt 0.50000 1.00000
vt 0.50000 0.00000
vt 0.00000 0.00000
vt 0.33493 0.00000
# 68 texture coordinates

vn -0.856984 0.51081 0.0682103
vn -0.872444 0.480645 0.0884442
vn -0.619691 0.297893 -0.726115
vn -0.618241 0.305155 -0.724333
vn 0.206916 0.507419 -0.836488
vn 0.229749 0.477389 -0.848124
vn 0.883302 0.460019 -0.0903312
vn 0.869022 0.491207 -0.0592971
vn -0.491739 0.538209 0.684488
vn -0.565856 0.553152 0.611416
vn -0.526957 0.591641 0.610145
vn -0.432974 0.572255 0.696461
vn -0.526957 0.591641 0.610145
vn -0.565856 0.553152 0.611416
vn -0.872444 0.480645 0.0884442
vn -0.856984 0.51081 0.0682103
vn -0.639342 0.458186 0.617501
vn -0.67292 0.401276 0.621415
vn -0.528979 0.579308 -0.620148
vn -0.90765 0.400906 0.124283
vn 0.878629 0.241486 0.411942
vn 0.869022 0.491207 -0.0592971
vn 0.883302 0.460019 -0.0903312
vn 0.896701 0.23509 0.375046
vn -0.872444 0.480645 0.0884442
vn -0.90765 0.400906 0.124283
vn -0.626181 0.263076 -0.733954
vn -0.619691 0.297893 -0.726115
vn 0.229749 0.477389 -0.848124
vn 0.271678 0.398448 -0.876031
vn 0.908271 0.392526 -0.144799
vn 0.883302 0.460019 -0.0903312
vn -0.597059 0.451976 0.66275
vn -0.639342 0.458186 0.617501
vn -0.565856 0.553152 0.611416
vn -0.491739 0.538209 0.684488
vn -0.565856 0.553152 0.611416
vn -0.639342 0.458186 0.617501
vn -0.90765 0.400906 0.124283
vn -0.872444 0.480645 0.0884442
vn -0.528979 0.579308 -0.620148
vn 0.271678 0.398448 -0.876031
vn -0.626181 0.263076 -0.733954
vn 0.271678 0.398448 -0.876031
vn -0.528979 0.579308 -0.620148
vn 0.919081 0.35627 -0.168408
vn 0.908271 0.392526 -0.144799
vn 0.908271 0.392526 -0.144799
vn 0.919081 0.35627 -0.168408
vn 0.92136 0.229399 0.313801
vn -0.626181 0.263076 -0.733954
vn 0.271678 0.398448 -0.876031
vn 0.229749 0.477389 -0.848124
vn -0.619691 0.297893 -0.726115
vn -0.619691 0.297893 -0.726115
vn 0.229749 0.477389 -0.848124
vn 0.206916 0.507419 -0.836488
vn -0.618241 0.305155 -0.724333
vn 0.896701 0.23509 0.375046
vn 0.883302 0.460019 -0.0903312
vn 0.908271 0.392526 -0.144799
vn 0.92136 0.229399 0.313801
vn -0.626181 0.263076 -0.733954
vn -0.90765 0.400906 0.124283
vn -0.528979 0.579308 -0.620148
vn -0.67292 0.401276 0.621415
vn -0.639342 0.458186 0.617501
vn -0.597059 0.451976 0.66275
# 68 vertex normals

usemtl TEAM
f 120/301/301 121/302/302 135/303/303 136/304/304
f 122/305/305 123/306/306 125/307/307 124/308/308
f 141/309/309 127/310/310 126/311/311 140/312/312
f 126/313/313 127/314/314 121/315/315 120/316/316
f 131/317/317 133/318/318 132/319/319 128/320/320
f 137/321/321 124/322/322 125/323/323 138/324/324
f 121/325/325 128/326/326 134/327/327 135/328/328
f 123/329/329 129/330/330 130/331/331 125/332/332
f 142/333/333 131/334/334 127/335/335 141/336/336
f 127/337/337 131/338/338 128/339/339 121/340/340
f 132/341/341 129/342/342 134/343/343
f 129/344/344 132/345/345 133/346/346 130/347/347
f 130/348/348 133/349/349 139/350/350
f 134/351/351 129/352/352 123/353/353 135/354/354
f 135/355/355 123/356/356 122/357/357 136/358/358
f 138/359/359 125/360/360 130/361/361 139/362/362
f 134/363/363 128/364/364 132/365/365
f 133/366/366 131/367/367 142/368/368
# 18 facets

