#  ==========================================================================
#  
#  Wavefront OBJ format exported by Red-i Productions' "Riptide Pro"
#     (a commercial plugin for Cinema 4D PC & Mac, R9.6 or later)
#  
#  Red-i Productions
#  http://skinprops.com
#  
#  ==========================================================================
mtllib computer.mtl
v 0.249007 -0.00914437 0.195892
v 0.249007 0.92634 0.195892
v 0.306708 -0.00914437 0.195892
v 0.306708 -0.00914437 0.195892
v 0.306708 0.92634 0.195892
v 0.306708 0.92634 0.195892
v 0.277858 -0.00914437 0.245863
v 0.277858 -0.00914437 0.245863
v 0.277858 0.92634 0.245863
v 0.277858 0.92634 0.245863
v 0.220157 -0.00914437 0.245863
v 0.220157 -0.00914437 0.245863
v 0.220157 0.92634 0.245863
v 0.220157 0.92634 0.245863
v 0.191307 -0.00914437 0.195892
v 0.191307 -0.00914437 0.195892
v 0.191307 0.92634 0.195892
v 0.191307 0.92634 0.195892
v 0.220157 -0.00914437 0.145922
v 0.220157 -0.00914437 0.145922
v 0.220157 0.92634 0.145922
v 0.220157 0.92634 0.145922
v 0.277858 -0.00914437 0.145922
v 0.277858 -0.00914437 0.145922
v 0.277858 0.92634 0.145922
v 0.277858 0.92634 0.145922
# 26 vertices

vt 0.50000 0.50000
vt 0.00000 0.50000
vt 0.25000 0.06699
vt 0.00000 1.00000
vt 0.00000 0.00000
vt 0.16667 0.00000
vt 0.16667 1.00000
vt 1.00000 0.50000
vt 0.50000 0.50000
vt 0.75000 0.06699
vt 0.50000 0.50000
vt 0.25000 0.06699
vt 0.75000 0.06699
vt 0.16667 1.00000
vt 0.16667 0.00000
vt 0.33333 0.00000
vt 0.33333 1.00000
vt 0.75000 0.06699
vt 0.50000 0.50000
vt 0.25000 0.06699
vt 0.50000 0.50000
vt 0.75000 0.06699
vt 1.00000 0.50000
vt 0.33333 1.00000
vt 0.33333 0.00000
vt 0.50000 0.00000
vt 0.50000 1.00000
vt 0.25000 0.06699
vt 0.50000 0.50000
vt 0.00000 0.50000
vt 0.50000 0.50000
vt 1.00000 0.50000
vt 0.75000 0.93301
vt 0.50000 1.00000
vt 0.50000 0.00000
vt 0.66667 0.00000
vt 0.66667 1.00000
vt 0.00000 0.50000
vt 0.50000 0.50000
vt 0.25000 0.93301
vt 0.50000 0.50000
vt 0.75000 0.93301
vt 0.25000 0.93301
vt 0.66667 1.00000
vt 0.66667 0.00000
vt 0.83333 0.00000
vt 0.83333 1.00000
vt 0.25000 0.93301
vt 0.50000 0.50000
vt 0.75000 0.93301
vt 0.50000 0.50000
vt 0.25000 0.93301
vt 0.00000 0.50000
vt 0.83333 1.00000
vt 0.83333 0.00000
vt 1.00000 0.00000
vt 1.00000 1.00000
vt 0.75000 0.93301
vt 0.50000 0.50000
vt 1.00000 0.50000
# 60 texture coordinates

vn 0 -1 0
vn 0 -1 0
vn 0 -1 0
vn 0.866025 0 0.5
vn 0.866025 0 0.5
vn 0.866025 0 0.5
vn 0.866025 0 0.5
vn 0 1 0
vn 0 1 0
vn 0 1 0
vn 0 -1 0
vn 0 -1 0
vn 0 -1 0
vn 0 0 1
vn 0 0 1
vn 0 0 1
vn 0 0 1
vn 0 1 0
vn 0 1 0
vn 0 1 0
vn 0 -1 0
vn 0 -1 0
vn 0 -1 0
vn -0.866025 0 0.5
vn -0.866025 0 0.5
vn -0.866025 0 0.5
vn -0.866025 0 0.5
vn 0 1 0
vn 0 1 0
vn 0 1 0
vn 0 -1 0
vn 0 -1 0
vn 0 -1 0
vn -0.866025 0 -0.5
vn -0.866025 0 -0.5
vn -0.866025 0 -0.5
vn -0.866025 0 -0.5
vn 0 1 0
vn 0 1 0
vn 0 1 0
vn 0 -1 0
vn 0 -1 0
vn 0 -1 0
vn 0 0 -1
vn 0 0 -1
vn 0 0 -1
vn 0 0 -1
vn 0 1 0
vn 0 1 0
vn 0 1 0
vn 0 -1 0
vn 0 -1 0
vn 0 -1 0
vn 0.866025 0 -0.5
vn 0.866025 0 -0.5
vn 0.866025 0 -0.5
vn 0.866025 0 -0.5
vn 0 1 0
vn 0 1 0
vn 0 1 0
# 60 vertex normals

usemtl light_metal
f 1/1/1 3/2/2 7/3/3
f 4/4/4 5/5/5 9/6/6 8/7/7
f 6/8/8 2/9/9 10/10/10
f 1/11/11 7/12/12 11/13/13
f 8/14/14 9/15/15 13/16/16 12/17/17
f 10/18/18 2/19/19 14/20/20
f 1/21/21 11/22/22 15/23/23
f 12/24/24 13/25/25 17/26/26 16/27/27
f 14/28/28 2/29/29 18/30/30
f 1/31/31 15/32/32 19/33/33
f 16/34/34 17/35/35 21/36/36 20/37/37
f 18/38/38 2/39/39 22/40/40
f 1/41/41 19/42/42 23/43/43
f 20/44/44 21/45/45 25/46/46 24/47/47
f 22/48/48 2/49/49 26/50/50
f 1/51/51 23/52/52 3/53/53
f 24/54/54 25/55/55 5/56/56 4/57/57
f 26/58/58 2/59/59 6/60/60
# 18 facets

v 0.249007 -0.00914437 -0.163295
v 0.249007 0.92634 -0.163295
v 0.306708 -0.00914437 -0.163295
v 0.306708 -0.00914437 -0.163295
v 0.306708 0.92634 -0.163295
v 0.306708 0.92634 -0.163295
v 0.277858 -0.00914437 -0.113324
v 0.277858 -0.00914437 -0.113324
v 0.277858 0.92634 -0.113324
v 0.277858 0.92634 -0.113324
v 0.220157 -0.00914437 -0.113324
v 0.220157 -0.00914437 -0.113324
v 0.220157 0.92634 -0.113324
v 0.220157 0.92634 -0.113324
v 0.191307 -0.00914437 -0.163295
v 0.191307 -0.00914437 -0.163295
v 0.191307 0.92634 -0.163295
v 0.191307 0.92634 -0.163295
v 0.220157 -0.00914437 -0.213265
v 0.220157 -0.00914437 -0.213265
v 0.220157 0.92634 -0.213265
v 0.220157 0.92634 -0.213265
v 0.277858 -0.00914437 -0.213265
v 0.277858 -0.00914437 -0.213265
v 0.277858 0.92634 -0.213265
v 0.277858 0.92634 -0.213265
# 26 vertices

vt 0.50000 0.50000
vt 0.00000 0.50000
vt 0.25000 0.06699
vt 0.00000 1.00000
vt 0.00000 0.00000
vt 0.16667 0.00000
vt 0.16667 1.00000
vt 1.00000 0.50000
vt 0.50000 0.50000
vt 0.75000 0.06699
vt 0.50000 0.50000
vt 0.25000 0.06699
vt 0.75000 0.06699
vt 0.16667 1.00000
vt 0.16667 0.00000
vt 0.33333 0.00000
vt 0.33333 1.00000
vt 0.75000 0.06699
vt 0.50000 0.50000
vt 0.25000 0.06699
vt 0.50000 0.50000
vt 0.75000 0.06699
vt 1.00000 0.50000
vt 0.33333 1.00000
vt 0.33333 0.00000
vt 0.50000 0.00000
vt 0.50000 1.00000
vt 0.25000 0.06699
vt 0.50000 0.50000
vt 0.00000 0.50000
vt 0.50000 0.50000
vt 1.00000 0.50000
vt 0.75000 0.93301
vt 0.50000 1.00000
vt 0.50000 0.00000
vt 0.66667 0.00000
vt 0.66667 1.00000
vt 0.00000 0.50000
vt 0.50000 0.50000
vt 0.25000 0.93301
vt 0.50000 0.50000
vt 0.75000 0.93301
vt 0.25000 0.93301
vt 0.66667 1.00000
vt 0.66667 0.00000
vt 0.83333 0.00000
vt 0.83333 1.00000
vt 0.25000 0.93301
vt 0.50000 0.50000
vt 0.75000 0.93301
vt 0.50000 0.50000
vt 0.25000 0.93301
vt 0.00000 0.50000
vt 0.83333 1.00000
vt 0.83333 0.00000
vt 1.00000 0.00000
vt 1.00000 1.00000
vt 0.75000 0.93301
vt 0.50000 0.50000
vt 1.00000 0.50000
# 60 texture coordinates

vn 0 -1 0
vn 0 -1 0
vn 0 -1 0
vn 0.866025 0 0.5
vn 0.866025 0 0.5
vn 0.866025 0 0.5
vn 0.866025 0 0.5
vn 0 1 0
vn 0 1 0
vn 0 1 0
vn 0 -1 0
vn 0 -1 0
vn 0 -1 0
vn 0 0 1
vn 0 0 1
vn 0 0 1
vn 0 0 1
vn 0 1 0
vn 0 1 0
vn 0 1 0
vn 0 -1 0
vn 0 -1 0
vn 0 -1 0
vn -0.866025 0 0.5
vn -0.866025 0 0.5
vn -0.866025 0 0.5
vn -0.866025 0 0.5
vn 0 1 0
vn 0 1 0
vn 0 1 0
vn 0 -1 0
vn 0 -1 0
vn 0 -1 0
vn -0.866025 0 -0.5
vn -0.866025 0 -0.5
vn -0.866025 0 -0.5
vn -0.866025 0 -0.5
vn 0 1 0
vn 0 1 0
vn 0 1 0
vn 0 -1 0
vn 0 -1 0
vn 0 -1 0
vn 0 0 -1
vn 0 0 -1
vn 0 0 -1
vn 0 0 -1
vn 0 1 0
vn 0 1 0
vn 0 1 0
vn 0 -1 0
vn 0 -1 0
vn 0 -1 0
vn 0.866025 0 -0.5
vn 0.866025 0 -0.5
vn 0.866025 0 -0.5
vn 0.866025 0 -0.5
vn 0 1 0
vn 0 1 0
vn 0 1 0
# 60 vertex normals

usemtl light_metal
f 27/61/61 29/62/62 33/63/63
f 30/64/64 31/65/65 35/66/66 34/67/67
f 32/68/68 28/69/69 36/70/70
f 27/71/71 33/72/72 37/73/73
f 34/74/74 35/75/75 39/76/76 38/77/77
f 36/78/78 28/79/79 40/80/80
f 27/81/81 37/82/82 41/83/83
f 38/84/84 39/85/85 43/86/86 42/87/87
f 40/88/88 28/89/89 44/90/90
f 27/91/91 41/92/92 45/93/93
f 42/94/94 43/95/95 47/96/96 46/97/97
f 44/98/98 28/99/99 48/100/100
f 27/101/101 45/102/102 49/103/103
f 46/104/104 47/105/105 51/106/106 50/107/107
f 48/108/108 28/109/109 52/110/110
f 27/111/111 49/112/112 29/113/113
f 50/114/114 51/115/115 31/116/116 30/117/117
f 52/118/118 28/119/119 32/120/120
# 18 facets

v 0.476833 0.516752 -0.662637
v -0.0828635 1.18377 -0.662637
v 0.602691 0.622359 -0.662637
v 0.0429941 1.28938 -0.662637
v 0.602691 0.622359 0.725207
v 0.0429941 1.28938 0.725207
v 0.476833 0.516752 0.725207
v -0.0828635 1.18377 0.725207
v 0.538412 0.698964 -0.562637
v 0.107273 1.21278 -0.562637
v 0.538412 0.698964 0.625207
v 0.107273 1.21278 0.625207
# 12 vertices

vt 0.00000 1.00000
vt 0.00000 0.00000
vt 1.00000 0.00000
vt 1.00000 1.00000
vt 0.08414 0.91586
vt 0.08414 0.08414
vt 0.91586 0.08414
vt 0.91586 0.91586
vt 0.00000 1.00000
vt 0.00000 0.00000
vt 1.00000 0.00000
vt 1.00000 1.00000
vt 0.00000 1.00000
vt 0.00000 0.00000
vt 1.00000 0.00000
vt 1.00000 1.00000
vt 0.00000 1.00000
vt 0.00000 0.00000
vt 1.00000 0.00000
vt 1.00000 1.00000
vt 0.00000 1.00000
vt 0.00000 0.00000
vt 1.00000 0.00000
vt 1.00000 1.00000
vt 0.00000 1.00000
vt 0.08414 0.91586
vt 0.91586 0.91586
vt 1.00000 1.00000
vt 1.00000 1.00000
vt 0.91586 0.91586
vt 0.91586 0.08414
vt 1.00000 0.00000
vt 1.00000 0.00000
vt 0.91586 0.08414
vt 0.08414 0.08414
vt 0.00000 0.00000
vt 0.00000 0.00000
vt 0.08414 0.08414
vt 0.08414 0.91586
vt 0.00000 1.00000
# 40 texture coordinates

vn 0 0 -1
vn 0 0 -1
vn 0 0 -1
vn 0 0 -1
vn 0.766044 0.642788 0
vn 0.766044 0.642788 0
vn 0.766044 0.642788 0
vn 0.766044 0.642788 0
vn 0 0 1
vn 0 0 1
vn 0 0 1
vn 0 0 1
vn -0.766044 -0.642788 0
vn -0.766044 -0.642788 0
vn -0.766044 -0.642788 0
vn -0.766044 -0.642788 0
vn -0.642788 0.766044 0
vn -0.642788 0.766044 0
vn -0.642788 0.766044 0
vn -0.642788 0.766044 0
vn 0.642788 -0.766044 0
vn 0.642788 -0.766044 0
vn 0.642788 -0.766044 0
vn 0.642788 -0.766044 0
vn 0.766044 0.642788 0
vn 0.766044 0.642788 0
vn 0.766044 0.642788 0
vn 0.766044 0.642788 0
vn 0.766044 0.642788 0
vn 0.766044 0.642788 0
vn 0.766044 0.642788 0
vn 0.766044 0.642788 0
vn 0.766044 0.642788 0
vn 0.766044 0.642788 0
vn 0.766044 0.642788 0
vn 0.766044 0.642788 0
vn 0.766044 0.642788 0
vn 0.766044 0.642788 0
vn 0.766044 0.642788 0
vn 0.766044 0.642788 0
# 40 vertex normals

usemtl TEAM
f 53/121/121 54/122/122 56/123/123 55/124/124
usemtl rubber
f 61/125/125 62/126/126 64/127/127 63/128/128
usemtl TEAM
f 57/129/129 58/130/130 60/131/131 59/132/132
f 59/133/133 60/134/134 54/135/135 53/136/136
f 54/137/137 60/138/138 58/139/139 56/140/140
f 59/141/141 53/142/142 55/143/143 57/144/144
f 55/145/145 61/146/146 63/147/147 57/148/148
f 57/149/149 63/150/150 64/151/151 58/152/152
f 58/153/153 64/154/154 62/155/155 56/156/156
f 56/157/157 62/158/158 61/159/159 55/160/160
# 10 facets

v -0.899596 0.00910131 0.115963
v -0.899596 0.879835 0.115963
v 0.0167129 0.00910131 0.115963
v 0.0167129 0.879835 0.115963
v 0.0167129 0.00910131 0.599838
v 0.0167129 0.879835 0.599838
v -0.899596 0.00910131 0.599838
v -0.899596 0.879835 0.599838
v -0.754723 0.879835 0.276963
v -0.587189 0.879835 0.276963
v -0.587189 0.879835 0.438838
v -0.754723 0.879835 0.438838
# 12 vertices

vt 0.00000 1.00000
vt 0.00000 0.00000
vt 1.00000 0.00000
vt 1.00000 1.00000
vt 0.00000 1.00000
vt 0.00000 0.00000
vt 1.00000 0.00000
vt 1.00000 1.00000
vt 0.00000 1.00000
vt 0.00000 0.00000
vt 1.00000 0.00000
vt 1.00000 1.00000
vt 0.00000 1.00000
vt 0.00000 0.00000
vt 1.00000 0.00000
vt 1.00000 1.00000
vt 0.20994 0.79006
vt 0.20994 0.20994
vt 0.79006 0.20994
vt 0.79006 0.79006
vt 0.00000 1.00000
vt 0.00000 0.00000
vt 1.00000 0.00000
vt 1.00000 1.00000
vt 0.00000 1.00000
vt 0.20994 0.79006
vt 0.79006 0.79006
vt 1.00000 1.00000
vt 1.00000 1.00000
vt 0.79006 0.79006
vt 0.79006 0.20994
vt 1.00000 0.00000
vt 1.00000 0.00000
vt 0.79006 0.20994
vt 0.20994 0.20994
vt 0.00000 0.00000
vt 0.00000 0.00000
vt 0.20994 0.20994
vt 0.20994 0.79006
vt 0.00000 1.00000
# 40 texture coordinates

vn 0 0 -1
vn 0 0 -1
vn 0 0 -1
vn 0 0 -1
vn 1 0 0
vn 1 0 0
vn 1 0 0
vn 1 0 0
vn 0 0 1
vn 0 0 1
vn 0 0 1
vn 0 0 1
vn -1 0 0
vn -1 0 0
vn -1 0 0
vn -1 0 0
vn 0 1 0
vn 0 1 0
vn 0 1 0
vn 0 1 0
vn 0 -1 0
vn 0 -1 0
vn 0 -1 0
vn 0 -1 0
vn 0 1 0
vn 0 1 0
vn 0 1 0
vn 0 1 0
vn 0 1 0
vn 0 1 0
vn 0 1 0
vn 0 1 0
vn 0 1 0
vn 0 1 0
vn 0 1 0
vn 0 1 0
vn 0 1 0
vn 0 1 0
vn 0 1 0
vn 0 1 0
# 40 vertex normals

usemtl light_metal
f 65/161/161 66/162/162 68/163/163 67/164/164
f 67/165/165 68/166/166 70/167/167 69/168/168
f 69/169/169 70/170/170 72/171/171 71/172/172
f 71/173/173 72/174/174 66/175/175 65/176/176
usemtl TEAM
f 73/177/177 76/178/178 75/179/179 74/180/180
usemtl light_metal
f 71/181/181 65/182/182 67/183/183 69/184/184
f 66/185/185 73/186/186 74/187/187 68/188/188
f 68/189/189 74/190/190 75/191/191 70/192/192
f 70/193/193 75/194/194 76/195/195 72/196/196
f 72/197/197 76/198/198 73/199/199 66/200/200
# 10 facets

v -0.899596 0.00910131 -0.582642
v -0.899596 0.879835 -0.582642
v 0.0167129 0.00910131 -0.582642
v 0.0167129 0.879835 -0.582642
v 0.0167129 0.00910131 -0.0987681
v 0.0167129 0.879835 -0.0987681
v -0.899596 0.00910131 -0.0987681
v -0.899596 0.879835 -0.0987681
v -0.754723 0.879835 -0.421642
v -0.587189 0.879835 -0.421642
v -0.587189 0.879835 -0.259768
v -0.754723 0.879835 -0.259768
# 12 vertices

vt 0.00000 1.00000
vt 0.00000 0.00000
vt 1.00000 0.00000
vt 1.00000 1.00000
vt 0.00000 1.00000
vt 0.00000 0.00000
vt 1.00000 0.00000
vt 1.00000 1.00000
vt 0.00000 1.00000
vt 0.00000 0.00000
vt 1.00000 0.00000
vt 1.00000 1.00000
vt 0.00000 1.00000
vt 0.00000 0.00000
vt 1.00000 0.00000
vt 1.00000 1.00000
vt 0.20994 0.79006
vt 0.20994 0.20994
vt 0.79006 0.20994
vt 0.79006 0.79006
vt 0.00000 1.00000
vt 0.00000 0.00000
vt 1.00000 0.00000
vt 1.00000 1.00000
vt 0.00000 1.00000
vt 0.20994 0.79006
vt 0.79006 0.79006
vt 1.00000 1.00000
vt 1.00000 1.00000
vt 0.79006 0.79006
vt 0.79006 0.20994
vt 1.00000 0.00000
vt 1.00000 0.00000
vt 0.79006 0.20994
vt 0.20994 0.20994
vt 0.00000 0.00000
vt 0.00000 0.00000
vt 0.20994 0.20994
vt 0.20994 0.79006
vt 0.00000 1.00000
# 40 texture coordinates

vn 0 0 -1
vn 0 0 -1
vn 0 0 -1
vn 0 0 -1
vn 1 0 0
vn 1 0 0
vn 1 0 0
vn 1 0 0
vn 0 0 1
vn 0 0 1
vn 0 0 1
vn 0 0 1
vn -1 0 0
vn -1 0 0
vn -1 0 0
vn -1 0 0
vn 0 1 0
vn 0 1 0
vn 0 1 0
vn 0 1 0
vn 0 -1 0
vn 0 -1 0
vn 0 -1 0
vn 0 -1 0
vn 0 1 0
vn 0 1 0
vn 0 1 0
vn 0 1 0
vn 0 1 0
vn 0 1 0
vn 0 1 0
vn 0 1 0
vn 0 1 0
vn 0 1 0
vn 0 1 0
vn 0 1 0
vn 0 1 0
vn 0 1 0
vn 0 1 0
vn 0 1 0
# 40 vertex normals

usemtl light_metal
f 77/201/201 78/202/202 80/203/203 79/204/204
f 79/205/205 80/206/206 82/207/207 81/208/208
f 81/209/209 82/210/210 84/211/211 83/212/212
f 83/213/213 84/214/214 78/215/215 77/216/216
usemtl TEAM
f 85/217/217 88/218/218 87/219/219 86/220/220
usemtl light_metal
f 83/221/221 77/222/222 79/223/223 81/224/224
f 78/225/225 85/226/226 86/227/227 80/228/228
f 80/229/229 86/230/230 87/231/231 82/232/232
f 82/233/233 87/234/234 88/235/235 84/236/236
f 84/237/237 88/238/238 85/239/239 78/240/240
# 10 facets

