#  ==========================================================================
#  
#  Wavefront OBJ format exported by Red-i Productions' "Riptide Pro"
#     (a commercial plugin for Cinema 4D PC & Mac, R9.6 or later)
#  
#  Red-i Productions
#  http://skinprops.com
#  
#  ==========================================================================
mtllib floor.mtl
v -1.10696 1.99768 -1
v -1.00696 1.99768 -1
v -1.10696 -0.00231572 -1
v -1.00696 -0.00231572 -1
v -1.10696 -0.00231572 1
v -1.00696 -0.00231572 1
v -1.10696 1.99768 1
v -1.00696 1.99768 1
# 8 vertices

vt 0.00000 1.00000
vt 0.00000 0.00000
vt 1.00000 0.00000
vt 1.00000 1.00000
vt 0.00000 1.00000
vt 0.00000 0.00000
vt 1.00000 0.00000
vt 1.00000 1.00000
vt 0.00000 1.00000
vt 0.00000 0.00000
vt 1.00000 0.00000
vt 1.00000 1.00000
vt 0.00000 1.00000
vt 0.00000 0.00000
vt 1.00000 0.00000
vt 1.00000 1.00000
vt 0.00000 1.00000
vt 0.00000 0.00000
vt 1.00000 0.00000
vt 1.00000 1.00000
vt 0.00000 1.00000
vt 0.00000 0.00000
vt 1.00000 0.00000
vt 1.00000 1.00000
# 24 texture coordinates

vn 0 0 -1
vn 0 0 -1
vn 0 0 -1
vn 0 0 -1
vn 6.12323e-017 -1 0
vn 6.12323e-017 -1 0
vn 6.12323e-017 -1 0
vn 6.12323e-017 -1 0
vn 0 0 1
vn 0 0 1
vn 0 0 1
vn 0 0 1
vn -6.12323e-017 1 0
vn -6.12323e-017 1 0
vn -6.12323e-017 1 0
vn -6.12323e-017 1 0
vn 1 6.12323e-017 0
vn 1 6.12323e-017 0
vn 1 6.12323e-017 0
vn 1 6.12323e-017 0
vn -1 -6.12323e-017 0
vn -1 -6.12323e-017 0
vn -1 -6.12323e-017 0
vn -1 -6.12323e-017 0
# 24 vertex normals

usemtl Mat
f 1/1/1 2/2/2 4/3/3 3/4/4
f 3/5/5 4/6/6 6/7/7 5/8/8
f 5/9/9 6/10/10 8/11/11 7/12/12
f 7/13/13 8/14/14 2/15/15 1/16/16
f 2/17/17 8/18/18 6/19/19 4/20/20
f 7/21/21 1/22/22 3/23/23 5/24/24
# 6 facets

