#  ==========================================================================
#  
#  Wavefront OBJ format exported by Red-i Productions' "Riptide Pro"
#     (a commercial plugin for Cinema 4D PC & Mac, R9.6 or later)
#  
#  Red-i Productions
#  http://skinprops.com
#  
#  ==========================================================================
mtllib hq.mtl
v 0.999725 0.0102598 -0.999279
v 0.999725 1.66671 -0.999279
v 0.999725 0.0102597 1.00072
v 0.999725 1.66671 1.00072
v -1.00027 0.0102597 1.00072
v -1.00027 1.66671 1.00072
v -1.00027 0.0102598 -0.999279
v -1.00027 1.66671 -0.999279
v 1.37544 1.66671 -1.34204
v 1.37544 1.66671 1.34348
v -1.37599 1.66671 1.34348
v -1.37599 1.66671 -1.34204
v 1.37544 3.14671 -1.34204
v 1.37544 3.14671 1.34348
v -1.37599 3.14671 1.34348
v -1.37599 3.14671 -1.34204
v 0.646002 3.14671 -0.657943
v -0.646552 0.0102598 -0.657943
v 0.646002 0.0102597 0.659384
v -0.646552 3.14671 0.659385
v -0.646552 3.14671 -0.657943
v 0.646002 3.14671 0.659385
v 0.646002 0.0102598 -0.657943
v -0.646552 0.0102597 0.659384
v 0.646002 3.14671 -0.657943
v 0.646002 3.14671 0.659385
v -0.646552 3.14671 0.659385
v -0.646552 3.14671 -0.657943
v 0.646002 0.0102598 -0.657943
v 0.646002 0.0102597 0.659384
v -0.646552 0.0102597 0.659384
v -0.646552 0.0102598 -0.657943
v -0.954716 3.50717 -0.95372
v 1.07193 3.50717 -1.07149
v 1.07193 3.50717 1.07293
v 0.954166 3.50717 -0.95372
v -1.07248 3.50717 1.07293
v 0.954166 3.50717 0.955162
v -1.07248 3.50717 -1.07149
v -0.954716 3.50717 0.955162
v -1.30351 3.19213 -1.27129
v 1.30296 3.19213 -1.27129
v 1.30296 3.19213 1.27273
v -0.727629 3.19213 -0.740573
v 0.727079 3.19213 -0.740573
v 0.727079 3.19213 0.742015
v -1.30351 3.19213 1.27273
v -0.727629 3.19213 0.742015
v 1.37544 1.84071 -1.16804
v 1.37544 1.84071 1.16948
v 1.37544 2.97271 -1.16804
v 1.37544 2.97271 1.16948
v 1.20144 1.84071 1.34348
v -1.20199 1.84071 1.34348
v 1.20144 2.97271 1.34348
v -1.20199 2.97271 1.34348
v -1.37599 1.84071 1.16948
v -1.37599 1.84071 -1.16804
v -1.37599 2.97271 1.16948
v -1.37599 2.97271 -1.16804
v 1.20144 1.84071 -1.34204
v -1.20199 1.84071 -1.34204
v 1.20144 2.97271 -1.34204
v -1.20199 2.97271 -1.34204
v 1.22544 1.98071 -1.02804
v 1.22544 2.83271 -1.02804
v 1.22544 2.83271 1.02948
v 1.22544 1.98071 1.02948
v 1.06144 1.98071 1.19348
v 1.06144 2.83271 1.19348
v -1.06199 2.83271 1.19348
v -1.06199 1.98071 1.19348
v -1.22599 1.98071 1.02948
v -1.22599 2.83271 1.02948
v -1.22599 2.83271 -1.02804
v -1.22599 1.98071 -1.02804
v -1.06199 1.98071 -1.19204
v -1.06199 2.83271 -1.19204
v 1.06144 2.83271 -1.19204
v 1.06144 1.98071 -1.19204
# 80 vertices

vt 0.19350 0.96219
vt 0.19350 0.45449
vt 0.80650 0.45449
vt 0.80650 0.96219
vt 0.19350 0.96219
vt 0.19350 0.45449
vt 0.80650 0.45449
vt 0.80650 0.96219
vt 0.19350 0.96219
vt 0.19350 0.45449
vt 0.80650 0.45449
vt 0.80650 0.96219
vt 0.19350 0.96219
vt 0.19350 0.45449
vt 0.80650 0.45449
vt 0.80650 0.96219
vt 0.84689 0.00000
vt 0.88969 0.00000
vt 0.11031 0.00000
vt 0.15311 0.00000
vt 0.88969 0.00000
vt 0.88969 0.00000
vt 0.84689 0.00000
vt 0.84689 0.00000
vt 0.11031 0.00000
vt 0.88969 0.00000
vt 0.84689 0.00000
vt 0.15311 0.00000
vt 0.91155 0.92165
vt 0.88987 0.89944
vt 0.88987 0.10056
vt 0.91155 0.07835
vt 0.70188 0.30192
vt 0.29812 0.30192
vt 0.19350 0.19350
vt 0.80650 0.19350
vt 0.19350 0.80650
vt 0.19350 0.19350
vt 0.29812 0.30192
vt 0.29812 0.69808
vt 0.70188 0.69808
vt 0.70188 0.30192
vt 0.80650 0.19350
vt 0.80650 0.80650
vt 0.80650 0.80650
vt 0.19350 0.80650
vt 0.29812 0.69808
vt 0.70188 0.69808
vt 0.19350 0.19350
vt 0.08845 0.07835
vt 0.91155 0.07835
vt 0.80650 0.19350
vt 0.80650 0.19350
vt 0.91155 0.07835
vt 0.91155 0.92165
vt 0.80650 0.80650
vt 0.80650 0.80650
vt 0.91155 0.92165
vt 0.08845 0.92165
vt 0.19350 0.80650
vt 0.19350 0.80650
vt 0.08845 0.92165
vt 0.08845 0.07835
vt 0.19350 0.19350
vt 0.93350 0.43652
vt 0.93350 0.19287
vt 0.93350 0.19287
vt 0.93350 0.43652
vt 0.87390 0.43652
vt 0.87390 0.19287
vt 0.12610 0.19287
vt 0.12610 0.43652
vt 0.06650 0.43652
vt 0.06650 0.19287
vt 0.06650 0.19287
vt 0.06650 0.43652
vt 0.07835 0.05421
vt 0.12432 0.09712
vt 0.12432 0.35825
vt 0.07835 0.40116
vt 0.29812 0.96219
vt 0.29812 0.00088
vt 0.70188 0.00088
vt 0.70188 0.96219
vt 0.69808 0.00088
vt 0.69808 0.96219
vt 0.30192 0.96219
vt 0.30192 0.00088
vt 0.70188 0.00088
vt 0.70188 0.96219
vt 0.29812 0.96219
vt 0.29812 0.00088
vt 0.69808 0.00088
vt 0.69808 0.96219
vt 0.30192 0.96219
vt 0.30192 0.00088
vt 0.15311 0.00000
vt 0.15311 0.00000
vt 0.11031 0.00000
vt 0.11031 0.00000
vt 0.70188 0.30192
vt 0.72720 0.27707
vt 0.72720 0.72293
vt 0.70188 0.69808
vt 0.08845 0.92165
vt 0.11013 0.89944
vt 0.88987 0.89944
vt 0.91155 0.92165
vt 0.70188 0.69808
vt 0.72720 0.72293
vt 0.27280 0.72293
vt 0.29812 0.69808
vt 0.29812 0.69808
vt 0.27280 0.72293
vt 0.27280 0.27707
vt 0.29812 0.30192
vt 0.08845 0.07835
vt 0.11013 0.10056
vt 0.11013 0.89944
vt 0.08845 0.92165
vt 0.91155 0.07835
vt 0.88987 0.10056
vt 0.11013 0.10056
vt 0.08845 0.07835
vt 0.29812 0.30192
vt 0.27280 0.27707
vt 0.72720 0.27707
vt 0.70188 0.30192
vt 0.96231 0.09009
vt 0.88969 0.00000
vt 0.88969 0.00000
vt 0.96231 0.09009
vt 0.76942 0.09009
vt 0.84689 0.00000
vt 0.84689 0.00000
vt 0.76942 0.09009
vt 0.03769 0.09009
vt 0.11031 0.00000
vt 0.88969 0.00000
vt 0.96231 0.09009
vt 0.76942 0.09009
vt 0.84689 0.00000
vt 0.15311 0.00000
vt 0.23058 0.09009
vt 0.23058 0.09009
vt 0.15311 0.00000
vt 0.15311 0.00000
vt 0.23058 0.09009
vt 0.03769 0.09009
vt 0.11031 0.00000
vt 0.11031 0.00000
vt 0.03769 0.09009
vt 0.96231 0.09009
vt 0.88969 0.00000
vt 0.11031 0.00000
vt 0.03769 0.09009
vt 0.23058 0.09009
vt 0.15311 0.00000
vt 0.84689 0.00000
vt 0.76942 0.09009
vt 0.08845 0.45449
vt 0.14178 0.40116
vt 0.85822 0.40116
vt 0.91155 0.45449
vt 0.91155 0.45449
vt 0.85822 0.40116
vt 0.85822 0.05421
vt 0.91155 0.00088
vt 0.91155 0.00088
vt 0.85822 0.05421
vt 0.14178 0.05421
vt 0.08845 0.00088
vt 0.08845 0.00088
vt 0.14178 0.05421
vt 0.14178 0.40116
vt 0.08845 0.45449
vt 0.07835 0.45449
vt 0.13168 0.40116
vt 0.86832 0.40116
vt 0.92165 0.45449
vt 0.92165 0.45449
vt 0.86832 0.40116
vt 0.86832 0.05421
vt 0.92165 0.00088
vt 0.92165 0.00088
vt 0.86832 0.05421
vt 0.13168 0.05421
vt 0.07835 0.00088
vt 0.07835 0.00088
vt 0.13168 0.05421
vt 0.13168 0.40116
vt 0.07835 0.45449
vt 0.08845 0.45449
vt 0.14178 0.40116
vt 0.85822 0.40116
vt 0.91155 0.45449
vt 0.91155 0.45449
vt 0.85822 0.40116
vt 0.85822 0.05421
vt 0.91155 0.00088
vt 0.91155 0.00088
vt 0.85822 0.05421
vt 0.14178 0.05421
vt 0.08845 0.00088
vt 0.08845 0.00088
vt 0.14178 0.05421
vt 0.14178 0.40116
vt 0.08845 0.45449
vt 0.07835 0.45449
vt 0.13168 0.40116
vt 0.86832 0.40116
vt 0.92165 0.45449
vt 0.92165 0.45449
vt 0.86832 0.40116
vt 0.86832 0.05421
vt 0.92165 0.00088
vt 0.92165 0.00088
vt 0.86832 0.05421
vt 0.13168 0.05421
vt 0.07835 0.00088
vt 0.07835 0.00088
vt 0.13168 0.05421
vt 0.13168 0.40116
vt 0.07835 0.45449
vt 0.12610 0.43652
vt 0.12610 0.19287
vt 0.87390 0.19287
vt 0.87390 0.43652
vt 0.85822 0.07835
vt 0.81531 0.12432
vt 0.18469 0.12432
vt 0.14178 0.07835
vt 0.92165 0.40116
vt 0.87568 0.35825
vt 0.87568 0.09712
vt 0.92165 0.05421
vt 0.14178 0.92165
vt 0.18469 0.87568
vt 0.81531 0.87568
vt 0.85822 0.92165
vt 0.08845 0.05421
vt 0.13442 0.09712
vt 0.13442 0.35825
vt 0.08845 0.40116
vt 0.91155 0.86832
vt 0.86558 0.82541
vt 0.86558 0.17459
vt 0.91155 0.13168
vt 0.91155 0.40116
vt 0.86558 0.35825
vt 0.86558 0.09712
vt 0.91155 0.05421
vt 0.91155 0.86832
vt 0.86558 0.82541
vt 0.86558 0.17459
vt 0.91155 0.13168
vt 0.07835 0.05421
vt 0.12432 0.09712
vt 0.12432 0.35825
vt 0.07835 0.40116
vt 0.14178 0.92165
vt 0.18469 0.87568
vt 0.81531 0.87568
vt 0.85822 0.92165
vt 0.92165 0.40116
vt 0.87568 0.35825
vt 0.87568 0.09712
vt 0.92165 0.05421
vt 0.85822 0.07835
vt 0.81531 0.12432
vt 0.18469 0.12432
vt 0.14178 0.07835
vt 0.08845 0.05421
vt 0.13442 0.09712
vt 0.13442 0.35825
vt 0.08845 0.40116
vt 0.08845 0.13168
vt 0.13442 0.17459
vt 0.13442 0.82541
vt 0.08845 0.86832
vt 0.91155 0.40116
vt 0.86558 0.35825
vt 0.86558 0.09712
vt 0.91155 0.05421
vt 0.08845 0.13168
vt 0.13442 0.17459
vt 0.13442 0.82541
vt 0.08845 0.86832
# 288 texture coordinates

vn 1 -5.33883e-031 1.49012e-008
vn 1 -5.33883e-031 1.49012e-008
vn 1 -5.33883e-031 1.49012e-008
vn 1 -5.33883e-031 1.49012e-008
vn -1.49012e-008 -2.10734e-008 1
vn -1.49012e-008 -2.10734e-008 1
vn -1.49012e-008 -2.10734e-008 1
vn -1.49012e-008 -2.10734e-008 1
vn -1 5.33883e-031 -1.49012e-008
vn -1 5.33883e-031 -1.49012e-008
vn -1 5.33883e-031 -1.49012e-008
vn -1 5.33883e-031 -1.49012e-008
vn 1.49012e-008 2.10734e-008 -1
vn 1.49012e-008 2.10734e-008 -1
vn 1.49012e-008 2.10734e-008 -1
vn 1.49012e-008 2.10734e-008 -1
vn -3.14018e-016 1 2.10734e-008
vn -3.14018e-016 1 2.10734e-008
vn -3.14018e-016 1 2.10734e-008
vn -3.14018e-016 1 2.10734e-008
vn -3.14018e-016 1 2.10734e-008
vn -3.14018e-016 1 2.10734e-008
vn -3.14018e-016 1 2.10734e-008
vn -3.14018e-016 1 2.10734e-008
vn -3.14018e-016 1 2.10734e-008
vn -3.14018e-016 1 2.10734e-008
vn -3.14018e-016 1 2.10734e-008
vn -3.14018e-016 1 2.10734e-008
vn -8.05015e-009 0.841513 0.540236
vn -8.05015e-009 0.841513 0.540236
vn -8.05015e-009 0.841513 0.540236
vn -8.05015e-009 0.841513 0.540236
vn -1.46026e-016 -1 -2.10734e-008
vn -1.46026e-016 -1 -2.10734e-008
vn -1.46026e-016 -1 -2.10734e-008
vn -1.46026e-016 -1 -2.10734e-008
vn 8.10539e-016 -1 -2.10734e-008
vn -1.46026e-016 -1 -2.10734e-008
vn -1.46026e-016 -1 -2.10734e-008
vn 8.10539e-016 -1 -2.10734e-008
vn 8.10539e-016 -1 -2.10734e-008
vn -1.46026e-016 -1 -2.10734e-008
vn -1.46026e-016 -1 -2.10734e-008
vn 8.10539e-016 -1 -2.10734e-008
vn 8.10539e-016 -1 -2.10734e-008
vn 8.10539e-016 -1 -2.10734e-008
vn 8.10539e-016 -1 -2.10734e-008
vn 8.10539e-016 -1 -2.10734e-008
vn 3.14018e-016 -1 -2.10734e-008
vn 3.14018e-016 -1 -2.10734e-008
vn 3.14018e-016 -1 -2.10734e-008
vn 3.14018e-016 -1 -2.10734e-008
vn 3.14018e-016 -1 -2.10734e-008
vn 3.14018e-016 -1 -2.10734e-008
vn 3.14018e-016 -1 -2.10734e-008
vn 3.14018e-016 -1 -2.10734e-008
vn 3.14018e-016 -1 -2.10734e-008
vn 3.14018e-016 -1 -2.10734e-008
vn 3.14018e-016 -1 -2.10734e-008
vn 3.14018e-016 -1 -2.10734e-008
vn 3.14018e-016 -1 -2.10734e-008
vn 3.14018e-016 -1 -2.10734e-008
vn 3.14018e-016 -1 -2.10734e-008
vn 3.14018e-016 -1 -2.10734e-008
vn -1.49012e-008 -2.10734e-008 1
vn -1.49012e-008 -2.10734e-008 1
vn -1.49012e-008 -2.10734e-008 1
vn -1.49012e-008 -2.10734e-008 1
vn -1 5.33883e-031 -1.49012e-008
vn -1 5.33883e-031 -1.49012e-008
vn -1 5.33883e-031 -1.49012e-008
vn -1 5.33883e-031 -1.49012e-008
vn 1.49012e-008 2.10734e-008 -1
vn 1.49012e-008 2.10734e-008 -1
vn 1.49012e-008 2.10734e-008 -1
vn 1.49012e-008 2.10734e-008 -1
vn 0.682318 -1.54058e-008 0.731055
vn 0.682318 -1.54058e-008 0.731055
vn 0.682318 -1.54058e-008 0.731055
vn 0.682318 -1.54058e-008 0.731055
vn -1 5.33883e-031 -1.49012e-008
vn -1 5.33883e-031 -1.49012e-008
vn -1 5.33883e-031 -1.49012e-008
vn -1 5.33883e-031 -1.49012e-008
vn 1.49012e-008 2.10734e-008 -1
vn 1.49012e-008 2.10734e-008 -1
vn 1.49012e-008 2.10734e-008 -1
vn 1.49012e-008 2.10734e-008 -1
vn 1 -5.33883e-031 1.49012e-008
vn 1 -5.33883e-031 1.49012e-008
vn 1 -5.33883e-031 1.49012e-008
vn 1 -5.33883e-031 1.49012e-008
vn -1.49012e-008 -2.10734e-008 1
vn -1.49012e-008 -2.10734e-008 1
vn -1.49012e-008 -2.10734e-008 1
vn -1.49012e-008 -2.10734e-008 1
vn -3.14018e-016 1 2.10734e-008
vn -3.14018e-016 1 2.10734e-008
vn -3.14018e-016 1 2.10734e-008
vn -3.14018e-016 1 2.10734e-008
vn 7.17764e-009 0.876345 -0.481683
vn 7.17764e-009 0.876345 -0.481683
vn 7.17764e-009 0.876345 -0.481683
vn 7.17764e-009 0.876345 -0.481683
vn 0.530973 0.847388 2.57695e-008
vn 0.530973 0.847388 2.57695e-008
vn 0.530973 0.847388 2.57695e-008
vn 0.530973 0.847388 2.57695e-008
vn -0.488725 0.872438 1.11027e-008
vn -0.488725 0.872438 1.11027e-008
vn -0.488725 0.872438 1.11027e-008
vn -0.488725 0.872438 1.11027e-008
vn -7.17764e-009 0.876345 0.481683
vn -7.17764e-009 0.876345 0.481683
vn -7.17764e-009 0.876345 0.481683
vn -7.17764e-009 0.876345 0.481683
vn 8.05015e-009 0.841513 -0.540236
vn 8.05015e-009 0.841513 -0.540236
vn 8.05015e-009 0.841513 -0.540236
vn 8.05015e-009 0.841513 -0.540236
vn -0.530973 0.847388 9.94525e-009
vn -0.530973 0.847388 9.94525e-009
vn -0.530973 0.847388 9.94525e-009
vn -0.530973 0.847388 9.94525e-009
vn 0.488725 0.872438 2.56678e-008
vn 0.488725 0.872438 2.56678e-008
vn 0.488725 0.872438 2.56678e-008
vn 0.488725 0.872438 2.56678e-008
vn -1.25838e-008 0.535583 0.844482
vn -1.25838e-008 0.535583 0.844482
vn -1.25838e-008 0.535583 0.844482
vn -1.25838e-008 0.535583 0.844482
vn 1.23418e-008 0.560363 -0.828247
vn 1.23418e-008 0.560363 -0.828247
vn 1.23418e-008 0.560363 -0.828247
vn 1.23418e-008 0.560363 -0.828247
vn 0.806408 0.59136 2.44784e-008
vn 0.806408 0.59136 2.44784e-008
vn 0.806408 0.59136 2.44784e-008
vn 0.806408 0.59136 2.44784e-008
vn -0.811221 0.584739 2.34321e-010
vn -0.811221 0.584739 2.34321e-010
vn -0.811221 0.584739 2.34321e-010
vn -0.811221 0.584739 2.34321e-010
vn -1.23418e-008 0.560363 0.828247
vn -1.23418e-008 0.560363 0.828247
vn -1.23418e-008 0.560363 0.828247
vn -1.23418e-008 0.560363 0.828247
vn 1.25838e-008 0.535583 -0.844482
vn 1.25838e-008 0.535583 -0.844482
vn 1.25838e-008 0.535583 -0.844482
vn 1.25838e-008 0.535583 -0.844482
vn -0.806408 0.59136 4.45565e-010
vn -0.806408 0.59136 4.45565e-010
vn -0.806408 0.59136 4.45565e-010
vn -0.806408 0.59136 4.45565e-010
vn 0.811221 0.584739 2.44106e-008
vn 0.811221 0.584739 2.44106e-008
vn 0.811221 0.584739 2.44106e-008
vn 0.811221 0.584739 2.44106e-008
vn 1 -5.33883e-031 1.49012e-008
vn 1 -5.33883e-031 1.49012e-008
vn 1 -5.33883e-031 1.49012e-008
vn 1 -5.33883e-031 1.49012e-008
vn 1 -5.33883e-031 1.49012e-008
vn 1 -5.33883e-031 1.49012e-008
vn 1 -5.33883e-031 1.49012e-008
vn 1 -5.33883e-031 1.49012e-008
vn 1 -5.33883e-031 1.49012e-008
vn 1 -5.33883e-031 1.49012e-008
vn 1 -5.33883e-031 1.49012e-008
vn 1 -5.33883e-031 1.49012e-008
vn 1 -5.33883e-031 1.49012e-008
vn 1 -5.33883e-031 1.49012e-008
vn 1 -5.33883e-031 1.49012e-008
vn 1 -5.33883e-031 1.49012e-008
vn -1.49012e-008 -2.10734e-008 1
vn -1.49012e-008 -2.10734e-008 1
vn -1.49012e-008 -2.10734e-008 1
vn -1.49012e-008 -2.10734e-008 1
vn -1.49012e-008 -2.10734e-008 1
vn -1.49012e-008 -2.10734e-008 1
vn -1.49012e-008 -2.10734e-008 1
vn -1.49012e-008 -2.10734e-008 1
vn -1.49012e-008 -2.10734e-008 1
vn -1.49012e-008 -2.10734e-008 1
vn -1.49012e-008 -2.10734e-008 1
vn -1.49012e-008 -2.10734e-008 1
vn -1.49012e-008 -2.10734e-008 1
vn -1.49012e-008 -2.10734e-008 1
vn -1.49012e-008 -2.10734e-008 1
vn -1.49012e-008 -2.10734e-008 1
vn -1 5.33883e-031 -1.49012e-008
vn -1 5.33883e-031 -1.49012e-008
vn -1 5.33883e-031 -1.49012e-008
vn -1 5.33883e-031 -1.49012e-008
vn -1 5.33883e-031 -1.49012e-008
vn -1 5.33883e-031 -1.49012e-008
vn -1 5.33883e-031 -1.49012e-008
vn -1 5.33883e-031 -1.49012e-008
vn -1 5.33883e-031 -1.49012e-008
vn -1 5.33883e-031 -1.49012e-008
vn -1 5.33883e-031 -1.49012e-008
vn -1 5.33883e-031 -1.49012e-008
vn -1 5.33883e-031 -1.49012e-008
vn -1 5.33883e-031 -1.49012e-008
vn -1 5.33883e-031 -1.49012e-008
vn -1 5.33883e-031 -1.49012e-008
vn 1.49012e-008 2.10734e-008 -1
vn 1.49012e-008 2.10734e-008 -1
vn 1.49012e-008 2.10734e-008 -1
vn 1.49012e-008 2.10734e-008 -1
vn 1.49012e-008 2.10734e-008 -1
vn 1.49012e-008 2.10734e-008 -1
vn 1.49012e-008 2.10734e-008 -1
vn 1.49012e-008 2.10734e-008 -1
vn 1.49012e-008 2.10734e-008 -1
vn 1.49012e-008 2.10734e-008 -1
vn 1.49012e-008 2.10734e-008 -1
vn 1.49012e-008 2.10734e-008 -1
vn 1.49012e-008 2.10734e-008 -1
vn 1.49012e-008 2.10734e-008 -1
vn 1.49012e-008 2.10734e-008 -1
vn 1.49012e-008 2.10734e-008 -1
vn 1 -5.33883e-031 1.49012e-008
vn 1 -5.33883e-031 1.49012e-008
vn 1 -5.33883e-031 1.49012e-008
vn 1 -5.33883e-031 1.49012e-008
vn 0.682318 -0.731055 -5.2385e-009
vn 0.682318 -0.731055 -5.2385e-009
vn 0.682318 -0.731055 -5.2385e-009
vn 0.682318 -0.731055 -5.2385e-009
vn 0.682318 1.54058e-008 -0.731055
vn 0.682318 1.54058e-008 -0.731055
vn 0.682318 1.54058e-008 -0.731055
vn 0.682318 1.54058e-008 -0.731055
vn 0.682318 0.731055 2.55732e-008
vn 0.682318 0.731055 2.55732e-008
vn 0.682318 0.731055 2.55732e-008
vn 0.682318 0.731055 2.55732e-008
vn -0.731055 -1.43788e-008 0.682318
vn -0.731055 -1.43788e-008 0.682318
vn -0.731055 -1.43788e-008 0.682318
vn -0.731055 -1.43788e-008 0.682318
vn -1.01673e-008 -0.731055 0.682318
vn -1.01673e-008 -0.731055 0.682318
vn -1.01673e-008 -0.731055 0.682318
vn -1.01673e-008 -0.731055 0.682318
vn 0.731055 -1.43788e-008 0.682318
vn 0.731055 -1.43788e-008 0.682318
vn 0.731055 -1.43788e-008 0.682318
vn 0.731055 -1.43788e-008 0.682318
vn -1.01673e-008 0.731055 0.682318
vn -1.01673e-008 0.731055 0.682318
vn -1.01673e-008 0.731055 0.682318
vn -1.01673e-008 0.731055 0.682318
vn -0.682318 1.54058e-008 -0.731055
vn -0.682318 1.54058e-008 -0.731055
vn -0.682318 1.54058e-008 -0.731055
vn -0.682318 1.54058e-008 -0.731055
vn -0.682318 -0.731055 -2.55732e-008
vn -0.682318 -0.731055 -2.55732e-008
vn -0.682318 -0.731055 -2.55732e-008
vn -0.682318 -0.731055 -2.55732e-008
vn -0.682318 -1.54058e-008 0.731055
vn -0.682318 -1.54058e-008 0.731055
vn -0.682318 -1.54058e-008 0.731055
vn -0.682318 -1.54058e-008 0.731055
vn -0.682318 0.731055 5.2385e-009
vn -0.682318 0.731055 5.2385e-009
vn -0.682318 0.731055 5.2385e-009
vn -0.682318 0.731055 5.2385e-009
vn 0.731055 1.43788e-008 -0.682318
vn 0.731055 1.43788e-008 -0.682318
vn 0.731055 1.43788e-008 -0.682318
vn 0.731055 1.43788e-008 -0.682318
vn 1.01673e-008 -0.731055 -0.682318
vn 1.01673e-008 -0.731055 -0.682318
vn 1.01673e-008 -0.731055 -0.682318
vn 1.01673e-008 -0.731055 -0.682318
vn -0.731055 1.43788e-008 -0.682318
vn -0.731055 1.43788e-008 -0.682318
vn -0.731055 1.43788e-008 -0.682318
vn -0.731055 1.43788e-008 -0.682318
vn 1.01673e-008 0.731055 -0.682318
vn 1.01673e-008 0.731055 -0.682318
vn 1.01673e-008 0.731055 -0.682318
vn 1.01673e-008 0.731055 -0.682318
# 288 vertex normals

usemtl wood
f 1/1/1 2/2/2 4/3/3 3/4/4
f 3/5/5 4/6/6 6/7/7 5/8/8
f 5/9/9 6/10/10 8/11/11 7/12/12
f 7/13/13 8/14/14 2/15/15 1/16/16
usemtl TEAM
f 38/17/17 35/18/18 34/19/19 36/20/20
f 37/21/21 35/22/22 38/23/23 40/24/24
f 39/25/25 37/26/26 40/27/27 33/28/28
usemtl wood
f 14/29/29 43/30/30 47/31/31 15/32/32
f 19/33/33 23/34/34 1/35/35 3/36/36
f 7/37/37 1/38/38 23/39/39 18/40/40
f 24/41/41 19/42/42 3/43/43 5/44/44
f 5/45/45 7/46/46 18/47/47 24/48/48
f 2/49/49 9/50/50 10/51/51 4/52/52
f 4/53/53 10/54/54 11/55/55 6/56/56
f 6/57/57 11/58/58 12/59/59 8/60/60
f 8/61/61 12/62/62 9/63/63 2/64/64
usemtl rubber
f 69/65/65 70/66/66 71/67/67 72/68/68
f 73/69/69 74/70/70 75/71/71 76/72/72
f 77/73/73 78/74/74 79/75/75 80/76/76
usemtl wood
f 51/77/77 66/78/78 65/79/79 49/80/80
f 30/81/81 26/82/82 25/83/83 29/84/84
f 26/85/85 30/86/86 31/87/87 27/88/88
f 27/89/89 31/90/90 32/91/91 28/92/92
f 28/93/93 32/94/94 29/95/95 25/96/96
usemtl TEAM
f 33/97/97 36/98/98 34/99/99 39/100/100
usemtl wood
f 20/101/101 48/102/102 46/103/103 22/104/104
f 13/105/105 42/106/106 43/107/107 14/108/108
f 22/109/109 46/110/110 45/111/111 17/112/112
f 17/113/113 45/114/114 44/115/115 21/116/116
f 16/117/117 41/118/118 42/119/119 13/120/120
f 15/121/121 47/122/122 41/123/123 16/124/124
f 21/125/125 44/126/126 48/127/127 20/128/128
usemtl TEAM
f 43/129/129 35/130/130 37/131/131 47/132/132
f 48/133/133 40/134/134 38/135/135 46/136/136
f 42/137/137 34/138/138 35/139/139 43/140/140
f 46/141/141 38/142/142 36/143/143 45/144/144
f 45/145/145 36/146/146 33/147/147 44/148/148
f 41/149/149 39/150/150 34/151/151 42/152/152
f 47/153/153 37/154/154 39/155/155 41/156/156
f 44/157/157 33/158/158 40/159/159 48/160/160
usemtl wood
f 9/161/161 49/162/162 50/163/163 10/164/164
f 10/165/165 50/166/166 52/167/167 14/168/168
f 14/169/169 52/170/170 51/171/171 13/172/172
f 13/173/173 51/174/174 49/175/175 9/176/176
f 10/177/177 53/178/178 54/179/179 11/180/180
f 11/181/181 54/182/182 56/183/183 15/184/184
f 15/185/185 56/186/186 55/187/187 14/188/188
f 14/189/189 55/190/190 53/191/191 10/192/192
f 11/193/193 57/194/194 58/195/195 12/196/196
f 12/197/197 58/198/198 60/199/199 16/200/200
f 16/201/201 60/202/202 59/203/203 15/204/204
f 15/205/205 59/206/206 57/207/207 11/208/208
f 12/209/209 62/210/210 61/211/211 9/212/212
f 9/213/213 61/214/214 63/215/215 13/216/216
f 13/217/217 63/218/218 64/219/219 16/220/220
f 16/221/221 64/222/222 62/223/223 12/224/224
usemtl rubber
f 65/225/225 66/226/226 67/227/227 68/228/228
usemtl wood
f 52/229/229 67/230/230 66/231/231 51/232/232
f 50/233/233 68/234/234 67/235/235 52/236/236
f 49/237/237 65/238/238 68/239/239 50/240/240
f 55/241/241 70/242/242 69/243/243 53/244/244
f 56/245/245 71/246/246 70/247/247 55/248/248
f 54/249/249 72/250/250 71/251/251 56/252/252
f 53/253/253 69/254/254 72/255/255 54/256/256
f 59/257/257 74/258/258 73/259/259 57/260/260
f 60/261/261 75/262/262 74/263/263 59/264/264
f 58/265/265 76/266/266 75/267/267 60/268/268
f 57/269/269 73/270/270 76/271/271 58/272/272
f 64/273/273 78/274/274 77/275/275 62/276/276
f 63/277/277 79/278/278 78/279/279 64/280/280
f 61/281/281 80/282/282 79/283/283 63/284/284
f 62/285/285 77/286/286 80/287/287 61/288/288
# 72 facets

