#  ==========================================================================
#  
#  Wavefront OBJ format exported by Red-i Productions' "Riptide Pro"
#     (a commercial plugin for Cinema 4D PC & Mac, R9.6 or later)
#  
#  Red-i Productions
#  http://skinprops.com
#  
#  ==========================================================================
mtllib hq.mtl
v 1 0.005 1
v -1 0.005 1
v 1 0.005 -1
v -1 0.005 -1
# 4 vertices

vt 0.00000 1.00000
vt 0.00000 0.00000
vt 1.00000 0.00000
vt 1.00000 1.00000
# 4 texture coordinates

vn -1.21619e-015 1 -2.06711e-023
vn -1.21619e-015 1 -2.06711e-023
vn -1.21619e-015 1 -2.06711e-023
vn -1.21619e-015 1 -2.06711e-023
# 4 vertex normals

usemtl Mat.2
f 1/1/1 3/2/2 4/3/3 2/4/4
# 1 facets

v 1.03448 0.0102598 -1.0155
v 1.03448 1.66671 -1.0155
v 1.03448 0.0102597 0.984503
v 1.03448 1.66671 0.984503
v -0.965523 0.0102597 0.984503
v -0.965523 1.66671 0.984503
v -0.965523 0.0102598 -1.0155
v -0.965523 1.66671 -1.0155
v 1.4102 1.66671 -1.35825
v 1.4102 1.66671 1.32726
v -1.34124 1.66671 1.32726
v -1.34124 1.66671 -1.35825
v 1.4102 3.14671 -1.35825
v 1.4102 3.14671 1.32726
v -1.34124 3.14671 1.32726
v -1.34124 3.14671 -1.35825
v 0.680755 3.14671 -0.67416
v -0.6118 0.0102598 -0.67416
v 0.680754 0.0102597 0.643167
v -0.6118 3.14671 0.643167
v -0.6118 3.14671 -0.67416
v 0.680754 3.14671 0.643167
v 0.680755 0.0102598 -0.67416
v -0.6118 0.0102597 0.643167
v 0.680755 3.14671 -0.67416
v 0.680754 3.14671 0.643167
v -0.6118 3.14671 0.643167
v -0.6118 3.14671 -0.67416
v 0.680755 0.0102598 -0.67416
v 0.680754 0.0102597 0.643167
v -0.6118 0.0102597 0.643167
v -0.6118 0.0102598 -0.67416
v -0.919963 3.50717 -0.969938
v 1.10668 3.50717 -1.0877
v 1.10668 3.50717 1.05671
v 0.988918 3.50717 -0.969937
v -1.03773 3.50717 1.05671
v 0.988918 3.50717 0.938944
v -1.03773 3.50717 -1.0877
v -0.919964 3.50717 0.938944
v -1.26876 3.19213 -1.28751
v 1.33771 3.19213 -1.28751
v 1.33771 3.19213 1.25652
v -0.692876 3.19213 -0.756791
v 0.761831 3.19213 -0.756791
v 0.761831 3.19213 0.725797
v -1.26876 3.19213 1.25652
v -0.692876 3.19213 0.725797
v 1.4102 1.84071 -1.18425
v 1.4102 1.84071 1.15326
v 1.4102 2.97271 -1.18425
v 1.4102 2.97271 1.15326
v 1.2362 1.84071 1.32726
v -1.16724 1.84071 1.32726
v 1.2362 2.97271 1.32726
v -1.16724 2.97271 1.32726
v -1.34124 1.84071 1.15326
v -1.34124 1.84071 -1.18425
v -1.34124 2.97271 1.15326
v -1.34124 2.97271 -1.18425
v 1.2362 1.84071 -1.35825
v -1.16724 1.84071 -1.35825
v 1.2362 2.97271 -1.35825
v -1.16724 2.97271 -1.35825
# 64 vertices

vt -0.00000 1.66667
vt -0.00000 -1.09408
vt 3.33333 -1.09408
vt 3.33333 1.66667
vt -0.00000 1.66667
vt -0.00000 -1.09408
vt 3.33333 -1.09408
vt 3.33333 1.66667
vt -0.00000 1.66667
vt -0.00000 -1.09408
vt 3.33333 -1.09408
vt 3.33333 1.66667
vt -0.00000 1.66667
vt -0.00000 -1.09408
vt 3.33333 -1.09408
vt 3.33333 1.66667
vt 0.79993 0.79993
vt 0.91006 0.91006
vt 0.08994 0.91006
vt 0.20007 0.79993
vt 0.91006 0.08994
vt 0.91006 0.91006
vt 0.79993 0.79993
vt 0.79993 0.20007
vt 0.08994 0.08994
vt 0.91006 0.08994
vt 0.79993 0.20007
vt 0.20007 0.20007
vt 3.90460 3.95953
vt 3.78669 3.83873
vt 3.78669 -0.50539
vt 3.90460 -0.62620
vt 2.76444 0.58954
vt 0.56889 0.58954
vt -0.00000 -0.00000
vt 3.33333 -0.00000
vt -0.00000 3.33333
vt -0.00000 -0.00000
vt 0.56889 0.58954
vt 0.56889 2.74380
vt 2.76444 2.74380
vt 2.76444 0.58954
vt 3.33333 -0.00000
vt 3.33333 3.33333
vt 3.33333 3.33333
vt -0.00000 3.33333
vt 0.56889 2.74380
vt 2.76444 2.74380
vt -0.00000 -0.00000
vt -0.57126 -0.62620
vt 3.90460 -0.62620
vt 3.33333 -0.00000
vt 3.33333 -0.00000
vt 3.90460 -0.62620
vt 3.90460 3.95953
vt 3.33333 3.33333
vt 3.33333 3.33333
vt 3.90460 3.95953
vt -0.57126 3.95953
vt -0.00000 3.33333
vt -0.00000 3.33333
vt -0.57126 3.95953
vt -0.57126 -0.62620
vt -0.00000 -0.00000
vt 0.07709 1.00000
vt 0.07709 1.00000
vt 0.92291 1.00000
vt 0.92291 1.00000
vt 1.00000 0.92457
vt 1.00000 0.92457
vt 1.00000 0.07543
vt 1.00000 0.07543
vt -0.28126 -1.38408
vt -0.28126 -3.27075
vt 3.61460 -3.27075
vt 3.61460 -1.38408
vt 0.00000 0.07543
vt 0.00000 0.07543
vt 0.00000 0.92457
vt 0.00000 0.92457
vt 1.00000 0.85997
vt 1.00000 0.15761
vt 0.00000 0.15761
vt 0.00000 0.85997
vt 0.00000 0.15761
vt 0.00000 0.85997
vt 1.00000 0.85997
vt 1.00000 0.15761
vt 0.00000 0.15761
vt 0.00000 0.85997
vt 1.00000 0.85997
vt 1.00000 0.15761
vt 0.00000 0.15761
vt 0.00000 0.85997
vt 1.00000 0.85997
vt 1.00000 0.15761
vt 0.20007 0.20007
vt 0.20007 0.79993
vt 0.08994 0.91006
vt 0.08994 0.08994
vt 2.76444 0.58954
vt 2.90216 0.45441
vt 2.90216 2.87892
vt 2.76444 2.74380
vt -0.57126 3.95953
vt -0.45335 3.83873
vt 3.78669 3.83873
vt 3.90460 3.95953
vt 2.76444 2.74380
vt 2.90216 2.87892
vt 0.43118 2.87892
vt 0.56889 2.74380
vt 0.56889 2.74380
vt 0.43118 2.87892
vt 0.43118 0.45441
vt 0.56889 0.58954
vt -0.57126 -0.62620
vt -0.45335 -0.50539
vt -0.45335 3.83873
vt -0.57126 3.95953
vt 3.90460 -0.62620
vt 3.78669 -0.50539
vt -0.45335 -0.50539
vt -0.57126 -0.62620
vt 0.56889 0.58954
vt 0.43118 0.45441
vt 2.90216 0.45441
vt 2.76444 0.58954
vt 0.95503 0.95503
vt 0.91006 0.91006
vt 0.91006 0.08994
vt 0.95503 0.04497
vt 0.75496 0.24504
vt 0.79993 0.20007
vt 0.79993 0.79993
vt 0.75496 0.75496
vt 0.04497 0.95503
vt 0.08994 0.91006
vt 0.91006 0.91006
vt 0.95503 0.95503
vt 0.75496 0.75496
vt 0.79993 0.79993
vt 0.20007 0.79993
vt 0.24504 0.75496
vt 0.24504 0.75496
vt 0.20007 0.79993
vt 0.20007 0.20007
vt 0.24504 0.24504
vt 0.04497 0.04497
vt 0.08994 0.08994
vt 0.08994 0.91006
vt 0.04497 0.95503
vt 0.95503 0.04497
vt 0.91006 0.08994
vt 0.08994 0.08994
vt 0.04497 0.04497
vt 0.24504 0.24504
vt 0.20007 0.20007
vt 0.79993 0.20007
vt 0.75496 0.24504
vt -0.57126 -1.09408
vt -0.28126 -1.38408
vt 3.61460 -1.38408
vt 3.90460 -1.09408
vt 3.90460 -1.09408
vt 3.61460 -1.38408
vt 3.61460 -3.27075
vt 3.90460 -3.56075
vt 3.90460 -3.56075
vt 3.61460 -3.27075
vt -0.28126 -3.27075
vt -0.57126 -3.56075
vt -0.57126 -3.56075
vt -0.28126 -3.27075
vt -0.28126 -1.38408
vt -0.57126 -1.09408
vt -0.62620 -1.09408
vt -0.33620 -1.38408
vt 3.66953 -1.38408
vt 3.95953 -1.09408
vt 3.95953 -1.09408
vt 3.66953 -1.38408
vt 3.66953 -3.27075
vt 3.95953 -3.56075
vt 3.95953 -3.56075
vt 3.66953 -3.27075
vt -0.33620 -3.27075
vt -0.62620 -3.56075
vt -0.62620 -3.56075
vt -0.33620 -3.27075
vt -0.33620 -1.38408
vt -0.62620 -1.09408
vt 1.00000 0.00000
vt 0.92291 0.00000
vt 0.07709 0.00000
vt 0.00000 0.00000
vt 3.90460 -1.09408
vt 3.61460 -1.38408
vt 3.61460 -3.27075
vt 3.90460 -3.56075
vt 0.00000 0.00000
vt 0.07709 0.00000
vt 0.92291 0.00000
vt 1.00000 0.00000
vt -0.57126 -3.56075
vt -0.28126 -3.27075
vt -0.28126 -1.38408
vt -0.57126 -1.09408
vt -0.62620 -1.09408
vt -0.33620 -1.38408
vt 3.66953 -1.38408
vt 3.95953 -1.09408
vt 0.00000 1.00000
vt 0.00000 0.92457
vt 0.00000 0.92457
vt 0.00000 1.00000
vt 3.95953 -3.56075
vt 3.66953 -3.27075
vt -0.33620 -3.27075
vt -0.62620 -3.56075
vt -0.62620 -3.56075
vt -0.33620 -3.27075
vt -0.33620 -1.38408
vt -0.62620 -1.09408
# 224 texture coordinates

vn 1 -6.35969e-031 3.332e-008
vn 1 -6.35969e-031 3.332e-008
vn 1 -6.35969e-031 3.332e-008
vn 1 -6.35969e-031 3.332e-008
vn -3.332e-008 -3.65002e-008 1
vn -3.332e-008 -3.65002e-008 1
vn -3.332e-008 -3.65002e-008 1
vn -3.332e-008 -3.65002e-008 1
vn -1 6.35969e-031 -3.332e-008
vn -1 6.35969e-031 -3.332e-008
vn -1 6.35969e-031 -3.332e-008
vn -1 6.35969e-031 -3.332e-008
vn 3.332e-008 3.65002e-008 -1
vn 3.332e-008 3.65002e-008 -1
vn 3.332e-008 3.65002e-008 -1
vn 3.332e-008 3.65002e-008 -1
vn -1.21619e-015 1 3.65002e-008
vn -1.21619e-015 1 3.65002e-008
vn -1.21619e-015 1 3.65002e-008
vn -1.21619e-015 1 3.65002e-008
vn -1.21619e-015 1 3.65002e-008
vn -1.21619e-015 1 3.65002e-008
vn -1.21619e-015 1 3.65002e-008
vn -1.21619e-015 1 3.65002e-008
vn -1.21619e-015 1 3.65002e-008
vn -1.21619e-015 1 3.65002e-008
vn -1.21619e-015 1 3.65002e-008
vn -1.21619e-015 1 3.65002e-008
vn 0.638536 0.426091 0.640873
vn 0.392077 0.825515 0.405955
vn -0.392077 0.825515 0.405955
vn -0.638536 0.426091 0.640873
vn 7.56144e-016 -1 -3.65002e-008
vn 7.56144e-016 -1 -3.65002e-008
vn 7.56144e-016 -1 -3.65002e-008
vn 7.56144e-016 -1 -3.65002e-008
vn 1.71271e-015 -1 -3.65002e-008
vn 7.56144e-016 -1 -3.65002e-008
vn 7.56144e-016 -1 -3.65002e-008
vn 1.71271e-015 -1 -3.65002e-008
vn 1.71271e-015 -1 -3.65002e-008
vn 7.56144e-016 -1 -3.65002e-008
vn 7.56144e-016 -1 -3.65002e-008
vn 1.71271e-015 -1 -3.65002e-008
vn 1.71271e-015 -1 -3.65002e-008
vn 1.71271e-015 -1 -3.65002e-008
vn 1.71271e-015 -1 -3.65002e-008
vn 1.71271e-015 -1 -3.65002e-008
vn 1.21619e-015 -1 -3.65002e-008
vn 1.21619e-015 -1 -3.65002e-008
vn 1.21619e-015 -1 -3.65002e-008
vn 1.21619e-015 -1 -3.65002e-008
vn 1.21619e-015 -1 -3.65002e-008
vn 1.21619e-015 -1 -3.65002e-008
vn 1.21619e-015 -1 -3.65002e-008
vn 1.21619e-015 -1 -3.65002e-008
vn 1.21619e-015 -1 -3.65002e-008
vn 1.21619e-015 -1 -3.65002e-008
vn 1.21619e-015 -1 -3.65002e-008
vn 1.21619e-015 -1 -3.65002e-008
vn 1.21619e-015 -1 -3.65002e-008
vn 1.21619e-015 -1 -3.65002e-008
vn 1.21619e-015 -1 -3.65002e-008
vn 1.21619e-015 -1 -3.65002e-008
vn 1 -6.35969e-031 3.332e-008
vn 1 -6.35969e-031 3.332e-008
vn 1 -6.35969e-031 3.332e-008
vn 1 -6.35969e-031 3.332e-008
vn -3.332e-008 -3.65002e-008 1
vn -3.332e-008 -3.65002e-008 1
vn -3.332e-008 -3.65002e-008 1
vn -3.332e-008 -3.65002e-008 1
vn -1 6.35969e-031 -3.332e-008
vn -1 6.35969e-031 -3.332e-008
vn -1 6.35969e-031 -3.332e-008
vn -1 6.35969e-031 -3.332e-008
vn 3.332e-008 3.65002e-008 -1
vn 3.332e-008 3.65002e-008 -1
vn 3.332e-008 3.65002e-008 -1
vn 3.332e-008 3.65002e-008 -1
vn -1 6.35969e-031 -3.332e-008
vn -1 6.35969e-031 -3.332e-008
vn -1 6.35969e-031 -3.332e-008
vn -1 6.35969e-031 -3.332e-008
vn 3.332e-008 3.65002e-008 -1
vn 3.332e-008 3.65002e-008 -1
vn 3.332e-008 3.65002e-008 -1
vn 3.332e-008 3.65002e-008 -1
vn 1 -6.35969e-031 3.332e-008
vn 1 -6.35969e-031 3.332e-008
vn 1 -6.35969e-031 3.332e-008
vn 1 -6.35969e-031 3.332e-008
vn -3.332e-008 -3.65002e-008 1
vn -3.332e-008 -3.65002e-008 1
vn -3.332e-008 -3.65002e-008 1
vn -3.332e-008 -3.65002e-008 1
vn -1.21619e-015 1 3.65002e-008
vn -1.21619e-015 1 3.65002e-008
vn -1.21619e-015 1 3.65002e-008
vn -1.21619e-015 1 3.65002e-008
vn 0.260155 0.9309 -0.256406
vn 0.378745 0.843145 -0.381653
vn -0.378745 0.843145 -0.381653
vn -0.260155 0.9309 -0.256406
vn 0.638536 0.426091 -0.640873
vn 0.392077 0.825515 -0.405955
vn 0.392077 0.825515 0.405955
vn 0.638536 0.426091 0.640873
vn -0.260155 0.9309 -0.256406
vn -0.378745 0.843145 -0.381653
vn -0.378745 0.843145 0.381653
vn -0.260155 0.9309 0.256406
vn -0.260155 0.9309 0.256406
vn -0.378745 0.843145 0.381653
vn 0.378745 0.843145 0.381653
vn 0.260155 0.9309 0.256406
vn -0.638536 0.426091 -0.640873
vn -0.392077 0.825515 -0.405955
vn 0.392077 0.825515 -0.405955
vn 0.638536 0.426091 -0.640873
vn -0.638536 0.426091 0.640873
vn -0.392077 0.825515 0.405955
vn -0.392077 0.825515 -0.405955
vn -0.638536 0.426091 -0.640873
vn 0.260155 0.9309 0.256406
vn 0.378745 0.843145 0.381653
vn 0.378745 0.843145 -0.381653
vn 0.260155 0.9309 -0.256406
vn 0.392077 0.825515 0.405955
vn 0.496927 0.694448 0.520389
vn -0.496927 0.694448 0.520389
vn -0.392077 0.825515 0.405955
vn 0.378745 0.843145 -0.381653
vn 0.497829 0.702724 -0.508277
vn -0.497829 0.702724 -0.508277
vn -0.378745 0.843145 -0.381653
vn 0.392077 0.825515 -0.405955
vn 0.496927 0.694448 -0.520389
vn 0.496927 0.694448 0.520389
vn 0.392077 0.825515 0.405955
vn -0.378745 0.843145 -0.381653
vn -0.497829 0.702724 -0.508277
vn -0.497829 0.702724 0.508277
vn -0.378745 0.843145 0.381653
vn -0.378745 0.843145 0.381653
vn -0.497829 0.702724 0.508277
vn 0.497829 0.702724 0.508277
vn 0.378745 0.843145 0.381653
vn -0.392077 0.825515 -0.405955
vn -0.496927 0.694448 -0.520389
vn 0.496927 0.694448 -0.520389
vn 0.392077 0.825515 -0.405955
vn -0.392077 0.825515 0.405955
vn -0.496927 0.694448 0.520389
vn -0.496927 0.694448 -0.520389
vn -0.392077 0.825515 -0.405955
vn 0.378745 0.843145 0.381653
vn 0.497829 0.702724 0.508277
vn 0.497829 0.702724 -0.508277
vn 0.378745 0.843145 -0.381653
vn 1 -6.35969e-031 3.332e-008
vn 1 -6.35969e-031 3.332e-008
vn 1 -6.35969e-031 3.332e-008
vn 1 -6.35969e-031 3.332e-008
vn 1 -6.35969e-031 3.332e-008
vn 1 -6.35969e-031 3.332e-008
vn 1 -6.35969e-031 3.332e-008
vn 0.638536 0.426091 0.640873
vn 0.638536 0.426091 0.640873
vn 1 -6.35969e-031 3.332e-008
vn 1 -6.35969e-031 3.332e-008
vn 0.638536 0.426091 -0.640873
vn 0.638536 0.426091 -0.640873
vn 1 -6.35969e-031 3.332e-008
vn 1 -6.35969e-031 3.332e-008
vn 1 -6.35969e-031 3.332e-008
vn -3.332e-008 -3.65002e-008 1
vn -3.332e-008 -3.65002e-008 1
vn -3.332e-008 -3.65002e-008 1
vn -3.332e-008 -3.65002e-008 1
vn -3.332e-008 -3.65002e-008 1
vn -3.332e-008 -3.65002e-008 1
vn -3.332e-008 -3.65002e-008 1
vn -0.638536 0.426091 0.640873
vn -0.638536 0.426091 0.640873
vn -3.332e-008 -3.65002e-008 1
vn -3.332e-008 -3.65002e-008 1
vn 0.638536 0.426091 0.640873
vn 0.638536 0.426091 0.640873
vn -3.332e-008 -3.65002e-008 1
vn -3.332e-008 -3.65002e-008 1
vn -3.332e-008 -3.65002e-008 1
vn -1 6.35969e-031 -3.332e-008
vn -1 6.35969e-031 -3.332e-008
vn -1 6.35969e-031 -3.332e-008
vn -1 6.35969e-031 -3.332e-008
vn -1 6.35969e-031 -3.332e-008
vn -1 6.35969e-031 -3.332e-008
vn -1 6.35969e-031 -3.332e-008
vn -0.638536 0.426091 -0.640873
vn -0.638536 0.426091 -0.640873
vn -1 6.35969e-031 -3.332e-008
vn -1 6.35969e-031 -3.332e-008
vn -0.638536 0.426091 0.640873
vn -0.638536 0.426091 0.640873
vn -1 6.35969e-031 -3.332e-008
vn -1 6.35969e-031 -3.332e-008
vn -1 6.35969e-031 -3.332e-008
vn 3.332e-008 3.65002e-008 -1
vn 3.332e-008 3.65002e-008 -1
vn 3.332e-008 3.65002e-008 -1
vn 3.332e-008 3.65002e-008 -1
vn 3.332e-008 3.65002e-008 -1
vn 3.332e-008 3.65002e-008 -1
vn 3.332e-008 3.65002e-008 -1
vn 0.638536 0.426091 -0.640873
vn 0.638536 0.426091 -0.640873
vn 3.332e-008 3.65002e-008 -1
vn 3.332e-008 3.65002e-008 -1
vn -0.638536 0.426091 -0.640873
vn -0.638536 0.426091 -0.640873
vn 3.332e-008 3.65002e-008 -1
vn 3.332e-008 3.65002e-008 -1
vn 3.332e-008 3.65002e-008 -1
# 224 vertex normals

usemtl wall-inner
f 5/5/5 6/6/6 8/7/7 7/8/8
f 7/9/9 8/10/10 10/11/11 9/12/12
f 9/13/13 10/14/14 12/15/15 11/16/16
f 11/17/17 12/18/18 6/19/19 5/20/20
usemtl TEAM
f 42/21/21 39/22/22 38/23/23 40/24/24
f 41/25/25 39/26/26 42/27/27 44/28/28
f 43/29/29 41/30/30 44/31/31 37/32/32
usemtl wall-inner
f 18/33/33 47/34/34 51/35/35 19/36/36
f 23/37/37 27/38/38 5/39/39 7/40/40
f 11/41/41 5/42/42 27/43/43 22/44/44
f 28/45/45 23/46/46 7/47/47 9/48/48
f 9/49/49 11/50/50 22/51/51 28/52/52
f 6/53/53 13/54/54 14/55/55 8/56/56
f 8/57/57 14/58/58 15/59/59 10/60/60
f 10/61/61 15/62/62 16/63/63 12/64/64
f 12/65/65 16/66/66 13/67/67 6/68/68
usemtl Mat.7
f 53/69/69 55/70/70 56/71/71 54/72/72
f 57/73/73 59/74/74 60/75/75 58/76/76
f 61/77/77 63/78/78 64/79/79 62/80/80
f 66/81/81 68/82/82 67/83/83 65/84/84
usemtl default_Mat
f 34/85/85 30/86/86 29/87/87 33/88/88
f 30/89/89 34/90/90 35/91/91 31/92/92
f 31/93/93 35/94/94 36/95/95 32/96/96
f 32/97/97 36/98/98 33/99/99 29/100/100
usemtl TEAM
f 37/101/101 40/102/102 38/103/103 43/104/104
usemtl wall-inner
f 24/105/105 52/106/106 50/107/107 26/108/108
f 17/109/109 46/110/110 47/111/111 18/112/112
f 26/113/113 50/114/114 49/115/115 21/116/116
f 21/117/117 49/118/118 48/119/119 25/120/120
f 20/121/121 45/122/122 46/123/123 17/124/124
f 19/125/125 51/126/126 45/127/127 20/128/128
f 25/129/129 48/130/130 52/131/131 24/132/132
usemtl TEAM
f 47/133/133 39/134/134 41/135/135 51/136/136
f 52/137/137 44/138/138 42/139/139 50/140/140
f 46/141/141 38/142/142 39/143/143 47/144/144
f 50/145/145 42/146/146 40/147/147 49/148/148
f 49/149/149 40/150/150 37/151/151 48/152/152
f 45/153/153 43/154/154 38/155/155 46/156/156
f 51/157/157 41/158/158 43/159/159 45/160/160
f 48/161/161 37/162/162 44/163/163 52/164/164
usemtl wall-inner
f 13/165/165 53/166/166 54/167/167 14/168/168
f 14/169/169 54/170/170 56/171/171 18/172/172
f 18/173/173 56/174/174 55/175/175 17/176/176
f 17/177/177 55/178/178 53/179/179 13/180/180
f 14/181/181 57/182/182 58/183/183 15/184/184
f 15/185/185 58/186/186 60/187/187 19/188/188
f 19/189/189 60/190/190 59/191/191 18/192/192
f 18/193/193 59/194/194 57/195/195 14/196/196
usemtl default_Mat
f 15/197/197 61/198/198 62/199/199 16/200/200
usemtl wall-inner
f 16/201/201 62/202/202 64/203/203 20/204/204
usemtl default_Mat
f 20/205/205 64/206/206 63/207/207 19/208/208
usemtl wall-inner
f 19/209/209 63/210/210 61/211/211 15/212/212
f 16/213/213 66/214/214 65/215/215 13/216/216
usemtl default_Mat
f 13/217/217 65/218/218 67/219/219 17/220/220
usemtl wall-inner
f 17/221/221 67/222/222 68/223/223 20/224/224
f 20/225/225 68/226/226 66/227/227 16/228/228
# 56 facets

