#  ==========================================================================
#  
#  Wavefront OBJ format exported by Red-i Productions' "Riptide Pro"
#     (a commercial plugin for Cinema 4D PC & Mac, R9.6 or later)
#  
#  Red-i Productions
#  http://skinprops.com
#  
#  ==========================================================================
mtllib hq.mtl
v 1 0.00500001 1
v -1 0.00500001 1
v 1 0.00499999 -1
v -1 0.00499999 -1
# 4 vertices

vt 0.00000 1.00000
vt 0.00000 0.00000
vt 1.00000 0.00000
vt 1.00000 1.00000
# 4 texture coordinates

vn -1.04332e-015 1 -6.69792e-009
vn -1.04332e-015 1 -6.69792e-009
vn -1.04332e-015 1 -6.69792e-009
vn -1.04332e-015 1 -6.69792e-009
# 4 vertex normals

usemtl floor
f 1/1/1 3/2/2 4/3/3 2/4/4
# 1 facets

v 1.03448 0.0102598 -1.0155
v 1.03448 1.66671 -1.0155
v 1.03448 0.0102597 0.984503
v 1.03448 1.66671 0.984503
v -0.965523 0.0102597 0.984503
v -0.965523 1.66671 0.984503
v -0.965523 0.0102598 -1.0155
v -0.965523 1.66671 -1.0155
v 1.4102 1.66671 -1.35825
v 1.4102 1.66671 1.32726
v -1.34124 1.66671 1.32726
v -1.34124 1.66671 -1.35825
v 1.4102 3.14671 -1.35825
v 1.4102 3.14671 1.32726
v -1.34124 3.14671 1.32726
v -1.34124 3.14671 -1.35825
v 0.680755 3.14671 -0.67416
v -0.6118 0.0102598 -0.67416
v 0.680754 0.0102597 0.643167
v -0.6118 3.14671 0.643167
v -0.6118 3.14671 -0.67416
v 0.680754 3.14671 0.643167
v 0.680755 0.0102598 -0.67416
v -0.6118 0.0102597 0.643167
v 0.680755 3.14671 -0.67416
v 0.680754 3.14671 0.643167
v -0.6118 3.14671 0.643167
v -0.6118 3.14671 -0.67416
v 0.680755 0.0102598 -0.67416
v 0.680754 0.0102597 0.643167
v -0.6118 0.0102597 0.643167
v -0.6118 0.0102598 -0.67416
v -0.919963 3.50717 -0.969938
v 1.10668 3.50717 -1.0877
v 1.10668 3.50717 1.05671
v 0.988918 3.50717 -0.969938
v -1.03773 3.50717 1.05671
v 0.988918 3.50717 0.938944
v -1.03773 3.50717 -1.0877
v -0.919964 3.50717 0.938944
v -1.26876 3.19213 -1.28751
v 1.33771 3.19213 -1.28751
v 1.33771 3.19213 1.25652
v -0.692876 3.19213 -0.756791
v 0.761831 3.19213 -0.756791
v 0.761831 3.19213 0.725797
v -1.26876 3.19213 1.25652
v -0.692876 3.19213 0.725797
v 1.4102 1.84071 -1.18425
v 1.4102 1.84071 1.15326
v 1.4102 2.97271 -1.18425
v 1.4102 2.97271 1.15326
v 1.2362 1.84071 1.32726
v -1.16724 1.84071 1.32726
v 1.2362 2.97271 1.32726
v -1.16724 2.97271 1.32726
v -1.34124 1.84071 1.15326
v -1.34124 1.84071 -1.18425
v -1.34124 2.97271 1.15326
v -1.34124 2.97271 -1.18425
v 1.2362 1.84071 -1.35825
v -1.16724 1.84071 -1.35825
v 1.2362 2.97271 -1.35825
v -1.16724 2.97271 -1.35825
v 1.2602 1.98071 -1.04425
v 1.2602 2.83271 -1.04425
v 1.2602 2.83271 1.01326
v 1.2602 1.98071 1.01326
v 1.0962 1.98071 1.17726
v 1.0962 2.83271 1.17726
v -1.02724 2.83271 1.17726
v -1.02724 1.98071 1.17726
v -1.19124 1.98071 1.01326
v -1.19124 2.83271 1.01326
v -1.19124 2.83271 -1.04425
v -1.19124 1.98071 -1.04425
v -1.02724 1.98071 -1.20825
v -1.02724 2.83271 -1.20825
v 1.0962 2.83271 -1.20825
v 1.0962 1.98071 -1.20825
# 80 vertices

vt 0.19350 0.96219
vt 0.19350 0.45449
vt 0.80650 0.45449
vt 0.80650 0.96219
vt 0.19350 0.96219
vt 0.19350 0.45449
vt 0.80650 0.45449
vt 0.80650 0.96219
vt 0.19350 0.96219
vt 0.19350 0.45449
vt 0.80650 0.45449
vt 0.80650 0.96219
vt 0.19350 0.96219
vt 0.19350 0.45449
vt 0.80650 0.45449
vt 0.80650 0.96219
vt 0.84689 0.00000
vt 0.88969 0.00000
vt 0.11031 0.00000
vt 0.15311 0.00000
vt 0.88969 0.00000
vt 0.88969 0.00000
vt 0.84689 0.00000
vt 0.84689 0.00000
vt 0.11031 0.00000
vt 0.88969 0.00000
vt 0.84689 0.00000
vt 0.15311 0.00000
vt 0.91155 0.92165
vt 0.88987 0.89944
vt 0.88987 0.10056
vt 0.91155 0.07835
vt 0.70188 0.30192
vt 0.29812 0.30192
vt 0.19350 0.19350
vt 0.80650 0.19350
vt 0.19350 0.80650
vt 0.19350 0.19350
vt 0.29812 0.30192
vt 0.29812 0.69808
vt 0.70188 0.69808
vt 0.70188 0.30192
vt 0.80650 0.19350
vt 0.80650 0.80650
vt 0.80650 0.80650
vt 0.19350 0.80650
vt 0.29812 0.69808
vt 0.70188 0.69808
vt 0.19350 0.19350
vt 0.08845 0.07835
vt 0.91155 0.07835
vt 0.80650 0.19350
vt 0.80650 0.19350
vt 0.91155 0.07835
vt 0.91155 0.92165
vt 0.80650 0.80650
vt 0.80650 0.80650
vt 0.91155 0.92165
vt 0.08845 0.92165
vt 0.19350 0.80650
vt 0.19350 0.80650
vt 0.08845 0.92165
vt 0.08845 0.07835
vt 0.19350 0.19350
vt 0.93350 0.43652
vt 0.93350 0.19287
vt 0.93350 0.19287
vt 0.93350 0.43652
vt 0.87390 0.43652
vt 0.87390 0.19287
vt 0.12610 0.19287
vt 0.12610 0.43652
vt 0.06650 0.43652
vt 0.06650 0.19287
vt 0.06650 0.19287
vt 0.06650 0.43652
vt 0.07835 0.05421
vt 0.12432 0.09712
vt 0.12432 0.35825
vt 0.07835 0.40116
vt 0.29812 0.96219
vt 0.29812 0.00088
vt 0.70188 0.00088
vt 0.70188 0.96219
vt 0.69808 0.00088
vt 0.69808 0.96219
vt 0.30192 0.96219
vt 0.30192 0.00088
vt 0.70188 0.00088
vt 0.70188 0.96219
vt 0.29812 0.96219
vt 0.29812 0.00088
vt 0.69808 0.00088
vt 0.69808 0.96219
vt 0.30192 0.96219
vt 0.30192 0.00088
vt 0.15311 0.00000
vt 0.15311 0.00000
vt 0.11031 0.00000
vt 0.11031 0.00000
vt 0.70188 0.30192
vt 0.72720 0.27707
vt 0.72720 0.72293
vt 0.70188 0.69808
vt 0.08845 0.92165
vt 0.11013 0.89944
vt 0.88987 0.89944
vt 0.91155 0.92165
vt 0.70188 0.69808
vt 0.72720 0.72293
vt 0.27280 0.72293
vt 0.29812 0.69808
vt 0.29812 0.69808
vt 0.27280 0.72293
vt 0.27280 0.27707
vt 0.29812 0.30192
vt 0.08845 0.07835
vt 0.11013 0.10056
vt 0.11013 0.89944
vt 0.08845 0.92165
vt 0.91155 0.07835
vt 0.88987 0.10056
vt 0.11013 0.10056
vt 0.08845 0.07835
vt 0.29812 0.30192
vt 0.27280 0.27707
vt 0.72720 0.27707
vt 0.70188 0.30192
vt 0.96231 0.09009
vt 0.88969 0.00000
vt 0.88969 0.00000
vt 0.96231 0.09009
vt 0.76942 0.09009
vt 0.84689 0.00000
vt 0.84689 0.00000
vt 0.76942 0.09009
vt 0.03769 0.09009
vt 0.11031 0.00000
vt 0.88969 0.00000
vt 0.96231 0.09009
vt 0.76942 0.09009
vt 0.84689 0.00000
vt 0.15311 0.00000
vt 0.23058 0.09009
vt 0.23058 0.09009
vt 0.15311 0.00000
vt 0.15311 0.00000
vt 0.23058 0.09009
vt 0.03769 0.09009
vt 0.11031 0.00000
vt 0.11031 0.00000
vt 0.03769 0.09009
vt 0.96231 0.09009
vt 0.88969 0.00000
vt 0.11031 0.00000
vt 0.03769 0.09009
vt 0.23058 0.09009
vt 0.15311 0.00000
vt 0.84689 0.00000
vt 0.76942 0.09009
vt 0.08845 0.45449
vt 0.14178 0.40116
vt 0.85822 0.40116
vt 0.91155 0.45449
vt 0.91155 0.45449
vt 0.85822 0.40116
vt 0.85822 0.05421
vt 0.91155 0.00088
vt 0.91155 0.00088
vt 0.85822 0.05421
vt 0.14178 0.05421
vt 0.08845 0.00088
vt 0.08845 0.00088
vt 0.14178 0.05421
vt 0.14178 0.40116
vt 0.08845 0.45449
vt 0.07835 0.45449
vt 0.13168 0.40116
vt 0.86832 0.40116
vt 0.92165 0.45449
vt 0.92165 0.45449
vt 0.86832 0.40116
vt 0.86832 0.05421
vt 0.92165 0.00088
vt 0.92165 0.00088
vt 0.86832 0.05421
vt 0.13168 0.05421
vt 0.07835 0.00088
vt 0.07835 0.00088
vt 0.13168 0.05421
vt 0.13168 0.40116
vt 0.07835 0.45449
vt 0.08845 0.45449
vt 0.14178 0.40116
vt 0.85822 0.40116
vt 0.91155 0.45449
vt 0.91155 0.45449
vt 0.85822 0.40116
vt 0.85822 0.05421
vt 0.91155 0.00088
vt 0.91155 0.00088
vt 0.85822 0.05421
vt 0.14178 0.05421
vt 0.08845 0.00088
vt 0.08845 0.00088
vt 0.14178 0.05421
vt 0.14178 0.40116
vt 0.08845 0.45449
vt 0.07835 0.45449
vt 0.13168 0.40116
vt 0.86832 0.40116
vt 0.92165 0.45449
vt 0.92165 0.45449
vt 0.86832 0.40116
vt 0.86832 0.05421
vt 0.92165 0.00088
vt 0.92165 0.00088
vt 0.86832 0.05421
vt 0.13168 0.05421
vt 0.07835 0.00088
vt 0.07835 0.00088
vt 0.13168 0.05421
vt 0.13168 0.40116
vt 0.07835 0.45449
vt 0.12610 0.43652
vt 0.12610 0.19287
vt 0.87390 0.19287
vt 0.87390 0.43652
vt 0.85822 0.07835
vt 0.81531 0.12432
vt 0.18469 0.12432
vt 0.14178 0.07835
vt 0.92165 0.40116
vt 0.87568 0.35825
vt 0.87568 0.09712
vt 0.92165 0.05421
vt 0.14178 0.92165
vt 0.18469 0.87568
vt 0.81531 0.87568
vt 0.85822 0.92165
vt 0.08845 0.05421
vt 0.13442 0.09712
vt 0.13442 0.35825
vt 0.08845 0.40116
vt 0.91155 0.86832
vt 0.86558 0.82541
vt 0.86558 0.17459
vt 0.91155 0.13168
vt 0.91155 0.40116
vt 0.86558 0.35825
vt 0.86558 0.09712
vt 0.91155 0.05421
vt 0.91155 0.86832
vt 0.86558 0.82541
vt 0.86558 0.17459
vt 0.91155 0.13168
vt 0.07835 0.05421
vt 0.12432 0.09712
vt 0.12432 0.35825
vt 0.07835 0.40116
vt 0.14178 0.92165
vt 0.18469 0.87568
vt 0.81531 0.87568
vt 0.85822 0.92165
vt 0.92165 0.40116
vt 0.87568 0.35825
vt 0.87568 0.09712
vt 0.92165 0.05421
vt 0.85822 0.07835
vt 0.81531 0.12432
vt 0.18469 0.12432
vt 0.14178 0.07835
vt 0.08845 0.05421
vt 0.13442 0.09712
vt 0.13442 0.35825
vt 0.08845 0.40116
vt 0.08845 0.13168
vt 0.13442 0.17459
vt 0.13442 0.82541
vt 0.08845 0.86832
vt 0.91155 0.40116
vt 0.86558 0.35825
vt 0.86558 0.09712
vt 0.91155 0.05421
vt 0.08845 0.13168
vt 0.13442 0.17459
vt 0.13442 0.82541
vt 0.08845 0.86832
# 288 texture coordinates

vn 0.408248 -0.816497 -0.408248
vn 0.408248 -0.816497 -0.408248
vn 0.408248 -0.816497 0.408248
vn 0.408248 -0.816497 0.408248
vn 0.408248 -0.816497 0.408248
vn 0.408248 -0.816497 0.408248
vn -0.408248 -0.816497 0.408248
vn -0.408248 -0.816497 0.408248
vn -0.408248 -0.816497 0.408248
vn -0.408248 -0.816497 0.408248
vn -0.408248 -0.816497 -0.408248
vn -0.408248 -0.816497 -0.408248
vn -0.408248 -0.816497 -0.408248
vn -0.408248 -0.816497 -0.408248
vn 0.408248 -0.816497 -0.408248
vn 0.408248 -0.816497 -0.408248
vn -0.242013 0.938283 -0.247092
vn 0.241595 0.936815 0.253002
vn 0.241595 0.936815 -0.253002
vn -0.242013 0.938283 0.247092
vn -0.241595 0.936815 0.253002
vn 0.241595 0.936815 0.253002
vn -0.242013 0.938283 -0.247092
vn 0.242013 0.938283 -0.247092
vn -0.241595 0.936815 -0.253002
vn -0.241595 0.936815 0.253002
vn 0.242013 0.938283 -0.247092
vn 0.242013 0.938283 0.247092
vn 0.638536 0.426091 0.640873
vn 0.392078 0.825515 0.405955
vn -0.392078 0.825515 0.405955
vn -0.638536 0.426091 0.640873
vn 3.10617e-016 -1 -2.98023e-008
vn 3.10617e-016 -1 -2.98023e-008
vn 0.408248 -0.816497 -0.408248
vn 0.408248 -0.816497 0.408248
vn -0.408248 -0.816497 -0.408248
vn 0.408248 -0.816497 -0.408248
vn 3.10617e-016 -1 -2.98023e-008
vn 1.26718e-015 -1 -2.98023e-008
vn 1.26718e-015 -1 -2.98023e-008
vn 3.10617e-016 -1 -2.98023e-008
vn 0.408248 -0.816497 0.408248
vn -0.408248 -0.816497 0.408248
vn -0.408248 -0.816497 0.408248
vn -0.408248 -0.816497 -0.408248
vn 1.26718e-015 -1 -2.98023e-008
vn 1.26718e-015 -1 -2.98023e-008
vn 0.408248 -0.816497 -0.408248
vn 0.57735 -0.57735 -0.57735
vn 0.57735 -0.57735 0.57735
vn 0.408248 -0.816497 0.408248
vn 0.408248 -0.816497 0.408248
vn 0.57735 -0.57735 0.57735
vn -0.57735 -0.57735 0.57735
vn -0.408248 -0.816497 0.408248
vn -0.408248 -0.816497 0.408248
vn -0.57735 -0.57735 0.57735
vn -0.57735 -0.57735 -0.57735
vn -0.408248 -0.816497 -0.408248
vn -0.408248 -0.816497 -0.408248
vn -0.57735 -0.57735 -0.57735
vn 0.57735 -0.57735 -0.57735
vn 0.408248 -0.816497 -0.408248
vn -0.28327 0.28327 0.916251
vn -0.28327 -0.28327 0.916251
vn 0.28327 -0.28327 0.916251
vn 0.28327 0.28327 0.916251
vn -0.916251 0.28327 -0.28327
vn -0.916251 -0.28327 -0.28327
vn -0.916251 -0.28327 0.28327
vn -0.916251 0.28327 0.28327
vn 0.28327 0.28327 -0.916251
vn 0.28327 -0.28327 -0.916251
vn -0.28327 -0.28327 -0.916251
vn -0.28327 0.28327 -0.916251
vn 0.955891 -0.207692 0.207692
vn 0.916251 -0.28327 0.28327
vn 0.916251 0.28327 0.28327
vn 0.955891 0.207692 0.207692
vn -0.707107 2.10734e-008 -0.707107
vn -0.707107 2.10734e-008 -0.707107
vn -0.707107 -2.10734e-008 0.707107
vn -0.707107 -2.10734e-008 0.707107
vn -0.707107 2.10734e-008 -0.707107
vn -0.707107 2.10734e-008 -0.707107
vn 0.707107 2.10734e-008 -0.707107
vn 0.707107 2.10734e-008 -0.707107
vn 0.707107 2.10734e-008 -0.707107
vn 0.707107 2.10734e-008 -0.707107
vn 0.707107 -2.10734e-008 0.707107
vn 0.707107 -2.10734e-008 0.707107
vn 0.707107 -2.10734e-008 0.707107
vn 0.707107 -2.10734e-008 0.707107
vn -0.707107 -2.10734e-008 0.707107
vn -0.707107 -2.10734e-008 0.707107
vn 0.242013 0.938283 0.247092
vn -0.242013 0.938283 0.247092
vn 0.241595 0.936815 -0.253002
vn -0.241595 0.936815 -0.253002
vn 0.260155 0.9309 -0.256407
vn 0.378745 0.843145 -0.381653
vn -0.378745 0.843145 -0.381653
vn -0.260155 0.9309 -0.256407
vn 0.638536 0.426091 -0.640873
vn 0.392078 0.825515 -0.405955
vn 0.392078 0.825515 0.405955
vn 0.638536 0.426091 0.640873
vn -0.260155 0.9309 -0.256407
vn -0.378745 0.843145 -0.381653
vn -0.378745 0.843145 0.381653
vn -0.260155 0.9309 0.256407
vn -0.260155 0.9309 0.256407
vn -0.378745 0.843145 0.381653
vn 0.378745 0.843145 0.381653
vn 0.260155 0.9309 0.256407
vn -0.638536 0.426091 -0.640873
vn -0.392078 0.825515 -0.405955
vn 0.392078 0.825515 -0.405955
vn 0.638536 0.426091 -0.640873
vn -0.638536 0.426091 0.640873
vn -0.392078 0.825515 0.405955
vn -0.392078 0.825515 -0.405955
vn -0.638536 0.426091 -0.640873
vn 0.260155 0.9309 0.256407
vn 0.378745 0.843145 0.381653
vn 0.378745 0.843145 -0.381653
vn 0.260155 0.9309 -0.256407
vn 0.392078 0.825515 0.405955
vn 0.241595 0.936815 0.253002
vn -0.241595 0.936815 0.253002
vn -0.392078 0.825515 0.405955
vn 0.378745 0.843145 -0.381653
vn 0.242013 0.938283 -0.247092
vn -0.242013 0.938283 -0.247092
vn -0.378745 0.843145 -0.381653
vn 0.392078 0.825515 -0.405955
vn 0.241595 0.936815 -0.253002
vn 0.241595 0.936815 0.253002
vn 0.392078 0.825515 0.405955
vn -0.378745 0.843145 -0.381653
vn -0.242013 0.938283 -0.247092
vn -0.242013 0.938283 0.247092
vn -0.378745 0.843145 0.381653
vn -0.378745 0.843145 0.381653
vn -0.242013 0.938283 0.247092
vn 0.242013 0.938283 0.247092
vn 0.378745 0.843145 0.381653
vn -0.392078 0.825515 -0.405955
vn -0.241595 0.936815 -0.253002
vn 0.241595 0.936815 -0.253002
vn 0.392078 0.825515 -0.405955
vn -0.392078 0.825515 0.405955
vn -0.241595 0.936815 0.253002
vn -0.241595 0.936815 -0.253002
vn -0.392078 0.825515 -0.405955
vn 0.378745 0.843145 0.381653
vn 0.242013 0.938283 0.247092
vn 0.242013 0.938283 -0.247092
vn 0.378745 0.843145 -0.381653
vn 0.57735 -0.57735 -0.57735
vn 0.955891 0.207692 0.207692
vn 0.955891 0.207692 -0.207692
vn 0.57735 -0.57735 0.57735
vn 0.57735 -0.57735 0.57735
vn 0.955891 0.207692 -0.207692
vn 0.955891 -0.207692 -0.207692
vn 0.638536 0.426091 0.640873
vn 0.638536 0.426091 0.640873
vn 0.955891 -0.207692 -0.207692
vn 0.955891 -0.207692 0.207692
vn 0.638536 0.426091 -0.640873
vn 0.638536 0.426091 -0.640873
vn 0.955891 -0.207692 0.207692
vn 0.955891 0.207692 0.207692
vn 0.57735 -0.57735 -0.57735
vn 0.57735 -0.57735 0.57735
vn -0.207692 0.207692 0.955891
vn 0.207692 0.207692 0.955891
vn -0.57735 -0.57735 0.57735
vn -0.57735 -0.57735 0.57735
vn 0.207692 0.207692 0.955891
vn 0.207692 -0.207692 0.955891
vn -0.638536 0.426091 0.640873
vn -0.638536 0.426091 0.640873
vn 0.207692 -0.207692 0.955891
vn -0.207692 -0.207692 0.955891
vn 0.638536 0.426091 0.640873
vn 0.638536 0.426091 0.640873
vn -0.207692 -0.207692 0.955891
vn -0.207692 0.207692 0.955891
vn 0.57735 -0.57735 0.57735
vn -0.57735 -0.57735 0.57735
vn -0.955891 0.207692 -0.207692
vn -0.955891 0.207692 0.207692
vn -0.57735 -0.57735 -0.57735
vn -0.57735 -0.57735 -0.57735
vn -0.955891 0.207692 0.207692
vn -0.955891 -0.207692 0.207692
vn -0.638536 0.426091 -0.640873
vn -0.638536 0.426091 -0.640873
vn -0.955891 -0.207692 0.207692
vn -0.955891 -0.207692 -0.207692
vn -0.638536 0.426091 0.640873
vn -0.638536 0.426091 0.640873
vn -0.955891 -0.207692 -0.207692
vn -0.955891 0.207692 -0.207692
vn -0.57735 -0.57735 0.57735
vn -0.57735 -0.57735 -0.57735
vn 0.207692 0.207692 -0.955891
vn -0.207692 0.207692 -0.955891
vn 0.57735 -0.57735 -0.57735
vn 0.57735 -0.57735 -0.57735
vn -0.207692 0.207692 -0.955891
vn -0.207692 -0.207692 -0.955891
vn 0.638536 0.426091 -0.640873
vn 0.638536 0.426091 -0.640873
vn -0.207692 -0.207692 -0.955891
vn 0.207692 -0.207692 -0.955891
vn -0.638536 0.426091 -0.640873
vn -0.638536 0.426091 -0.640873
vn 0.207692 -0.207692 -0.955891
vn 0.207692 0.207692 -0.955891
vn -0.57735 -0.57735 -0.57735
vn 0.916251 0.28327 0.28327
vn 0.916251 -0.28327 0.28327
vn 0.916251 -0.28327 -0.28327
vn 0.916251 0.28327 -0.28327
vn 0.955891 -0.207692 -0.207692
vn 0.916251 -0.28327 -0.28327
vn 0.916251 -0.28327 0.28327
vn 0.955891 -0.207692 0.207692
vn 0.955891 0.207692 -0.207692
vn 0.916251 0.28327 -0.28327
vn 0.916251 -0.28327 -0.28327
vn 0.955891 -0.207692 -0.207692
vn 0.955891 0.207692 0.207692
vn 0.916251 0.28327 0.28327
vn 0.916251 0.28327 -0.28327
vn 0.955891 0.207692 -0.207692
vn -0.207692 -0.207692 0.955891
vn -0.28327 -0.28327 0.916251
vn -0.28327 0.28327 0.916251
vn -0.207692 0.207692 0.955891
vn 0.207692 -0.207692 0.955891
vn 0.28327 -0.28327 0.916251
vn -0.28327 -0.28327 0.916251
vn -0.207692 -0.207692 0.955891
vn 0.207692 0.207692 0.955891
vn 0.28327 0.28327 0.916251
vn 0.28327 -0.28327 0.916251
vn 0.207692 -0.207692 0.955891
vn -0.207692 0.207692 0.955891
vn -0.28327 0.28327 0.916251
vn 0.28327 0.28327 0.916251
vn 0.207692 0.207692 0.955891
vn -0.955891 -0.207692 -0.207692
vn -0.916251 -0.28327 -0.28327
vn -0.916251 0.28327 -0.28327
vn -0.955891 0.207692 -0.207692
vn -0.955891 -0.207692 0.207692
vn -0.916251 -0.28327 0.28327
vn -0.916251 -0.28327 -0.28327
vn -0.955891 -0.207692 -0.207692
vn -0.955891 0.207692 0.207692
vn -0.916251 0.28327 0.28327
vn -0.916251 -0.28327 0.28327
vn -0.955891 -0.207692 0.207692
vn -0.955891 0.207692 -0.207692
vn -0.916251 0.28327 -0.28327
vn -0.916251 0.28327 0.28327
vn -0.955891 0.207692 0.207692
vn 0.207692 -0.207692 -0.955891
vn 0.28327 -0.28327 -0.916251
vn 0.28327 0.28327 -0.916251
vn 0.207692 0.207692 -0.955891
vn -0.207692 -0.207692 -0.955891
vn -0.28327 -0.28327 -0.916251
vn 0.28327 -0.28327 -0.916251
vn 0.207692 -0.207692 -0.955891
vn -0.207692 0.207692 -0.955891
vn -0.28327 0.28327 -0.916251
vn -0.28327 -0.28327 -0.916251
vn -0.207692 -0.207692 -0.955891
vn 0.207692 0.207692 -0.955891
vn 0.28327 0.28327 -0.916251
vn -0.28327 0.28327 -0.916251
vn -0.207692 0.207692 -0.955891
# 288 vertex normals

usemtl wood
f 5/5/5 6/6/6 8/7/7 7/8/8
f 7/9/9 8/10/10 10/11/11 9/12/12
f 9/13/13 10/14/14 12/15/15 11/16/16
f 11/17/17 12/18/18 6/19/19 5/20/20
usemtl TEAM
f 42/21/21 39/22/22 38/23/23 40/24/24
f 41/25/25 39/26/26 42/27/27 44/28/28
f 43/29/29 41/30/30 44/31/31 37/32/32
usemtl wood
f 18/33/33 47/34/34 51/35/35 19/36/36
f 23/37/37 27/38/38 5/39/39 7/40/40
f 11/41/41 5/42/42 27/43/43 22/44/44
f 28/45/45 23/46/46 7/47/47 9/48/48
f 9/49/49 11/50/50 22/51/51 28/52/52
f 6/53/53 13/54/54 14/55/55 8/56/56
f 8/57/57 14/58/58 15/59/59 10/60/60
f 10/61/61 15/62/62 16/63/63 12/64/64
f 12/65/65 16/66/66 13/67/67 6/68/68
usemtl rubber
f 73/69/69 74/70/70 75/71/71 76/72/72
f 77/73/73 78/74/74 79/75/75 80/76/76
f 81/77/77 82/78/78 83/79/79 84/80/80
usemtl wood
f 55/81/81 70/82/82 69/83/83 53/84/84
f 34/85/85 30/86/86 29/87/87 33/88/88
f 30/89/89 34/90/90 35/91/91 31/92/92
f 31/93/93 35/94/94 36/95/95 32/96/96
f 32/97/97 36/98/98 33/99/99 29/100/100
usemtl TEAM
f 37/101/101 40/102/102 38/103/103 43/104/104
usemtl wood
f 24/105/105 52/106/106 50/107/107 26/108/108
f 17/109/109 46/110/110 47/111/111 18/112/112
f 26/113/113 50/114/114 49/115/115 21/116/116
f 21/117/117 49/118/118 48/119/119 25/120/120
f 20/121/121 45/122/122 46/123/123 17/124/124
f 19/125/125 51/126/126 45/127/127 20/128/128
f 25/129/129 48/130/130 52/131/131 24/132/132
usemtl TEAM
f 47/133/133 39/134/134 41/135/135 51/136/136
f 52/137/137 44/138/138 42/139/139 50/140/140
f 46/141/141 38/142/142 39/143/143 47/144/144
f 50/145/145 42/146/146 40/147/147 49/148/148
f 49/149/149 40/150/150 37/151/151 48/152/152
f 45/153/153 43/154/154 38/155/155 46/156/156
f 51/157/157 41/158/158 43/159/159 45/160/160
f 48/161/161 37/162/162 44/163/163 52/164/164
usemtl wood
f 13/165/165 53/166/166 54/167/167 14/168/168
f 14/169/169 54/170/170 56/171/171 18/172/172
f 18/173/173 56/174/174 55/175/175 17/176/176
f 17/177/177 55/178/178 53/179/179 13/180/180
f 14/181/181 57/182/182 58/183/183 15/184/184
f 15/185/185 58/186/186 60/187/187 19/188/188
f 19/189/189 60/190/190 59/191/191 18/192/192
f 18/193/193 59/194/194 57/195/195 14/196/196
f 15/197/197 61/198/198 62/199/199 16/200/200
f 16/201/201 62/202/202 64/203/203 20/204/204
f 20/205/205 64/206/206 63/207/207 19/208/208
f 19/209/209 63/210/210 61/211/211 15/212/212
f 16/213/213 66/214/214 65/215/215 13/216/216
f 13/217/217 65/218/218 67/219/219 17/220/220
f 17/221/221 67/222/222 68/223/223 20/224/224
f 20/225/225 68/226/226 66/227/227 16/228/228
usemtl rubber
f 69/229/229 70/230/230 71/231/231 72/232/232
usemtl wood
f 56/233/233 71/234/234 70/235/235 55/236/236
f 54/237/237 72/238/238 71/239/239 56/240/240
f 53/241/241 69/242/242 72/243/243 54/244/244
f 59/245/245 74/246/246 73/247/247 57/248/248
f 60/249/249 75/250/250 74/251/251 59/252/252
f 58/253/253 76/254/254 75/255/255 60/256/256
f 57/257/257 73/258/258 76/259/259 58/260/260
f 63/261/261 78/262/262 77/263/263 61/264/264
f 64/265/265 79/266/266 78/267/267 63/268/268
f 62/269/269 80/270/270 79/271/271 64/272/272
f 61/273/273 77/274/274 80/275/275 62/276/276
f 68/277/277 82/278/278 81/279/279 66/280/280
f 67/281/281 83/282/282 82/283/283 68/284/284
f 65/285/285 84/286/286 83/287/287 67/288/288
f 66/289/289 81/290/290 84/291/291 65/292/292
# 72 facets

