#  ==========================================================================
#  
#  Wavefront OBJ format exported by Red-i Productions' "Riptide Pro"
#     (a commercial plugin for Cinema 4D PC & Mac, R9.6 or later)
#  
#  Red-i Productions
#  http://skinprops.com
#  
#  ==========================================================================
mtllib missile.mtl
v -1.74886 0.00208012 0.325392
v -1.74886 0.00208012 -0.325392
v -1.17092 0.00208012 2.9852e-017
# 3 vertices

vt 0.41460 0.58585
vt 0.50000 0.43417
vt 0.58540 0.58585
# 3 texture coordinates

vn 6.93135e-017 1 -3.82857e-016
vn 6.93135e-017 1 -3.82857e-016
vn 6.93135e-017 1 -3.82857e-016
# 3 vertex normals

usemtl light_metal
f 1/1/1 3/2/2 2/3/3
# 1 facets

v -1.88559 0.00208012 -1.55488e-016
v -0.00691565 0.00208012 2.16715e-016
v -1.88559 0.00208012 -0.196086
v -1.88559 0.00208012 -0.196086
v -0.25314 0.00208012 -0.0859473
v -0.25314 0.00208012 -0.0859473
v -1.88559 -0.167736 -0.0980432
v -1.88559 -0.167736 -0.0980432
v -0.25314 -0.0725709 -0.0429736
v -0.25314 -0.0725709 -0.0429736
v -1.88559 -0.167736 0.0980432
v -1.88559 -0.167736 0.0980432
v -0.25314 -0.0725709 0.0429736
v -0.25314 -0.0725709 0.0429736
v -1.88559 0.00208012 0.196086
v -1.88559 0.00208012 0.196086
v -0.25314 0.00208012 0.0859473
v -0.25314 0.00208012 0.0859473
v -1.88559 0.171896 0.0980432
v -1.88559 0.171896 0.0980432
v -0.25314 0.0767312 0.0429736
v -0.25314 0.0767312 0.0429736
v -1.88559 0.171896 -0.0980432
v -1.88559 0.171896 -0.0980432
v -0.25314 0.0767312 -0.0429736
v -0.25314 0.0767312 -0.0429736
v -0.2866 0.00208012 -0.0688412
v -0.2866 -0.059018 -0.0344206
v -0.2866 -0.059018 0.0344206
v -0.2866 0.00208012 0.0688412
v -0.2866 0.0631783 0.0344206
v -0.2866 0.0631783 -0.0344206
v -0.323866 0.00208012 -0.102754
v -0.323866 -0.085894 -0.0513771
v -0.323866 -0.085894 0.0513771
v -0.323866 0.00208012 0.102754
v -0.323866 0.0900543 0.0513771
v -0.323866 0.0900543 -0.0513771
v -1.75209 0.00208012 -0.196086
v -1.75209 -0.167736 -0.0980432
v -1.75209 -0.167736 0.0980432
v -1.75209 0.00208012 0.196086
v -1.75209 0.171896 0.0980432
v -1.75209 0.171896 -0.0980432
v -1.68097 0.00208012 -0.102754
v -1.68097 -0.085894 -0.0513771
v -1.68097 -0.085894 0.0513771
v -1.68097 0.00208012 0.102754
v -1.68097 0.0900543 0.0513771
v -1.68097 0.0900543 -0.0513771
v -0.216606 0.00208012 -0.0865164
v -0.216606 -0.0730652 -0.0432582
v -0.216606 -0.0730652 0.0432582
v -0.216606 0.00208012 0.0865164
v -0.216606 0.0772255 0.0432582
v -0.216606 0.0772255 -0.0432582
# 56 vertices

vt 0.50000 0.50000
vt 0.00000 0.50000
vt 0.25000 0.06699
vt 0.00000 1.00000
vt 0.00000 0.88822
vt 0.16667 0.88822
vt 0.16667 1.00000
vt 0.92581 0.50000
vt 0.50000 0.50000
vt 0.71291 0.13124
vt 0.50000 0.50000
vt 0.25000 0.06699
vt 0.75000 0.06699
vt 0.16667 0.03730
vt 0.16667 0.00000
vt 0.33333 0.00000
vt 0.33333 0.03730
vt 0.71291 0.13124
vt 0.50000 0.50000
vt 0.28709 0.13124
vt 0.50000 0.50000
vt 0.75000 0.06699
vt 1.00000 0.50000
vt 0.33333 0.06851
vt 0.33333 0.03730
vt 0.50000 0.03730
vt 0.50000 0.06851
vt 0.28709 0.13124
vt 0.50000 0.50000
vt 0.07419 0.50000
vt 0.50000 0.50000
vt 1.00000 0.50000
vt 0.75000 0.93301
vt 0.50000 0.03730
vt 0.50000 0.00000
vt 0.66667 0.00000
vt 0.66667 0.03730
vt 0.07419 0.50000
vt 0.50000 0.50000
vt 0.28709 0.86876
vt 0.50000 0.50000
vt 0.75000 0.93301
vt 0.25000 0.93301
vt 0.66667 0.06851
vt 0.66667 0.03730
vt 0.83333 0.03730
vt 0.83333 0.06851
vt 0.28709 0.86876
vt 0.50000 0.50000
vt 0.71291 0.86876
vt 0.50000 0.50000
vt 0.25000 0.93301
vt 0.00000 0.50000
vt 0.83333 0.03730
vt 0.83333 0.00000
vt 1.00000 0.00000
vt 1.00000 0.03730
vt 0.71291 0.86876
vt 0.50000 0.50000
vt 0.92581 0.50000
vt 0.00000 0.03730
vt 0.00000 0.00000
vt 0.16667 0.00000
vt 0.16667 0.03730
vt 0.33333 0.03730
vt 0.33333 0.06851
vt 0.16667 0.06851
vt 0.16667 0.03730
vt 0.33333 0.03730
vt 0.33333 0.00000
vt 0.50000 0.00000
vt 0.50000 0.03730
vt 0.66667 0.03730
vt 0.66667 0.06851
vt 0.50000 0.06851
vt 0.50000 0.03730
vt 0.66667 0.03730
vt 0.66667 0.00000
vt 0.83333 0.00000
vt 0.83333 0.03730
vt 1.00000 0.03730
vt 1.00000 0.06851
vt 0.83333 0.06851
vt 0.83333 0.03730
vt 0.00000 0.06851
vt 0.00000 0.03730
vt 0.16667 0.03730
vt 0.16667 0.06851
vt 0.50000 0.88822
vt 0.50000 1.00000
vt 0.33333 1.00000
vt 0.33333 0.88822
vt 0.83333 0.88822
vt 0.83333 1.00000
vt 0.66667 1.00000
vt 0.66667 0.88822
vt 0.33333 0.06851
vt 0.33333 0.82866
vt 0.16667 0.82866
vt 0.16667 0.06851
vt 0.66667 0.82866
vt 0.66667 0.88822
vt 0.50000 0.88822
vt 0.50000 0.82866
vt 1.00000 0.82866
vt 1.00000 0.88822
vt 0.83333 0.88822
vt 0.83333 0.82866
vt 0.00000 0.88822
vt 0.00000 0.82866
vt 0.16667 0.82866
vt 0.16667 0.88822
vt 0.33333 0.88822
vt 0.33333 0.82866
vt 0.50000 0.82866
vt 0.50000 0.88822
vt 0.66667 0.88822
vt 0.66667 0.82866
vt 0.83333 0.82866
vt 0.83333 0.88822
vt 0.33333 0.88822
vt 0.33333 1.00000
vt 0.16667 1.00000
vt 0.16667 0.88822
vt 0.66667 0.88822
vt 0.66667 1.00000
vt 0.50000 1.00000
vt 0.50000 0.88822
vt 1.00000 0.88822
vt 1.00000 1.00000
vt 0.83333 1.00000
vt 0.83333 0.88822
vt 0.33333 0.82866
vt 0.33333 0.88822
vt 0.16667 0.88822
vt 0.16667 0.82866
vt 0.50000 0.82866
vt 0.50000 0.06851
vt 0.66667 0.06851
vt 0.66667 0.82866
vt 0.83333 0.82866
vt 0.83333 0.06851
vt 1.00000 0.06851
vt 1.00000 0.82866
vt 0.00000 0.82866
vt 0.00000 0.06851
vt 0.16667 0.06851
vt 0.16667 0.82866
vt 0.33333 0.82866
vt 0.33333 0.06851
vt 0.50000 0.06851
vt 0.50000 0.82866
vt 0.66667 0.82866
vt 0.66667 0.06851
vt 0.83333 0.06851
vt 0.83333 0.82866
vt 0.71291 0.13124
vt 0.75000 0.06699
vt 1.00000 0.50000
vt 0.92581 0.50000
vt 0.28709 0.13124
vt 0.25000 0.06699
vt 0.75000 0.06699
vt 0.71291 0.13124
vt 0.07419 0.50000
vt 0.00000 0.50000
vt 0.25000 0.06699
vt 0.28709 0.13124
vt 0.28709 0.86876
vt 0.25000 0.93301
vt 0.00000 0.50000
vt 0.07419 0.50000
vt 0.71291 0.86876
vt 0.75000 0.93301
vt 0.25000 0.93301
vt 0.28709 0.86876
vt 0.92581 0.50000
vt 1.00000 0.50000
vt 0.75000 0.93301
vt 0.71291 0.86876
# 180 texture coordinates

vn -1 -1.46579e-031 -2.60392e-016
vn -1 -1.46579e-031 -2.60392e-016
vn -1 -1.46579e-031 -2.60392e-016
vn 2.60392e-016 -3.82857e-016 -1
vn 0.463719 -0.000169065 -0.885982
vn 0.464352 -0.766906 -0.442981
vn 1.30196e-016 -0.866025 -0.5
vn 0.18863 8.69686e-009 -0.982048
vn 1 -1.47427e-008 2.60392e-016
vn 0.189017 -0.850085 -0.491556
vn -1 -1.46579e-031 -2.60392e-016
vn -1 -1.46579e-031 -2.60392e-016
vn -1 -1.46579e-031 -2.60392e-016
vn 0.141197 -0.858701 -0.492642
vn -0.435771 -0.779406 -0.450144
vn -0.436693 -0.779133 0.449723
vn 0.139502 -0.85875 0.493039
vn 0.189017 -0.850085 -0.491556
vn 1 -1.47427e-008 2.60392e-016
vn 0.189017 -0.850085 0.491556
vn -1 -1.46579e-031 -2.60392e-016
vn -1 -1.46579e-031 -2.60392e-016
vn -1 -1.46579e-031 -2.60392e-016
vn 0.357162 -0.810596 0.464079
vn 0.139502 -0.85875 0.493039
vn 0.142136 -0.000276153 0.989847
vn 0.36652 -0.000350028 0.93041
vn 0.189017 -0.850085 0.491556
vn 1 -1.47427e-008 2.60392e-016
vn 0.18863 -8.69686e-009 0.982048
vn -1 -1.46579e-031 -2.60392e-016
vn -1 -1.46579e-031 -2.60392e-016
vn -1 -1.46579e-031 -2.60392e-016
vn 0.142136 -0.000276153 0.989847
vn -0.446286 0.000189909 0.894891
vn -0.435771 0.779406 0.450144
vn 0.141197 0.858701 0.492642
vn 0.18863 -8.69686e-009 0.982048
vn 1 -1.47427e-008 2.60392e-016
vn 0.189017 0.850085 0.491556
vn -1 -1.46579e-031 -2.60392e-016
vn -1 -1.46579e-031 -2.60392e-016
vn -1 -1.46579e-031 -2.60392e-016
vn 0.35823 0.810445 0.46352
vn 0.141197 0.858701 0.492642
vn 0.139502 0.85875 -0.493039
vn 0.357162 0.810596 -0.464079
vn 0.189017 0.850085 0.491556
vn 1 -1.47427e-008 2.60392e-016
vn 0.189017 0.850085 -0.491556
vn -1 -1.46579e-031 -2.60392e-016
vn -1 -1.46579e-031 -2.60392e-016
vn -1 -1.46579e-031 -2.60392e-016
vn 0.139502 0.85875 -0.493039
vn -0.436693 0.779133 -0.449723
vn -0.446286 -0.000189909 -0.894891
vn 0.142136 0.000276143 -0.989847
vn 0.189017 0.850085 -0.491556
vn 1 -1.47427e-008 2.60392e-016
vn 0.18863 8.69686e-009 -0.982048
vn 0.142136 0.000276143 -0.989847
vn -0.446286 -0.000189909 -0.894891
vn -0.435771 -0.779406 -0.450144
vn 0.141197 -0.858701 -0.492642
vn 0.139502 -0.85875 0.493039
vn 0.357162 -0.810596 0.464079
vn 0.35823 -0.810445 -0.46352
vn 0.141197 -0.858701 -0.492642
vn 0.139502 -0.85875 0.493039
vn -0.436693 -0.779133 0.449723
vn -0.446286 0.000189909 0.894891
vn 0.142136 -0.000276153 0.989847
vn 0.141197 0.858701 0.492642
vn 0.35823 0.810445 0.46352
vn 0.36652 -0.000350028 0.93041
vn 0.142136 -0.000276153 0.989847
vn 0.141197 0.858701 0.492642
vn -0.435771 0.779406 0.450144
vn -0.436693 0.779133 -0.449723
vn 0.139502 0.85875 -0.493039
vn 0.142136 0.000276143 -0.989847
vn 0.36652 0.000350019 -0.93041
vn 0.357162 0.810596 -0.464079
vn 0.139502 0.85875 -0.493039
vn 0.36652 0.000350019 -0.93041
vn 0.142136 0.000276143 -0.989847
vn 0.141197 -0.858701 -0.492642
vn 0.35823 -0.810445 -0.46352
vn 0.463719 0.000169074 0.885982
vn -2.60392e-016 3.82857e-016 1
vn -1.30196e-016 -0.866025 0.5
vn 0.4647 -0.76683 0.442749
vn 0.4647 0.76683 -0.442749
vn 1.30196e-016 0.866025 -0.5
vn -1.30196e-016 0.866025 0.5
vn 0.464352 0.766906 0.442981
vn 0.357162 -0.810596 0.464079
vn 0.464385 -0.767636 0.44168
vn 0.464038 -0.767713 -0.441912
vn 0.35823 -0.810445 -0.46352
vn 0.464038 0.767713 0.441912
vn 0.464352 0.766906 0.442981
vn 0.463719 0.000169074 0.885982
vn 0.464353 0.000169305 0.88565
vn 0.464353 -0.000169305 -0.88565
vn 0.463719 -0.000169065 -0.885982
vn 0.4647 0.76683 -0.442749
vn 0.464385 0.767636 -0.44168
vn 0.463719 -0.000169065 -0.885982
vn 0.464353 -0.000169305 -0.88565
vn 0.464038 -0.767713 -0.441912
vn 0.464352 -0.766906 -0.442981
vn 0.4647 -0.76683 0.442749
vn 0.464385 -0.767636 0.44168
vn 0.464353 0.000169305 0.88565
vn 0.463719 0.000169074 0.885982
vn 0.464352 0.766906 0.442981
vn 0.464038 0.767713 0.441912
vn 0.464385 0.767636 -0.44168
vn 0.4647 0.76683 -0.442749
vn 0.4647 -0.76683 0.442749
vn -1.30196e-016 -0.866025 0.5
vn 1.30196e-016 -0.866025 -0.5
vn 0.464352 -0.766906 -0.442981
vn 0.464352 0.766906 0.442981
vn -1.30196e-016 0.866025 0.5
vn -2.60392e-016 3.82857e-016 1
vn 0.463719 0.000169074 0.885982
vn 0.463719 -0.000169065 -0.885982
vn 2.60392e-016 -3.82857e-016 -1
vn 1.30196e-016 0.866025 -0.5
vn 0.4647 0.76683 -0.442749
vn 0.464385 -0.767636 0.44168
vn 0.4647 -0.76683 0.442749
vn 0.464352 -0.766906 -0.442981
vn 0.464038 -0.767713 -0.441912
vn 0.464353 0.000169305 0.88565
vn 0.36652 -0.000350028 0.93041
vn 0.35823 0.810445 0.46352
vn 0.464038 0.767713 0.441912
vn 0.464385 0.767636 -0.44168
vn 0.357162 0.810596 -0.464079
vn 0.36652 0.000350019 -0.93041
vn 0.464353 -0.000169305 -0.88565
vn 0.464353 -0.000169305 -0.88565
vn 0.36652 0.000350019 -0.93041
vn 0.35823 -0.810445 -0.46352
vn 0.464038 -0.767713 -0.441912
vn 0.464385 -0.767636 0.44168
vn 0.357162 -0.810596 0.464079
vn 0.36652 -0.000350028 0.93041
vn 0.464353 0.000169305 0.88565
vn 0.464038 0.767713 0.441912
vn 0.35823 0.810445 0.46352
vn 0.357162 0.810596 -0.464079
vn 0.464385 0.767636 -0.44168
vn 0.189017 -0.850085 -0.491556
vn -0.0156111 -0.865603 -0.500488
vn -0.0155767 1.71933e-008 -0.999879
vn 0.18863 8.69686e-009 -0.982048
vn 0.189017 -0.850085 0.491556
vn -0.015611 -0.865603 0.500488
vn -0.0156111 -0.865603 -0.500488
vn 0.189017 -0.850085 -0.491556
vn 0.18863 -8.69686e-009 0.982048
vn -0.0155767 -1.71933e-008 0.999879
vn -0.015611 -0.865603 0.500488
vn 0.189017 -0.850085 0.491556
vn 0.189017 0.850085 0.491556
vn -0.0156111 0.865603 0.500488
vn -0.0155767 -1.71933e-008 0.999879
vn 0.18863 -8.69686e-009 0.982048
vn 0.189017 0.850085 -0.491556
vn -0.015611 0.865603 -0.500488
vn -0.0156111 0.865603 0.500488
vn 0.189017 0.850085 0.491556
vn 0.18863 8.69686e-009 -0.982048
vn -0.0155767 1.71933e-008 -0.999879
vn -0.015611 0.865603 -0.500488
vn 0.189017 0.850085 -0.491556
# 180 vertex normals

usemtl light_metal
f 4/4/4 6/5/5 10/6/6
f 7/7/7 42/8/8 43/9/9 11/10/10
usemtl TEAM
f 54/11/11 5/12/12 55/13/13
usemtl light_metal
f 4/14/14 10/15/15 14/16/16
f 31/17/17 12/18/18 16/19/19 32/20/20
usemtl TEAM
f 55/21/21 5/22/22 56/23/23
usemtl light_metal
f 4/24/24 14/25/25 18/26/26
f 38/27/27 32/28/28 33/29/29 39/30/30
usemtl TEAM
f 56/31/31 5/32/32 57/33/33
usemtl light_metal
f 4/34/34 18/35/35 22/36/36
f 33/37/37 20/38/38 24/39/39 34/40/40
usemtl TEAM
f 57/41/41 5/42/42 58/43/43
usemtl light_metal
f 4/44/44 22/45/45 26/46/46
f 40/47/47 34/48/48 35/49/49 41/50/50
usemtl TEAM
f 58/51/51 5/52/52 59/53/53
usemtl light_metal
f 4/54/54 26/55/55 6/56/56
f 35/57/57 28/58/58 8/59/59 30/60/60
usemtl TEAM
f 59/61/61 5/62/62 54/63/63
usemtl light_metal
f 30/64/64 8/65/65 12/66/66 31/67/67
f 32/68/68 38/69/69 37/70/70 31/71/71
f 32/72/72 16/73/73 20/74/74 33/75/75
f 34/76/76 40/77/77 39/78/78 33/79/79
f 34/80/80 24/81/81 28/82/82 35/83/83
f 30/84/84 36/85/85 41/86/86 35/87/87
f 36/88/88 30/89/89 31/90/90 37/91/91
f 45/92/92 19/93/93 15/94/94 44/95/95
f 47/96/96 27/97/97 23/98/98 46/99/99
usemtl TEAM
f 38/100/100 50/101/101 49/102/102 37/103/103
usemtl light_metal
f 52/104/104 46/105/105 45/106/106 51/107/107
f 48/108/108 42/109/109 47/110/110 53/111/111
f 42/112/112 48/113/113 49/114/114 43/115/115
f 44/116/116 50/117/117 51/118/118 45/119/119
f 46/120/120 52/121/121 53/122/122 47/123/123
f 44/124/124 15/125/125 11/126/126 43/127/127
f 46/128/128 23/129/129 19/130/130 45/131/131
f 42/132/132 7/133/133 27/134/134 47/135/135
usemtl TEAM
f 50/136/136 44/137/137 43/138/138 49/139/139
f 51/140/140 39/141/141 40/142/142 52/143/143
f 53/144/144 41/145/145 36/146/146 48/147/147
f 48/148/148 36/149/149 37/150/150 49/151/151
f 50/152/152 38/153/153 39/154/154 51/155/155
f 52/156/156 40/157/157 41/158/158 53/159/159
usemtl light_metal
f 55/160/160 13/161/161 9/162/162 54/163/163
f 56/164/164 17/165/165 13/166/166 55/167/167
f 57/168/168 21/169/169 17/170/170 56/171/171
f 58/172/172 25/173/173 21/174/174 57/175/175
f 59/176/176 29/177/177 25/178/178 58/179/179
f 54/180/180 9/181/181 29/182/182 59/183/183
# 48 facets

