# Blender v2.73 (sub 0) OBJ File: 'missile.blend'
# www.blender.org
o Cylinder
v 0.626746 1.125000 0.000000
v -1.000000 1.125000 -0.000000
v 0.626746 1.088388 0.088388
v -1.000000 1.088388 0.088388
v 0.626746 1.000000 0.125000
v -1.000000 1.000000 0.125000
v 0.626746 0.911612 0.088388
v -1.000000 0.911612 0.088388
v 0.626746 0.875000 0.000000
v -1.000000 0.875000 -0.000000
v 0.626746 0.911612 -0.088388
v -1.000000 0.911612 -0.088388
v 0.626746 1.000000 -0.125000
v -1.000000 1.000000 -0.125000
v 0.626746 1.088388 -0.088388
v -1.000000 1.088388 -0.088388
v 0.819049 1.056971 -0.000000
v 0.819049 1.040285 0.040285
v 0.819049 1.000000 0.056971
v 0.819049 0.959715 0.040285
v 0.819049 0.943029 -0.000000
v 0.819049 0.959716 -0.040285
v 0.819049 1.000000 -0.056971
v 0.819049 1.040285 -0.040285
v 1.008809 1.025257 0.000000
v 1.008809 1.017859 0.017859
v 1.008809 1.000000 0.025257
v 1.008809 0.982141 0.017859
v 1.008809 0.974743 0.000000
v 1.008809 0.982141 -0.017859
v 1.008809 1.000000 -0.025257
v 1.008809 1.017859 -0.017859
vn -0.000000 0.923900 0.382700
vn -0.000000 0.382700 0.923900
vn -0.000000 -0.382700 0.923900
vn 0.000000 -0.923900 0.382700
vn 0.000000 -0.923900 -0.382700
vn 0.000000 -0.382700 -0.923900
vn -1.000000 0.000000 0.000000
vn 0.000000 0.923900 -0.382700
vn 0.000000 0.382700 -0.923900
vn 0.310700 0.878200 -0.363700
vn 0.152600 0.913100 -0.378200
vn 0.310700 0.363700 -0.878200
vn 0.310700 -0.363700 -0.878200
vn 0.310700 -0.878200 -0.363700
vn 0.310700 -0.878200 0.363700
vn 0.310700 -0.363700 0.878200
vn 0.310700 0.363700 0.878200
vn 0.310700 0.878200 0.363700
vn 1.000000 0.000000 0.000000
vn 0.152600 0.378200 -0.913100
vn 0.152600 -0.378200 -0.913100
vn 0.152600 -0.913100 -0.378200
vn 0.152600 -0.913100 0.378200
vn 0.152600 -0.378200 0.913100
vn 0.152600 0.378200 0.913100
vn 0.152600 0.913100 0.378200
s off
f 1//1 2//1 4//1 3//1
f 3//2 4//2 6//2 5//2
f 5//3 6//3 8//3 7//3
f 7//4 8//4 10//4 9//4
f 9//5 10//5 12//5 11//5
f 11//6 12//6 14//6 13//6
f 4//7 2//7 16//7 14//7 12//7 10//7 8//7 6//7
f 15//8 16//8 2//8 1//8
f 13//9 14//9 16//9 15//9
f 15//10 1//10 17//10 24//10
f 24//11 17//11 25//11 32//11
f 13//12 15//12 24//12 23//12
f 11//13 13//13 23//13 22//13
f 9//14 11//14 22//14 21//14
f 7//15 9//15 21//15 20//15
f 5//16 7//16 20//16 19//16
f 3//17 5//17 19//17 18//17
f 1//18 3//18 18//18 17//18
f 25//19 26//19 27//19 28//19 29//19 30//19 31//19 32//19
f 23//20 24//20 32//20 31//20
f 22//21 23//21 31//21 30//21
f 21//22 22//22 30//22 29//22
f 20//23 21//23 29//23 28//23
f 19//24 20//24 28//24 27//24
f 18//25 19//25 27//25 26//25
f 17//26 18//26 26//26 25//26
