#  ==========================================================================
#  
#  Wavefront OBJ format exported by Red-i Productions' "Riptide Pro"
#     (a commercial plugin for Cinema 4D PC & Mac, R9.6 or later)
#  
#  Red-i Productions
#  http://skinprops.com
#  
#  ==========================================================================
mtllib supply.mtl
v 1 0.005 1
v -1 0.005 1
v 1 0.005 -1
v -1 0.005 -1
# 4 vertices

vt 0.00000 1.00000
vt 0.00000 0.00000
vt 1.00000 0.00000
vt 1.00000 1.00000
# 4 texture coordinates

vn 0 1 0
vn 0 1 0
vn 0 1 0
vn 0 1 0
# 4 vertex normals

usemtl floor
f 1/1/1 3/2/2 4/3/3 2/4/4
# 1 facets

v -0.701859 0.0102598 -0.681101
v -0.701859 0.692349 -0.681101
v -0.0817779 0.0102598 -0.681101
v -0.0817779 0.692349 -0.681101
v -0.0817779 0.0102598 0.674318
v -0.0817779 0.692349 0.674318
v -0.700119 0.0102598 0.676074
v -0.700119 0.692349 0.676074
v -0.382682 0.0102598 0.674318
v -0.385886 0.692349 0.674318
v -0.432771 0.692349 0.865382
v -0.42976 0.0102598 0.866478
v -0.599716 0.692349 -0.584274
v -0.183776 0.692349 -0.584274
v -0.183776 0.692349 0.577458
v -0.598186 0.692349 0.578614
v -0.385892 0.692349 0.577458
# 17 vertices

vt 0.30252 0.50000
vt 0.30252 0.06555
vt 0.69748 0.06555
vt 0.69748 0.50000
vt 0.06834 0.50000
vt 0.06834 0.06555
vt 0.93166 0.06555
vt 0.93166 0.50000
vt 0.52608 0.06555
vt 0.69637 0.06555
vt 0.69637 0.50000
vt 0.52417 0.50000
vt 0.06722 0.50000
vt 0.06722 0.06555
vt 0.93166 0.06555
vt 0.93166 0.50000
vt 0.50261 0.17050
vt 0.59109 0.17050
vt 0.59109 0.82944
vt 0.30363 0.93278
vt 0.30252 0.06834
vt 0.50582 0.93166
vt 0.40900 0.82944
vt 0.40967 0.16984
vt 0.50261 0.17050
vt 0.69748 0.06834
vt 0.69748 0.93166
vt 0.50582 0.93166
vt 0.49418 0.50000
vt 0.30252 0.50000
vt 0.30252 0.06555
vt 0.49622 0.06555
vt 0.50261 0.17050
vt 0.59109 0.82944
vt 0.40900 0.82944
vt 0.50582 0.93166
vt 0.30252 0.06834
vt 0.69748 0.06834
vt 0.69748 0.93166
vt 0.59109 0.82944
vt 0.59109 0.17050
vt 0.69748 0.06834
vt 0.69748 0.06834
vt 0.59109 0.17050
vt 0.50261 0.17050
vt 0.50378 0.06834
vt 0.50378 0.06834
vt 0.50261 0.17050
vt 0.40967 0.16984
vt 0.30363 0.06722
vt 0.30363 0.06722
vt 0.40967 0.16984
vt 0.40900 0.82944
vt 0.30252 0.93166
vt 0.30252 0.93166
vt 0.40900 0.82944
vt 0.59109 0.82944
vt 0.69748 0.93166
# 58 texture coordinates

vn -0.408335 -0.816671 -0.407812
vn -0.408335 0.816671 -0.407812
vn 0.408248 0.816497 -0.408248
vn 0.408248 -0.816497 -0.408248
vn 0.408248 -0.816497 -0.408248
vn 0.408248 0.816497 -0.408248
vn 0.408248 0.816497 0.408248
vn 0.57735 -0.57735 0.57735
vn -0.57684 -0.000616961 0.816857
vn -0.589568 0.747554 0.305896
vn -0.773387 -0.490769 0.40127
vn -0.57684 -0.000616961 0.816857
vn -0.773387 -0.490769 0.40127
vn -0.589568 0.747554 0.305896
vn -0.408335 0.816671 -0.407812
vn -0.408335 -0.816671 -0.407812
vn 0 1 0
vn 0 1 0
vn 0 1 0
vn -0.773387 -0.490769 0.40127
vn -0.408335 -0.816671 -0.407812
vn 0 -0.948683 0.316228
vn 0 1 0
vn 0 1 0
vn 0 1 0
vn 0.408248 -0.816497 -0.408248
vn 0.57735 -0.57735 0.57735
vn 0 -0.948683 0.316228
vn 0 -0.948683 0.316228
vn 0.57735 -0.57735 0.57735
vn 0.408248 0.816497 0.408248
vn 0 0.894427 0.447214
vn 0 1 0
vn 0 1 0
vn 0 1 0
vn 0 -0.948683 0.316228
vn -0.408335 -0.816671 -0.407812
vn 0.408248 -0.816497 -0.408248
vn 0.408248 0.816497 -0.408248
vn 0 1 0
vn 0 1 0
vn 0.408248 0.816497 0.408248
vn 0.408248 0.816497 0.408248
vn 0 1 0
vn 0 1 0
vn 0 0.894427 0.447214
vn 0 0.894427 0.447214
vn 0 1 0
vn 0 1 0
vn -0.589568 0.747554 0.305896
vn -0.589568 0.747554 0.305896
vn 0 1 0
vn 0 1 0
vn -0.408335 0.816671 -0.407812
vn -0.408335 0.816671 -0.407812
vn 0 1 0
vn 0 1 0
vn 0.408248 0.816497 -0.408248
# 58 vertex normals

usemtl light_metal
f 5/5/5 6/6/6 8/7/7 7/8/8
f 7/9/9 8/10/10 10/11/11 9/12/12
f 15/13/13 12/14/14 11/15/15 16/16/16
f 11/17/17 12/18/18 6/19/19 5/20/20
usemtl TEAM
f 21/21/21 19/22/22 18/23/23
usemtl light_metal
f 11/24/24 5/25/25 13/26/26
usemtl TEAM
f 17/27/27 20/28/28 21/29/29
usemtl light_metal
f 7/30/30 9/31/31 13/32/32
f 13/33/33 9/34/34 10/35/35 14/36/36
usemtl TEAM
f 21/37/37 18/38/38 17/39/39
usemtl light_metal
f 13/40/40 5/41/41 7/42/42
f 8/43/43 18/44/44 19/45/45 10/46/46
f 10/47/47 19/48/48 21/49/49 14/50/50
f 14/51/51 21/52/52 20/53/53 12/54/54
f 12/55/55 20/56/56 17/57/57 6/58/58
f 6/59/59 17/60/60 18/61/61 8/62/62
# 16 facets

v 0.0606293 0.0102598 -0.546263
v 0.0606293 0.692349 -0.546263
v 0.680027 0.0102598 -0.575364
v 0.680027 0.692349 -0.575364
v 0.743638 0.0102598 0.778561
v 0.743638 0.692349 0.778561
v 0.124241 0.0102598 0.807662
v 0.124241 0.692349 0.807662
v 0.171513 0.692349 -0.446127
v 0.579021 0.692349 -0.465273
v 0.632755 0.692349 0.678426
v 0.225247 0.692349 0.697572
# 12 vertices

vt 0.29762 0.50000
vt 0.29762 0.05477
vt 0.70238 0.05477
vt 0.70238 0.50000
vt 0.05763 0.50000
vt 0.05763 0.05477
vt 0.94237 0.05477
vt 0.94237 0.50000
vt 0.70238 0.05477
vt 0.70238 0.50000
vt 0.29762 0.50000
vt 0.29762 0.05477
vt 0.05763 0.50000
vt 0.05763 0.05477
vt 0.94237 0.05477
vt 0.94237 0.50000
vt 0.69552 0.23167
vt 0.30448 0.23167
vt 0.19552 0.23167
vt 0.80448 0.23167
vt 0.29762 0.94237
vt 0.29762 0.05763
vt 0.70238 0.05763
vt 0.70238 0.94237
vt 0.29762 0.94237
vt 0.40310 0.83796
vt 0.59690 0.83796
vt 0.70238 0.94237
vt 0.70238 0.94237
vt 0.59690 0.83796
vt 0.59690 0.16204
vt 0.70238 0.05763
vt 0.70238 0.05763
vt 0.59690 0.16204
vt 0.40310 0.16204
vt 0.29762 0.05763
vt 0.29762 0.05763
vt 0.40310 0.16204
vt 0.40310 0.83796
vt 0.29762 0.94237
# 40 texture coordinates

vn -0.60381 -0.57735 -0.549618
vn -0.426958 0.816497 -0.388639
vn 0.388639 0.816497 -0.426958
vn 0.549618 -0.57735 -0.60381
vn 0.549618 -0.57735 -0.60381
vn 0.388639 0.816497 -0.426958
vn 0.426958 0.816497 0.388639
vn 0.60381 -0.57735 0.549618
vn -0.388639 0.816497 0.426958
vn -0.549618 -0.57735 0.60381
vn 0.60381 -0.57735 0.549618
vn 0.426958 0.816497 0.388639
vn -0.549618 -0.57735 0.60381
vn -0.388639 0.816497 0.426958
vn -0.426958 0.816497 -0.388639
vn -0.60381 -0.57735 -0.549618
vn -1.86902e-015 1 -1.7148e-015
vn -1.70001e-015 1 1.88248e-015
vn 1.86902e-015 1 1.7148e-015
vn 1.70001e-015 1 -1.88248e-015
vn -0.549618 -0.57735 0.60381
vn -0.60381 -0.57735 -0.549618
vn 0.549618 -0.57735 -0.60381
vn 0.60381 -0.57735 0.549618
vn -0.426958 0.816497 -0.388639
vn -1.86902e-015 1 -1.7148e-015
vn 1.70001e-015 1 -1.88248e-015
vn 0.388639 0.816497 -0.426958
vn 0.388639 0.816497 -0.426958
vn 1.70001e-015 1 -1.88248e-015
vn 1.86902e-015 1 1.7148e-015
vn 0.426958 0.816497 0.388639
vn 0.426958 0.816497 0.388639
vn 1.86902e-015 1 1.7148e-015
vn -1.70001e-015 1 1.88248e-015
vn -0.388639 0.816497 0.426958
vn -0.388639 0.816497 0.426958
vn -1.70001e-015 1 1.88248e-015
vn -1.86902e-015 1 -1.7148e-015
vn -0.426958 0.816497 -0.388639
# 40 vertex normals

usemtl light_metal
f 22/63/63 23/64/64 25/65/65 24/66/66
f 24/67/67 25/68/68 27/69/69 26/70/70
f 29/71/71 28/72/72 26/73/73 27/74/74
f 28/75/75 29/76/76 23/77/77 22/78/78
usemtl TEAM
f 30/79/79 33/80/80 32/81/81 31/82/82
usemtl light_metal
f 28/83/83 22/84/84 24/85/85 26/86/86
f 23/87/87 30/88/88 31/89/89 25/90/90
f 25/91/91 31/92/92 32/93/93 27/94/94
f 27/95/95 32/96/96 33/97/97 29/98/98
f 29/99/99 33/100/100 30/101/101 23/102/102
# 10 facets

v -0.395572 0.710204 -0.886529
v -0.395572 1.39229 -0.886529
v 0.169102 0.710204 -0.630318
v 0.169102 1.39229 -0.630318
v -0.390942 0.710204 0.603988
v -0.390942 1.39229 0.603988
v -0.955616 0.710204 0.347777
v -0.955616 1.39229 0.347777
v -0.34815 1.39229 -0.761419
v 0.0437226 1.39229 -0.583614
v -0.438364 1.39229 0.478878
v -0.830236 1.39229 0.301074
# 12 vertices

vt 0.28847 0.71140
vt 0.28847 0.24604
vt 0.71153 0.24604
vt 0.71153 0.71140
vt 0.03762 0.71140
vt 0.03762 0.24604
vt 0.96238 0.24604
vt 0.96238 0.71140
vt 0.71153 0.24604
vt 0.71153 0.71140
vt 0.28847 0.71140
vt 0.28847 0.24604
vt 0.03762 0.71140
vt 0.03762 0.24604
vt 0.96238 0.24604
vt 0.96238 0.71140
vt 0.69376 0.23529
vt 0.30624 0.23529
vt 0.19376 0.23529
vt 0.80624 0.23529
vt 0.28847 0.96238
vt 0.28847 0.03762
vt 0.71153 0.03762
vt 0.71153 0.96238
vt 0.28847 0.96238
vt 0.39872 0.85325
vt 0.60128 0.85325
vt 0.71153 0.96238
vt 0.71153 0.96238
vt 0.60128 0.85325
vt 0.60128 0.14675
vt 0.71153 0.03762
vt 0.71153 0.03762
vt 0.60128 0.14675
vt 0.39872 0.14675
vt 0.28847 0.03762
vt 0.28847 0.03762
vt 0.39872 0.14675
vt 0.39872 0.85325
vt 0.28847 0.96238
# 40 texture coordinates

vn -0.287207 -0.57735 -0.764316
vn -0.203086 0.816497 -0.540453
vn 0.540453 0.816497 -0.203086
vn 0.764316 -0.57735 -0.287207
vn 0.764316 -0.57735 -0.287207
vn 0.540453 0.816497 -0.203086
vn 0.203086 0.816497 0.540453
vn 0.287207 -0.57735 0.764316
vn -0.540453 0.816497 0.203086
vn -0.764316 -0.57735 0.287207
vn 0.287207 -0.57735 0.764316
vn 0.203086 0.816497 0.540453
vn -0.764316 -0.57735 0.287207
vn -0.540453 0.816497 0.203086
vn -0.203086 0.816497 -0.540453
vn -0.287207 -0.57735 -0.764316
vn 4.94352e-016 1 1.32712e-015
vn 1.32426e-015 1 -5.01955e-016
vn -4.94352e-016 1 -1.32712e-015
vn -1.32426e-015 1 5.01955e-016
vn -0.764316 -0.57735 0.287207
vn -0.287207 -0.57735 -0.764316
vn 0.764316 -0.57735 -0.287207
vn 0.287207 -0.57735 0.764316
vn -0.203086 0.816497 -0.540453
vn 4.94352e-016 1 1.32712e-015
vn -1.32426e-015 1 5.01955e-016
vn 0.540453 0.816497 -0.203086
vn 0.540453 0.816497 -0.203086
vn -1.32426e-015 1 5.01955e-016
vn -4.94352e-016 1 -1.32712e-015
vn 0.203086 0.816497 0.540453
vn 0.203086 0.816497 0.540453
vn -4.94352e-016 1 -1.32712e-015
vn 1.32426e-015 1 -5.01955e-016
vn -0.540453 0.816497 0.203086
vn -0.540453 0.816497 0.203086
vn 1.32426e-015 1 -5.01955e-016
vn 4.94352e-016 1 1.32712e-015
vn -0.203086 0.816497 -0.540453
# 40 vertex normals

usemtl light_metal
f 34/103/103 35/104/104 37/105/105 36/106/106
f 36/107/107 37/108/108 39/109/109 38/110/110
f 41/111/111 40/112/112 38/113/113 39/114/114
f 40/115/115 41/116/116 35/117/117 34/118/118
usemtl TEAM
f 42/119/119 45/120/120 44/121/121 43/122/122
usemtl light_metal
f 40/123/123 34/124/124 36/125/125 38/126/126
f 35/127/127 42/128/128 43/129/129 37/130/130
f 37/131/131 43/132/132 44/133/133 39/134/134
f 39/135/135 44/136/136 45/137/137 41/138/138
f 41/139/139 45/140/140 42/141/141 35/142/142
# 10 facets

