#  ==========================================================================
#  
#  Wavefront OBJ format exported by Red-i Productions' "Riptide Pro"
#     (a commercial plugin for Cinema 4D PC & Mac, R9.6 or later)
#  
#  Red-i Productions
#  http://skinprops.com
#  
#  ==========================================================================
mtllib supply.mtl
v 1 0.005 1
v -1 0.005 1
v 1 0.005 -1
v -1 0.005 -1
# 4 vertices

vt 0.00000 1.00000
vt 0.00000 0.00000
vt 1.00000 0.00000
vt 1.00000 1.00000
# 4 texture coordinates

vn 0 1 0
vn 0 1 0
vn 0 1 0
vn 0 1 0
# 4 vertex normals

usemtl Mat.2
f 1/1/1 3/2/2 4/3/3 2/4/4
# 1 facets

v -0.701859 0.0102598 -0.804316
v -0.701859 0.692349 -0.804316
v -0.0817779 0.0102598 -0.804316
v -0.0817779 0.692349 -0.804316
v -0.0817779 0.0102598 0.551103
v -0.0817779 0.692349 0.551103
v -0.700119 0.0102598 0.552859
v -0.700119 0.692349 0.552859
v -0.382682 0.0102598 0.551103
v -0.385886 0.692349 0.551103
v -0.432771 0.692349 0.742168
v -0.42976 0.0102598 0.743264
# 12 vertices

vt 0.68996 1.00000
vt 0.68996 0.31791
vt 1.31004 0.31791
vt 1.31004 1.00000
vt 0.32229 1.00000
vt 0.32229 0.31791
vt 1.67771 0.31791
vt 1.67771 1.00000
vt 1.04095 0.31791
vt 1.30830 0.31791
vt 1.30830 1.00000
vt 1.03794 1.00000
vt 0.32053 1.00000
vt 0.32053 0.31791
vt 1.67771 0.31791
vt 1.67771 1.00000
vt 0.50957 0.00000
vt 1.00000 0.00000
vt 1.00000 1.00000
vt 0.69170 1.67947
vt 0.68996 0.32229
vt 1.00914 1.67771
vt 0.00000 1.00000
vt 0.00000 0.00000
vt 0.50957 0.00000
vt 1.31004 0.32229
vt 1.31004 1.67771
vt 1.00914 1.67771
vt 0.99086 1.00000
vt 0.68996 1.00000
vt 0.68996 0.31791
vt 0.99407 0.31791
vt 0.50957 0.00000
vt 1.00000 1.00000
vt 0.00000 1.00000
vt 1.00914 1.67771
vt 0.68996 0.32229
vt 1.31004 0.32229
# 38 texture coordinates

vn 0 0 -1
vn 0 0 -1
vn 0 0 -1
vn 0 0 -1
vn 1 0 0
vn 1 0 0
vn 1 0 0
vn 1 0 0
vn -0.576845 -0.000614081 0.816853
vn -0.887637 -0.000345678 0.460544
vn -0.887637 -0.000345678 0.460544
vn -0.576845 -0.000614081 0.816853
vn -0.887637 -0.000345678 0.460544
vn -0.887637 -0.000345678 0.460544
vn -0.999999 0 0.00128162
vn -0.999999 0 0.00128162
vn 0 1 0
vn 0 1 0
vn 0 1 0
vn 0 -1 0
vn 0 -1 0
vn 0 -1 0
vn 0 1 0
vn 0 1 0
vn 0 1 0
vn 0 -1 0
vn 0 -1 0
vn 0 -1 0
vn 0 0 1
vn 0 0 1
vn 0 0 1
vn 0 0 1
vn 0 1 0
vn 0 1 0
vn 0 1 0
vn 0 -1 0
vn 0 -1 0
vn 0 -1 0
# 38 vertex normals

usemtl Mat.5
f 5/5/5 6/6/6 8/7/7 7/8/8
f 7/9/9 8/10/10 10/11/11 9/12/12
f 15/13/13 12/14/14 11/15/15 16/16/16
f 11/17/17 12/18/18 6/19/19 5/20/20
usemtl TEAM
f 14/21/21 10/22/22 8/23/23
usemtl Mat.5
f 11/24/24 5/25/25 13/26/26
usemtl TEAM
f 6/27/27 12/28/28 14/29/29
usemtl Mat.5
f 7/30/30 9/31/31 13/32/32
f 13/33/33 9/34/34 10/35/35 14/36/36
usemtl TEAM
f 14/37/37 8/38/38 6/39/39
usemtl Mat.5
f 13/40/40 5/41/41 7/42/42
# 11 facets

v -1.05439 0.768991 -0.621077
v -1.00806 1.44789 -0.57421
v -0.505158 0.751347 -0.90837
v -0.458833 1.43024 -0.861503
v 0.11724 0.626205 0.289178
v 0.163566 1.3051 0.336045
v -0.431989 0.643849 0.57647
v -0.385663 1.32275 0.623338
# 8 vertices

vt 0.42136 0.92701
vt 0.46474 0.24811
vt 1.03048 0.26576
vt 0.98710 0.94466
vt 0.14931 0.94466
vt 0.19891 0.26576
vt 1.43221 0.39090
vt 1.38260 1.06980
vt 0.98710 0.37326
vt 1.03048 1.05215
vt 0.46474 1.06980
vt 0.42136 0.39090
vt 0.36416 1.05215
vt 0.31455 0.37326
vt 1.54784 0.24811
vt 1.59745 0.92701
vt 0.00000 1.00000
vt 0.00000 0.00000
vt 1.00000 0.00000
vt 1.00000 1.00000
vt 0.96952 1.63584
vt 0.42136 0.40255
vt 0.98710 0.14931
vt 1.53526 1.38260
# 24 texture coordinates

vn -0.459193 0.0923271 -0.883526
vn -0.459193 0.0923271 -0.883526
vn -0.459193 0.0923271 -0.883526
vn -0.459193 0.0923271 -0.883526
vn 0.885737 -0.0284549 -0.463315
vn 0.885737 -0.0284549 -0.463315
vn 0.885737 -0.0284549 -0.463315
vn 0.885737 -0.0284549 -0.463315
vn 0.459193 -0.0923271 0.883526
vn 0.459193 -0.0923271 0.883526
vn 0.459193 -0.0923271 0.883526
vn 0.459193 -0.0923271 0.883526
vn -0.885737 0.0284549 0.463315
vn -0.885737 0.0284549 0.463315
vn -0.885737 0.0284549 0.463315
vn -0.885737 0.0284549 0.463315
vn 0.0679172 0.995322 0.0687112
vn 0.0679172 0.995322 0.0687112
vn 0.0679172 0.995322 0.0687112
vn 0.0679172 0.995322 0.0687112
vn -0.0679172 -0.995322 -0.0687112
vn -0.0679172 -0.995322 -0.0687112
vn -0.0679172 -0.995322 -0.0687112
vn -0.0679172 -0.995322 -0.0687112
# 24 vertex normals

usemtl Mat.5
f 17/43/43 18/44/44 20/45/45 19/46/46
f 19/47/47 20/48/48 22/49/49 21/50/50
f 24/51/51 23/52/52 21/53/53 22/54/54
f 23/55/55 24/56/56 18/57/57 17/58/58
usemtl TEAM
f 18/59/59 24/60/60 22/61/61 20/62/62
usemtl Mat.5
f 23/63/63 17/64/64 19/65/65 21/66/66
# 6 facets

v 0.0606293 0.0102598 -0.669478
v 0.0606293 0.692349 -0.669478
v 0.680027 0.0102598 -0.698579
v 0.680027 0.692349 -0.698579
v 0.743638 0.0102598 0.655347
v 0.743638 0.692349 0.655347
v 0.124241 0.0102598 0.684448
v 0.124241 0.692349 0.684448
# 8 vertices

vt 0.68996 1.00000
vt 0.68996 0.31791
vt 1.31004 0.31791
vt 1.31004 1.00000
vt 0.32229 1.00000
vt 0.32229 0.31791
vt 1.67771 0.31791
vt 1.67771 1.00000
vt 1.31004 0.31791
vt 1.31004 1.00000
vt 0.68996 1.00000
vt 0.68996 0.31791
vt 0.32229 1.00000
vt 0.32229 0.31791
vt 1.67771 0.31791
vt 1.67771 1.00000
vt 0.00000 1.00000
vt 0.00000 0.00000
vt 1.00000 0.00000
vt 1.00000 1.00000
vt 0.68996 1.67771
vt 0.68996 0.32229
vt 1.31004 0.32229
vt 1.31004 1.67771
# 24 texture coordinates

vn -0.0469311 0 -0.998898
vn -0.0469311 0 -0.998898
vn -0.0469311 0 -0.998898
vn -0.0469311 0 -0.998898
vn 0.998898 0 -0.0469311
vn 0.998898 0 -0.0469311
vn 0.998898 0 -0.0469311
vn 0.998898 0 -0.0469311
vn 0.0469311 0 0.998898
vn 0.0469311 0 0.998898
vn 0.0469311 0 0.998898
vn 0.0469311 0 0.998898
vn -0.998898 0 0.0469311
vn -0.998898 0 0.0469311
vn -0.998898 0 0.0469311
vn -0.998898 0 0.0469311
vn 0 1 0
vn 0 1 0
vn 0 1 0
vn 0 1 0
vn 0 -1 0
vn 0 -1 0
vn 0 -1 0
vn 0 -1 0
# 24 vertex normals

usemtl Mat.5
f 25/67/67 26/68/68 28/69/69 27/70/70
f 27/71/71 28/72/72 30/73/73 29/74/74
f 32/75/75 31/76/76 29/77/77 30/78/78
f 31/79/79 32/80/80 26/81/81 25/82/82
usemtl TEAM
f 26/83/83 32/84/84 30/85/85 28/86/86
usemtl Mat.5
f 31/87/87 25/88/88 27/89/89 29/90/90
# 6 facets

