#  ==========================================================================
#  
#  Wavefront OBJ format exported by Red-i Productions' "Riptide Pro"
#     (a commercial plugin for Cinema 4D PC & Mac, R9.6 or later)
#  
#  Red-i Productions
#  http://skinprops.com
#  
#  ==========================================================================
mtllib supply.mtl
v -0.736336 0 -0.788819
v -0.736336 0.682089 -0.788819
v -0.116255 0 -0.788819
v -0.116255 0.682089 -0.788819
v -0.116255 0 0.5666
v -0.116255 0.682089 0.5666
v -0.734597 0 0.568356
v -0.734597 0.682089 0.568356
v -0.417159 0 0.5666
v -0.420363 0.682089 0.5666
v -0.467248 0.682089 0.757664
v -0.464237 0 0.75876
# 12 vertices

vt 0.00000 1.00000
vt 0.00000 0.00000
vt 1.00000 0.00000
vt 1.00000 1.00000
vt 0.00000 1.00000
vt 0.00000 0.00000
vt 1.00000 0.00000
vt 1.00000 1.00000
vt 0.49043 0.00000
vt 1.00000 0.00000
vt 1.00000 1.00000
vt 0.48527 1.00000
vt 0.00000 1.00000
vt 0.00000 0.00000
vt 1.00000 0.00000
vt 1.00000 1.00000
vt 0.00000 1.00000
vt 0.00000 0.00000
vt 0.50957 0.00000
vt 1.00000 1.00000
vt 0.51473 1.00000
vt 0.00000 1.00000
vt 0.00000 0.00000
vt 1.00000 0.00000
vt 0.50957 0.00000
vt 1.00000 0.00000
vt 1.00000 1.00000
vt 1.00000 0.00000
vt 1.00000 1.00000
vt 0.51473 1.00000
vt 0.48527 1.00000
vt 0.00000 1.00000
vt 0.00000 0.00000
vt 0.49043 0.00000
# 34 texture coordinates

vn 0 0 -1
vn 0 0 -1
vn 0 0 -1
vn 0 0 -1
vn 1 0 0
vn 1 0 0
vn 1 0 0
vn 1 0 0
vn -0.576845 -0.000614081 0.816853
vn -0.887637 -0.000345678 0.460544
vn -0.887637 -0.000345678 0.460544
vn -0.576845 -0.000614081 0.816853
vn -0.887637 -0.000345678 0.460544
vn -0.887637 -0.000345678 0.460544
vn -0.999999 0 0.00128162
vn -0.999999 0 0.00128162
vn 0 1 0
vn 0 1 0
vn 0 1 0
vn 0 1 0
vn 0 -1 0
vn 0 -1 0
vn 0 -1 0
vn 0 -1 0
vn 0 1 0
vn 0 1 0
vn 0 1 0
vn 0 -1 0
vn 0 -1 0
vn 0 -1 0
vn 0 0 1
vn 0 0 1
vn 0 0 1
vn 0 0 1
# 34 vertex normals

f 1/1/1 2/2/2 4/3/3 3/4/4
f 3/5/5 4/6/6 6/7/7 5/8/8
f 11/9/9 8/10/10 7/11/11 12/12/12
f 7/13/13 8/14/14 2/15/15 1/16/16
f 2/17/17 8/18/18 10/19/19 6/26/26 4/27/27
f 7/22/22 1/23/23 3/24/24 5/29/29 9/30/30
f 9/31/31 5/32/32 6/33/33 10/34/34
# 7 facets

v -0.825663 0.685743 -0.70208
v -0.825663 1.36783 -0.70208
v -0.206737 0.685743 -0.739918
v -0.206737 1.36783 -0.739918
v -0.12403 0.685743 0.612975
v -0.12403 1.36783 0.612975
v -0.742955 0.685743 0.650813
v -0.742955 1.36783 0.650813
v -0.424373 0.685743 0.631337
v -0.427571 1.36783 0.631532
# 10 vertices

vt 0.00000 1.00000
vt 0.00000 0.00000
vt 1.00000 0.00000
vt 1.00000 1.00000
vt 0.00000 1.00000
vt 0.00000 0.00000
vt 1.00000 0.00000
vt 1.00000 1.00000
vt 0.49043 0.00000
vt 1.00000 0.00000
vt 1.00000 1.00000
vt 0.48527 1.00000
vt 0.00000 1.00000
vt 0.00000 0.00000
vt 1.00000 0.00000
vt 1.00000 1.00000
vt 0.00000 1.00000
vt 0.00000 0.00000
vt 0.50957 0.00000
vt 1.00000 1.00000
vt 0.51473 1.00000
vt 0.00000 1.00000
vt 0.00000 0.00000
vt 1.00000 0.00000
vt 0.50957 0.00000
vt 1.00000 0.00000
vt 1.00000 1.00000
vt 1.00000 0.00000
vt 1.00000 1.00000
vt 0.51473 1.00000
vt 0.48527 1.00000
vt 0.00000 1.00000
vt 0.00000 0.00000
vt 0.49043 0.00000
# 34 texture coordinates

vn -0.0610199 0 -0.998137
vn -0.0610199 0 -0.998137
vn -0.0610199 0 -0.998137
vn -0.0610199 0 -0.998137
vn 0.998137 0 -0.0610199
vn 0.998137 0 -0.0610199
vn 0.998137 0 -0.0610199
vn 0.998137 0 -0.0610199
vn 0.0610199 0 0.998137
vn 0.0610199 0 0.998137
vn 0.0610199 0 0.998137
vn 0.0610199 0 0.998137
vn -0.998137 0 0.0610199
vn -0.998137 0 0.0610199
vn -0.998137 0 0.0610199
vn -0.998137 0 0.0610199
vn 0 1 0
vn 0 1 0
vn 0 1 0
vn 0 1 0
vn 0 -1 0
vn 0 -1 0
vn 0 -1 0
vn 0 -1 0
vn 0 1 0
vn 0 1 0
vn 0 1 0
vn 0 -1 0
vn 0 -1 0
vn 0 -1 0
vn 0.0610199 0 0.998137
vn 0.0610199 0 0.998137
vn 0.0610199 0 0.998137
vn 0.0610199 0 0.998137
# 34 vertex normals

f 13/35/35 14/36/36 16/37/37 15/38/38
f 15/39/39 16/40/40 18/41/41 17/42/42
f 22/43/43 20/44/44 19/45/45 21/46/46
f 19/47/47 20/48/48 14/49/49 13/50/50
f 14/51/51 20/52/52 22/53/53 18/60/60 16/61/61
f 19/56/56 13/57/57 15/58/58 17/63/63 21/64/64
f 21/65/65 17/66/66 18/67/67 22/68/68
# 7 facets

v 0.026152 0 -0.653981
v 0.026152 0.682089 -0.653981
v 0.64555 0 -0.683082
v 0.64555 0.682089 -0.683082
v 0.709161 0 0.670843
v 0.709161 0.682089 0.670843
v 0.0897634 0 0.699944
v 0.0897634 0.682089 0.699944
v 0.408589 0 0.684965
v 0.405388 0.682089 0.685116
# 10 vertices

vt 0.00000 1.00000
vt 0.00000 0.00000
vt 1.00000 0.00000
vt 1.00000 1.00000
vt 0.00000 1.00000
vt 0.00000 0.00000
vt 1.00000 0.00000
vt 1.00000 1.00000
vt 0.49043 0.00000
vt 1.00000 0.00000
vt 1.00000 1.00000
vt 0.48527 1.00000
vt 0.00000 1.00000
vt 0.00000 0.00000
vt 1.00000 0.00000
vt 1.00000 1.00000
vt 0.00000 1.00000
vt 0.00000 0.00000
vt 0.50957 0.00000
vt 1.00000 1.00000
vt 0.51473 1.00000
vt 0.00000 1.00000
vt 0.00000 0.00000
vt 1.00000 0.00000
vt 0.50957 0.00000
vt 1.00000 0.00000
vt 1.00000 1.00000
vt 1.00000 0.00000
vt 1.00000 1.00000
vt 0.51473 1.00000
vt 0.48527 1.00000
vt 0.00000 1.00000
vt 0.00000 0.00000
vt 0.49043 0.00000
# 34 texture coordinates

vn -0.0469311 0 -0.998898
vn -0.0469311 0 -0.998898
vn -0.0469311 0 -0.998898
vn -0.0469311 0 -0.998898
vn 0.998898 0 -0.0469311
vn 0.998898 0 -0.0469311
vn 0.998898 0 -0.0469311
vn 0.998898 0 -0.0469311
vn 0.0469311 0 0.998898
vn 0.0469311 0 0.998898
vn 0.0469311 0 0.998898
vn 0.0469311 0 0.998898
vn -0.998898 0 0.0469311
vn -0.998898 0 0.0469311
vn -0.998898 0 0.0469311
vn -0.998898 0 0.0469311
vn 0 1 0
vn 0 1 0
vn 0 1 0
vn 0 1 0
vn 0 -1 0
vn 0 -1 0
vn 0 -1 0
vn 0 -1 0
vn 0 1 0
vn 0 1 0
vn 0 1 0
vn 0 -1 0
vn 0 -1 0
vn 0 -1 0
vn 0.0469311 0 0.998898
vn 0.0469311 0 0.998898
vn 0.0469311 0 0.998898
vn 0.0469311 0 0.998898
# 34 vertex normals

f 23/69/69 24/70/70 26/71/71 25/72/72
f 25/73/73 26/74/74 28/75/75 27/76/76
f 32/77/77 30/78/78 29/79/79 31/80/80
f 29/81/81 30/82/82 24/83/83 23/84/84
f 24/85/85 30/86/86 32/87/87 28/94/94 26/95/95
f 29/90/90 23/91/91 25/92/92 27/97/97 31/98/98
f 31/99/99 27/100/100 28/101/101 32/102/102
# 7 facets

