#  ==========================================================================
#  
#  Wavefront OBJ format exported by Red-i Productions' "Riptide Pro"
#     (a commercial plugin for Cinema 4D PC & Mac, R9.6 or later)
#  
#  Red-i Productions
#  http://skinprops.com
#  
#  ==========================================================================
mtllib supply.mtl
v 1 0.005 1
v -1 0.005 1
v 1 0.005 -1
v -1 0.005 -1
# 4 vertices

vt 0.00000 1.00000
vt 0.00000 0.00000
vt 1.00000 0.00000
vt 1.00000 1.00000
# 4 texture coordinates

vn 0 1 0
vn 0 1 0
vn 0 1 0
vn 0 1 0
# 4 vertex normals

usemtl floor
f 1/1/1 3/2/2 4/3/3 2/4/4
# 1 facets

v -0.701859 0.0102598 -0.681101
v -0.701859 0.692349 -0.681101
v -0.0817779 0.0102598 -0.681101
v -0.0817779 0.692349 -0.681101
v -0.0817779 0.0102598 0.674318
v -0.0817779 0.692349 0.674318
v -0.700119 0.0102598 0.676074
v -0.700119 0.692349 0.676074
v -0.382682 0.0102598 0.674318
v -0.385886 0.692349 0.674318
v -0.432771 0.692349 0.865382
v -0.42976 0.0102598 0.866478
v -0.534683 0.692349 -0.520618
v -0.248809 0.692349 -0.520618
v -0.248809 0.692349 0.513929
v -0.533632 0.692349 0.514958
v -0.387722 0.692349 0.513929
# 17 vertices

vt 0.36245 0.50000
vt 0.36245 0.02567
vt 0.79366 0.02567
vt 0.79366 0.50000
vt 0.02871 0.50000
vt 0.02871 0.02567
vt 0.97129 0.02567
vt 0.97129 0.50000
vt 0.45042 0.02567
vt 0.63634 0.02567
vt 0.63634 0.50000
vt 0.44833 0.50000
vt 0.02749 0.50000
vt 0.02749 0.02567
vt 0.97129 0.02567
vt 0.97129 0.50000
vt 0.58196 0.10730
vt 0.71508 0.10730
vt 0.71508 0.89270
vt 0.36366 0.97251
vt 0.36245 0.02871
vt 0.58441 0.97129
vt 0.44114 0.89270
vt 0.44214 0.10651
vt 0.58196 0.10730
vt 0.79366 0.02871
vt 0.79366 0.97129
vt 0.58441 0.97129
vt 0.41559 0.50000
vt 0.20634 0.50000
vt 0.20634 0.02567
vt 0.41782 0.02567
vt 0.58196 0.10730
vt 0.71508 0.89270
vt 0.44114 0.89270
vt 0.58441 0.97129
vt 0.36245 0.02871
vt 0.79366 0.02871
vt 0.81829 0.26408
vt 0.79293 0.21219
vt 1.20707 0.21221
vt 1.18171 0.26408
vt 0.18171 0.26408
vt 0.20707 0.21221
vt 0.24874 0.20655
vt 0.24861 0.24898
vt 0.24861 0.24898
vt 0.24874 0.20655
vt 0.29250 0.21241
vt 0.31779 0.26427
vt 0.31779 0.26427
vt 0.29250 0.21241
vt 0.70711 0.21218
vt 0.68171 0.26408
vt 0.68171 0.26408
vt 0.70711 0.21218
vt 0.79293 0.21219
vt 0.81829 0.26408
# 58 texture coordinates

vn -0.408335 -0.816671 -0.407812
vn -0.408335 0.816671 -0.407812
vn 0.408248 0.816497 -0.408248
vn 0.408248 -0.816497 -0.408248
vn 0.408248 -0.816497 -0.408248
vn 0.408248 0.816497 -0.408248
vn 0.408248 0.816497 0.408248
vn 0.57735 -0.57735 0.57735
vn -0.57684 -0.000616961 0.816857
vn -0.589568 0.747554 0.305896
vn -0.773387 -0.490769 0.40127
vn -0.57684 -0.000616961 0.816857
vn -0.773387 -0.490769 0.40127
vn -0.589568 0.747554 0.305896
vn -0.408335 0.816671 -0.407812
vn -0.408335 -0.816671 -0.407812
vn 0 1 0
vn 0 1 0
vn 0 1 0
vn -0.773387 -0.490769 0.40127
vn -0.408335 -0.816671 -0.407812
vn 0 -0.948683 0.316228
vn 0 1 0
vn 0 1 0
vn 0 1 0
vn 0.408248 -0.816497 -0.408248
vn 0.57735 -0.57735 0.57735
vn 0 -0.948683 0.316228
vn 0 -0.948683 0.316228
vn 0.57735 -0.57735 0.57735
vn 0.408248 0.816497 0.408248
vn 0 0.894427 0.447214
vn 0 1 0
vn 0 1 0
vn 0 1 0
vn 0 -0.948683 0.316228
vn -0.408335 -0.816671 -0.407812
vn 0.408248 -0.816497 -0.408248
vn 0.408248 0.816497 -0.408248
vn 0 1 0
vn 0 1 0
vn 0.408248 0.816497 0.408248
vn 0.408248 0.816497 0.408248
vn 0 1 0
vn 0 1 0
vn 0 0.894427 0.447214
vn 0 0.894427 0.447214
vn 0 1 0
vn 0 1 0
vn -0.589568 0.747554 0.305896
vn -0.589568 0.747554 0.305896
vn 0 1 0
vn 0 1 0
vn -0.408335 0.816671 -0.407812
vn -0.408335 0.816671 -0.407812
vn 0 1 0
vn 0 1 0
vn 0.408248 0.816497 -0.408248
# 58 vertex normals

usemtl light_metal
f 5/5/5 6/6/6 8/7/7 7/8/8
f 7/9/9 8/10/10 10/11/11 9/12/12
f 15/13/13 12/14/14 11/15/15 16/16/16
f 11/17/17 12/18/18 6/19/19 5/20/20
f 21/21/21 19/22/22 18/23/23
f 11/24/24 5/25/25 13/26/26
f 17/27/27 20/28/28 21/29/29
f 7/30/30 9/31/31 13/32/32
f 13/33/33 9/34/34 10/35/35 14/36/36
f 21/37/37 18/38/38 17/39/39
f 13/40/40 5/41/41 7/42/42
usemtl TEAM
f 8/43/43 18/44/44 19/45/45 10/46/46
f 10/47/47 19/48/48 21/49/49 14/50/50
f 14/51/51 21/52/52 20/53/53 12/54/54
f 12/55/55 20/56/56 17/57/57 6/58/58
f 6/59/59 17/60/60 18/61/61 8/62/62
# 16 facets

v 0.0606293 0.0102598 -0.546263
v 0.0606293 0.692349 -0.546263
v 0.680027 0.0102598 -0.575364
v 0.680027 0.692349 -0.575364
v 0.743638 0.0102598 0.778561
v 0.743638 0.692349 0.778561
v 0.124241 0.0102598 0.807662
v 0.124241 0.692349 0.807662
v 0.229546 0.692349 -0.394064
v 0.526124 0.692349 -0.407998
v 0.574722 0.692349 0.626363
v 0.278143 0.692349 0.640297
# 12 vertices

vt 0.27692 0.62083
vt 0.27692 0.12951
vt 0.72357 0.12951
vt 0.72357 0.62083
vt 0.00657 0.62083
vt 0.00657 0.12951
vt 0.98289 0.12951
vt 0.98289 0.62083
vt 0.72308 0.12951
vt 0.72308 0.62083
vt 0.27643 0.62083
vt 0.27643 0.12951
vt 0.01711 0.62083
vt 0.01711 0.12951
vt 0.99343 0.12951
vt 0.99343 0.62083
vt 0.35616 0.91419
vt 0.35616 0.09634
vt 0.64434 0.09634
vt 0.64434 0.91419
vt 0.27692 0.98289
vt 0.27692 0.00657
vt 0.72357 0.00657
vt 0.72357 0.98289
vt 0.68171 0.26408
vt 0.70556 0.21276
vt 0.79444 0.21276
vt 0.81829 0.26408
vt 0.81829 0.26408
vt 0.79444 0.21276
vt 1.20556 0.21276
vt 1.18171 0.26408
vt 0.18171 0.26408
vt 0.20556 0.21276
vt 0.29444 0.21276
vt 0.31829 0.26408
vt 0.31829 0.26408
vt 0.29444 0.21276
vt 0.70556 0.21276
vt 0.68171 0.26408
# 40 texture coordinates

vn -0.60381 -0.57735 -0.549618
vn -0.426958 0.816497 -0.388639
vn 0.388639 0.816497 -0.426958
vn 0.549618 -0.57735 -0.60381
vn 0.549618 -0.57735 -0.60381
vn 0.388639 0.816497 -0.426958
vn 0.426958 0.816497 0.388639
vn 0.60381 -0.57735 0.549618
vn -0.388639 0.816497 0.426958
vn -0.549618 -0.57735 0.60381
vn 0.60381 -0.57735 0.549618
vn 0.426958 0.816497 0.388639
vn -0.549618 -0.57735 0.60381
vn -0.388639 0.816497 0.426958
vn -0.426958 0.816497 -0.388639
vn -0.60381 -0.57735 -0.549618
vn -6.13451e-016 1 -5.64104e-016
vn -5.57858e-016 1 6.19136e-016
vn 6.13451e-016 1 5.64104e-016
vn 5.57858e-016 1 -6.19136e-016
vn -0.549618 -0.57735 0.60381
vn -0.60381 -0.57735 -0.549618
vn 0.549618 -0.57735 -0.60381
vn 0.60381 -0.57735 0.549618
vn -0.426958 0.816497 -0.388639
vn -6.13451e-016 1 -5.64104e-016
vn 5.57858e-016 1 -6.19136e-016
vn 0.388639 0.816497 -0.426958
vn 0.388639 0.816497 -0.426958
vn 5.57858e-016 1 -6.19136e-016
vn 6.13451e-016 1 5.64104e-016
vn 0.426958 0.816497 0.388639
vn 0.426958 0.816497 0.388639
vn 6.13451e-016 1 5.64104e-016
vn -5.57858e-016 1 6.19136e-016
vn -0.388639 0.816497 0.426958
vn -0.388639 0.816497 0.426958
vn -5.57858e-016 1 6.19136e-016
vn -6.13451e-016 1 -5.64104e-016
vn -0.426958 0.816497 -0.388639
# 40 vertex normals

usemtl light_metal
f 22/63/63 23/64/64 25/65/65 24/66/66
f 24/67/67 25/68/68 27/69/69 26/70/70
f 29/71/71 28/72/72 26/73/73 27/74/74
f 28/75/75 29/76/76 23/77/77 22/78/78
f 30/79/79 33/80/80 32/81/81 31/82/82
f 28/83/83 22/84/84 24/85/85 26/86/86
usemtl TEAM
f 23/87/87 30/88/88 31/89/89 25/90/90
f 25/91/91 31/92/92 32/93/93 27/94/94
f 27/95/95 32/96/96 33/97/97 29/98/98
f 29/99/99 33/100/100 30/101/101 23/102/102
# 10 facets

v -0.395572 0.710204 -0.886529
v -0.395572 1.39229 -0.886529
v 0.169102 0.710204 -0.630318
v 0.169102 1.39229 -0.630318
v -0.390942 0.710204 0.603988
v -0.390942 1.39229 0.603988
v -0.955616 0.710204 0.347777
v -0.955616 1.39229 0.347777
v -0.314516 1.39229 -0.674097
v -0.0441402 1.39229 -0.551419
v -0.471998 1.39229 0.391556
v -0.742373 1.39229 0.268878
# 12 vertices

vt 0.27692 0.62083
vt 0.27692 0.12951
vt 0.72357 0.12951
vt 0.72357 0.62083
vt 0.00657 0.62083
vt 0.00657 0.12951
vt 0.98289 0.12951
vt 0.98289 0.62083
vt 0.72308 0.12951
vt 0.72308 0.62083
vt 0.27643 0.62083
vt 0.27643 0.12951
vt 0.01711 0.62083
vt 0.01711 0.12951
vt 0.99343 0.12951
vt 0.99343 0.62083
vt 0.35616 0.91419
vt 0.35616 0.09634
vt 0.64434 0.09634
vt 0.64434 0.91419
vt 0.27692 0.98289
vt 0.27692 0.00657
vt 0.72357 0.00657
vt 0.72357 0.98289
vt 0.68171 0.26408
vt 0.70556 0.21276
vt 0.79444 0.21276
vt 0.81829 0.26408
vt 0.81829 0.26408
vt 0.79444 0.21276
vt 1.20556 0.21276
vt 1.18171 0.26408
vt 0.18171 0.26408
vt 0.20556 0.21276
vt 0.29444 0.21276
vt 0.31829 0.26408
vt 0.31829 0.26408
vt 0.29444 0.21276
vt 0.70556 0.21276
vt 0.68171 0.26408
# 40 texture coordinates

vn -0.287207 -0.57735 -0.764316
vn -0.203086 0.816497 -0.540453
vn 0.540453 0.816497 -0.203086
vn 0.764316 -0.57735 -0.287207
vn 0.764316 -0.57735 -0.287207
vn 0.540453 0.816497 -0.203086
vn 0.203086 0.816497 0.540453
vn 0.287207 -0.57735 0.764316
vn -0.540453 0.816497 0.203086
vn -0.764316 -0.57735 0.287207
vn 0.287207 -0.57735 0.764316
vn 0.203086 0.816497 0.540453
vn -0.764316 -0.57735 0.287207
vn -0.540453 0.816497 0.203086
vn -0.203086 0.816497 -0.540453
vn -0.287207 -0.57735 -0.764316
vn -2.89191e-016 1 -7.81603e-016
vn -7.78632e-016 1 2.97098e-016
vn 2.89191e-016 1 7.81603e-016
vn 7.78632e-016 1 -2.97098e-016
vn -0.764316 -0.57735 0.287207
vn -0.287207 -0.57735 -0.764316
vn 0.764316 -0.57735 -0.287207
vn 0.287207 -0.57735 0.764316
vn -0.203086 0.816497 -0.540453
vn -2.89191e-016 1 -7.81603e-016
vn 7.78632e-016 1 -2.97098e-016
vn 0.540453 0.816497 -0.203086
vn 0.540453 0.816497 -0.203086
vn 7.78632e-016 1 -2.97098e-016
vn 2.89191e-016 1 7.81603e-016
vn 0.203086 0.816497 0.540453
vn 0.203086 0.816497 0.540453
vn 2.89191e-016 1 7.81603e-016
vn -7.78632e-016 1 2.97098e-016
vn -0.540453 0.816497 0.203086
vn -0.540453 0.816497 0.203086
vn -7.78632e-016 1 2.97098e-016
vn -2.89191e-016 1 -7.81603e-016
vn -0.203086 0.816497 -0.540453
# 40 vertex normals

usemtl light_metal
f 34/103/103 35/104/104 37/105/105 36/106/106
f 36/107/107 37/108/108 39/109/109 38/110/110
f 41/111/111 40/112/112 38/113/113 39/114/114
f 40/115/115 41/116/116 35/117/117 34/118/118
f 42/119/119 45/120/120 44/121/121 43/122/122
f 40/123/123 34/124/124 36/125/125 38/126/126
usemtl TEAM
f 35/127/127 42/128/128 43/129/129 37/130/130
f 37/131/131 43/132/132 44/133/133 39/134/134
f 39/135/135 44/136/136 45/137/137 41/138/138
f 41/139/139 45/140/140 42/141/141 35/142/142
# 10 facets

