#  ==========================================================================
#  
#  Wavefront OBJ format exported by Red-i Productions' "Riptide Pro"
#     (a commercial plugin for Cinema 4D PC & Mac, R9.6 or later)
#  
#  Red-i Productions
#  http://skinprops.com
#  
#  ==========================================================================
mtllib tank-factory.mtl
v 1 0.005 1
v -1 0.005 1
v 1 0.005 -1
v -1 0.005 -1
# 4 vertices

vt 0.00000 1.00000
vt 0.00000 0.00000
vt 1.00000 0.00000
vt 1.00000 1.00000
# 4 texture coordinates

vn 0 1 0
vn 0 1 0
vn 0 1 0
vn 0 1 0
# 4 vertex normals

usemtl Mat.2
f 1/1/1 3/2/2 4/3/3 2/4/4
# 1 facets

v 0.135254 1.16404 -0.365613
v 0.27594 1.16404 -0.446839
v 0.27594 1.16404 -0.446839
v 0.0248706 2.25029 -0.301884
v 0.0248706 2.25029 -0.301884
v -0.057178 2.25029 -0.254513
v -0.057178 2.25029 -0.254513
v 0.135254 1.16404 -0.365613
v 0.135254 1.16404 0.1675
v 0.27594 1.16404 0.248726
v 0.27594 1.16404 0.248726
v 0.0248706 2.25029 0.10377
v 0.0248706 2.25029 0.10377
v -0.057178 2.25029 0.0563997
v -0.057178 2.25029 0.0563997
v 0.135254 1.16404 0.1675
v -0.326436 1.16404 0.434057
v -0.326436 1.16404 0.596508
v -0.326436 1.16404 0.596508
v -0.326436 2.25029 0.306598
v -0.326436 2.25029 0.306598
v -0.326436 2.25029 0.211856
v -0.326436 2.25029 0.211856
v -0.326436 1.16404 0.434057
v -0.788126 1.16404 0.1675
v -0.928813 1.16404 0.248726
v -0.928813 1.16404 0.248726
v -0.677743 2.25029 0.10377
v -0.677743 2.25029 0.10377
v -0.595694 2.25029 0.0563997
v -0.595694 2.25029 0.0563997
v -0.788126 1.16404 0.1675
v -0.788126 1.16404 -0.365613
v -0.928813 1.16404 -0.446839
v -0.928813 1.16404 -0.446839
v -0.677743 2.25029 -0.301884
v -0.677743 2.25029 -0.301884
v -0.595694 2.25029 -0.254513
v -0.595694 2.25029 -0.254513
v -0.788126 1.16404 -0.365613
v -0.326436 1.16404 -0.63217
v -0.326436 1.16404 -0.794621
v -0.326436 1.16404 -0.794621
v -0.326436 2.25029 -0.504711
v -0.326436 2.25029 -0.504711
v -0.326436 2.25029 -0.409969
v -0.326436 2.25029 -0.409969
v -0.326436 1.16404 -0.63217
# 48 vertices

vt 0.11678 0.50000
vt 0.00000 0.50000
vt 0.25000 0.06699
vt 0.30839 0.16812
vt 0.00000 1.00000
vt 0.00000 0.00000
vt 0.16667 0.00000
vt 0.16667 1.00000
vt 1.00000 0.50000
vt 0.88322 0.50000
vt 0.69161 0.16812
vt 0.75000 0.06699
vt 0.00000 1.00000
vt 0.00000 0.00000
vt 0.16667 0.00000
vt 0.16667 1.00000
vt 0.30839 0.16812
vt 0.25000 0.06699
vt 0.75000 0.06699
vt 0.69161 0.16812
vt 0.16667 1.00000
vt 0.16667 0.00000
vt 0.33333 0.00000
vt 0.33333 1.00000
vt 0.75000 0.06699
vt 0.69161 0.16812
vt 0.30839 0.16812
vt 0.25000 0.06699
vt 0.16667 1.00000
vt 0.16667 0.00000
vt 0.33333 0.00000
vt 0.33333 1.00000
vt 0.69161 0.16812
vt 0.75000 0.06699
vt 1.00000 0.50000
vt 0.88322 0.50000
vt 0.33333 1.00000
vt 0.33333 0.00000
vt 0.50000 0.00000
vt 0.50000 1.00000
vt 0.25000 0.06699
vt 0.30839 0.16812
vt 0.11678 0.50000
vt 0.00000 0.50000
vt 0.33333 1.00000
vt 0.33333 0.00000
vt 0.50000 0.00000
vt 0.50000 1.00000
vt 0.88322 0.50000
vt 1.00000 0.50000
vt 0.75000 0.93301
vt 0.69161 0.83188
vt 0.50000 1.00000
vt 0.50000 0.00000
vt 0.66667 0.00000
vt 0.66667 1.00000
vt 0.00000 0.50000
vt 0.11678 0.50000
vt 0.30839 0.83188
vt 0.25000 0.93301
vt 0.50000 1.00000
vt 0.50000 0.00000
vt 0.66667 0.00000
vt 0.66667 1.00000
vt 0.69161 0.83188
vt 0.75000 0.93301
vt 0.25000 0.93301
vt 0.30839 0.83188
vt 0.66667 1.00000
vt 0.66667 0.00000
vt 0.83333 0.00000
vt 0.83333 1.00000
vt 0.25000 0.93301
vt 0.30839 0.83188
vt 0.69161 0.83188
vt 0.75000 0.93301
vt 0.66667 1.00000
vt 0.66667 0.00000
vt 0.83333 0.00000
vt 0.83333 1.00000
vt 0.30839 0.83188
vt 0.25000 0.93301
vt 0.00000 0.50000
vt 0.11678 0.50000
vt 0.83333 1.00000
vt 0.83333 0.00000
vt 1.00000 0.00000
vt 1.00000 1.00000
vt 0.75000 0.93301
vt 0.69161 0.83188
vt 0.88322 0.50000
vt 1.00000 0.50000
vt 0.83333 1.00000
vt 0.83333 0.00000
vt 1.00000 0.00000
vt 1.00000 1.00000
# 96 texture coordinates

vn 0 -1 0
vn 0 -1 0
vn 0 -1 0
vn 0 -1 0
vn 0.836737 0.257866 -0.48309
vn 0.836737 0.257866 -0.48309
vn 0.836737 0.257866 0.48309
vn 0.836737 0.257866 0.48309
vn 0 1 0
vn 0 1 0
vn 0 1 0
vn 0 1 0
vn -0.848456 -0.200409 0.489856
vn -0.848456 -0.200409 0.489856
vn -0.848456 -0.200409 -0.489856
vn -0.848456 -0.200409 -0.489856
vn 0 -1 0
vn 0 -1 0
vn 0 -1 0
vn 0 -1 0
vn 0.836737 0.257866 0.48309
vn 0.836737 0.257866 0.48309
vn 6.65192e-009 0.257866 0.966181
vn 6.65192e-009 0.257866 0.966181
vn 0 1 0
vn 0 1 0
vn 0 1 0
vn 0 1 0
vn -0.848456 -0.200409 -0.489856
vn -0.848456 -0.200409 -0.489856
vn 5.78441e-009 -0.200409 -0.979712
vn 5.78441e-009 -0.200409 -0.979712
vn 0 -1 0
vn 0 -1 0
vn 0 -1 0
vn 0 -1 0
vn 6.65192e-009 0.257866 0.966181
vn 6.65192e-009 0.257866 0.966181
vn -0.836737 0.257866 0.48309
vn -0.836737 0.257866 0.48309
vn 0 1 0
vn 0 1 0
vn 0 1 0
vn 0 1 0
vn 5.78441e-009 -0.200409 -0.979712
vn 5.78441e-009 -0.200409 -0.979712
vn 0.848456 -0.200409 -0.489856
vn 0.848456 -0.200409 -0.489856
vn 0 -1 0
vn 0 -1 0
vn 0 -1 0
vn 0 -1 0
vn -0.836737 0.257866 0.48309
vn -0.836737 0.257866 0.48309
vn -0.836737 0.257866 -0.48309
vn -0.836737 0.257866 -0.48309
vn 0 1 0
vn 0 1 0
vn 0 1 0
vn 0 1 0
vn 0.848456 -0.200409 -0.489856
vn 0.848456 -0.200409 -0.489856
vn 0.848456 -0.200409 0.489856
vn 0.848456 -0.200409 0.489856
vn 0 -1 0
vn 0 -1 0
vn 0 -1 0
vn 0 -1 0
vn -0.836737 0.257866 -0.48309
vn -0.836737 0.257866 -0.48309
vn -6.65192e-009 0.257866 -0.966181
vn -6.65192e-009 0.257866 -0.966181
vn 0 1 0
vn 0 1 0
vn 0 1 0
vn 0 1 0
vn 0.848456 -0.200409 0.489856
vn 0.848456 -0.200409 0.489856
vn -5.78441e-009 -0.200409 0.979712
vn -5.78441e-009 -0.200409 0.979712
vn 0 -1 0
vn 0 -1 0
vn 0 -1 0
vn 0 -1 0
vn -6.65192e-009 0.257866 -0.966181
vn -6.65192e-009 0.257866 -0.966181
vn 0.836737 0.257866 -0.48309
vn 0.836737 0.257866 -0.48309
vn 0 1 0
vn 0 1 0
vn 0 1 0
vn 0 1 0
vn -5.78441e-009 -0.200409 0.979712
vn -5.78441e-009 -0.200409 0.979712
vn -0.848456 -0.200409 0.489856
vn -0.848456 -0.200409 0.489856
# 96 vertex normals

usemtl TEAM
f 5/5/5 6/6/6 14/7/7 13/8/8
f 7/9/9 8/10/10 16/11/11 15/12/12
f 9/13/13 10/14/14 18/15/15 17/16/16
f 11/17/17 12/18/18 20/19/19 19/20/20
f 13/21/21 14/22/22 22/23/23 21/24/24
f 15/25/25 16/26/26 24/27/27 23/28/28
f 17/29/29 18/30/30 26/31/31 25/32/32
f 19/33/33 20/34/34 28/35/35 27/36/36
f 21/37/37 22/38/38 30/39/39 29/40/40
f 23/41/41 24/42/42 32/43/43 31/44/44
f 25/45/45 26/46/46 34/47/47 33/48/48
f 27/49/49 28/50/50 36/51/51 35/52/52
f 29/53/53 30/54/54 38/55/55 37/56/56
f 31/57/57 32/58/58 40/59/59 39/60/60
f 33/61/61 34/62/62 42/63/63 41/64/64
f 35/65/65 36/66/66 44/67/67 43/68/68
f 37/69/69 38/70/70 46/71/71 45/72/72
f 39/73/73 40/74/74 48/75/75 47/76/76
f 41/77/77 42/78/78 50/79/79 49/80/80
f 43/81/81 44/82/82 52/83/83 51/84/84
f 45/85/85 46/86/86 6/87/87 5/88/88
f 47/89/89 48/90/90 8/91/91 7/92/92
f 49/93/93 50/94/94 10/95/95 9/96/96
f 51/97/97 52/98/98 12/99/99 11/100/100
# 24 facets

v -0.965523 0.0102598 -1.0155
v -0.965523 1.31619 -1.0155
v 1.03448 0.0102598 -1.0155
v 1.03448 1.31619 -1.0155
v 1.03448 0.0102598 0.796708
v 1.03448 1.31619 0.796708
v -0.965523 0.0102598 0.796708
v -0.965523 1.31619 0.796708
v 0.140159 0.0102598 -1.0155
v 0.139408 0.0102598 0.796708
v 0.889915 0.0102598 -1.0155
v 0.890667 0.0102598 0.796708
v 0.348837 0.568318 -1.0155
v 0.140159 0.287876 -1.0155
v 0.464791 0.596727 -1.0155
v 0.214805 0.45366 -1.0155
v 0.490695 0.602881 -1.0155
v 0.499692 0.604886 -1.0155
v 0.504479 0.60585 -1.0155
v 0.507603 0.606394 -1.0155
v 0.509922 0.606721 -1.0155
v 0.511813 0.606917 -1.0155
v 0.513475 0.607023 -1.0155
v 0.515037 0.607057 -1.0155
v 0.516599 0.607023 -1.0155
v 0.518262 0.606917 -1.0155
v 0.520152 0.606721 -1.0155
v 0.522472 0.606394 -1.0155
v 0.525596 0.60585 -1.0155
v 0.530383 0.604886 -1.0155
v 0.539379 0.602881 -1.0155
v 0.565284 0.596727 -1.0155
v 0.889915 0.287876 -1.0155
v 0.81527 0.45366 -1.0155
v 0.681237 0.568318 -1.0155
v 0.139408 0.287876 0.796708
v 0.348086 0.568318 0.796708
v 0.214053 0.45366 0.796708
v 0.51351 0.608847 0.796708
v 0.514297 0.609035 0.796708
v 0.514571 0.609095 0.796708
v 0.514716 0.609125 0.796708
v 0.514811 0.609141 0.796708
v 0.514882 0.609151 0.796708
v 0.514939 0.609157 0.796708
v 0.51499 0.60916 0.796708
v 0.515037 0.609161 0.796708
v 0.515085 0.60916 0.796708
v 0.515135 0.609157 0.796708
v 0.515193 0.609151 0.796708
v 0.515263 0.609141 0.796708
v 0.515358 0.609125 0.796708
v 0.515504 0.609095 0.796708
v 0.515777 0.609035 0.796708
v 0.516565 0.608847 0.796708
v 0.890667 0.287876 0.796708
v 0.816021 0.45366 0.796708
v 0.681989 0.568318 0.796708
# 58 vertices

vt 1.10568 1.57484
vt 1.10568 2.00000
vt 0.00000 2.00000
vt 1.18033 1.32094
vt 1.10568 1.57484
vt 0.00000 2.00000
vt 0.00000 0.00000
vt 2.00000 2.00000
vt 1.85544 2.00000
vt 1.85544 1.57484
vt 2.00000 0.00000
vt 2.00000 0.00000
vt 1.85544 1.57484
vt 1.78079 1.32094
vt 1.31436 1.14535
vt 1.18033 1.32094
vt 0.00000 0.00000
vt 2.00000 0.00000
vt 1.78079 1.32094
vt 1.64676 1.14535
vt 1.31436 1.14535
vt 0.00000 0.00000
vt 1.43031 1.10184
vt 2.00000 0.00000
vt 1.64676 1.14535
vt 1.53081 1.10184
vt 1.43031 1.10184
vt 0.00000 0.00000
vt 2.00000 0.00000
vt 1.45622 1.09241
vt 2.00000 0.00000
vt 1.53081 1.10184
vt 1.50490 1.09241
vt 2.00000 0.00000
vt 1.50490 1.09241
vt 1.49591 1.08934
vt 1.46521 1.08934
vt 1.45622 1.09241
vt 2.00000 0.00000
vt 2.00000 0.00000
vt 1.49591 1.08934
vt 1.49112 1.08787
vt 1.47000 1.08787
vt 1.46521 1.08934
vt 2.00000 0.00000
vt 2.00000 0.00000
vt 1.49112 1.08787
vt 1.48799 1.08703
vt 1.47313 1.08703
vt 1.47000 1.08787
vt 2.00000 0.00000
vt 2.00000 0.00000
vt 1.48799 1.08703
vt 1.48568 1.08653
vt 1.47544 1.08653
vt 1.47313 1.08703
vt 2.00000 0.00000
vt 2.00000 0.00000
vt 1.48568 1.08653
vt 1.48378 1.08623
vt 1.47734 1.08623
vt 1.47544 1.08653
vt 2.00000 0.00000
vt 2.00000 0.00000
vt 1.48378 1.08623
vt 1.48212 1.08607
vt 1.47900 1.08607
vt 1.47734 1.08623
vt 2.00000 0.00000
vt 2.00000 0.00000
vt 1.48212 1.08607
vt 1.48056 1.08602
vt 2.00000 0.00000
vt 1.48056 1.08602
vt 1.47900 1.08607
vt 0.00000 2.00000
vt 0.00000 0.00000
vt 2.00000 0.00000
vt 2.00000 2.00000
vt 2.00000 2.00000
vt 0.89507 2.00000
vt 0.89507 1.57484
vt 0.14381 2.00000
vt 0.00000 2.00000
vt 0.00000 0.00000
vt 0.14381 1.57484
vt 0.21846 1.32094
vt 0.14381 1.57484
vt 0.00000 0.00000
vt 2.00000 2.00000
vt 0.89507 1.57484
vt 0.82042 1.32094
vt 2.00000 0.00000
vt 0.35249 1.14535
vt 0.21846 1.32094
vt 0.00000 0.00000
vt 2.00000 0.00000
vt 0.82042 1.32094
vt 0.68639 1.14535
vt 0.51791 1.08328
vt 0.35249 1.14535
vt 0.00000 0.00000
vt 2.00000 0.00000
vt 0.68639 1.14535
vt 0.52097 1.08328
vt 0.00000 0.00000
vt 0.51870 1.08299
vt 0.51791 1.08328
vt 0.00000 0.00000
vt 0.00000 0.00000
vt 0.52097 1.08328
vt 0.52018 1.08299
vt 0.51897 1.08290
vt 0.51870 1.08299
vt 0.00000 0.00000
vt 0.00000 0.00000
vt 0.52018 1.08299
vt 0.51991 1.08290
vt 0.51912 1.08285
vt 0.51897 1.08290
vt 0.00000 0.00000
vt 0.00000 0.00000
vt 0.51991 1.08290
vt 0.51976 1.08285
vt 0.51921 1.08283
vt 0.51912 1.08285
vt 0.00000 0.00000
vt 0.00000 0.00000
vt 0.51976 1.08285
vt 0.51967 1.08283
vt 0.51928 1.08281
vt 0.51921 1.08283
vt 0.00000 0.00000
vt 0.00000 0.00000
vt 0.51967 1.08283
vt 0.51960 1.08281
vt 0.51934 1.08280
vt 0.51928 1.08281
vt 0.00000 0.00000
vt 0.00000 0.00000
vt 0.51960 1.08281
vt 0.51954 1.08280
vt 0.51939 1.08280
vt 0.51934 1.08280
vt 0.00000 0.00000
vt 0.00000 0.00000
vt 0.51954 1.08280
vt 0.51949 1.08280
vt 0.51944 1.08280
vt 0.51939 1.08280
vt 0.00000 0.00000
vt 0.51949 1.08280
vt 0.51944 1.08280
vt 0.00000 0.00000
vt 0.00000 2.00000
vt 0.00000 0.00000
vt 2.00000 0.00000
vt 2.00000 2.00000
vt 0.00000 2.00000
vt 0.00000 0.00000
vt 2.00000 0.00000
vt 2.00000 2.00000
# 162 texture coordinates

vn 0 0 -1
vn 0 0 -1
vn 0 0 -1
vn 0 0 -1
vn 0 0 -1
vn 0 0 -1
vn 0 0 -1
vn 0 0 -1
vn 0 0 -1
vn 0 0 -1
vn 0 0 -1
vn 0 0 -1
vn 0 0 -1
vn 0 0 -1
vn 0 0 -1
vn 0 0 -1
vn 0 0 -1
vn 0 0 -1
vn 0 0 -1
vn 0 0 -1
vn 0 0 -1
vn 0 0 -1
vn 0 0 -1
vn 0 0 -1
vn 0 0 -1
vn 0 0 -1
vn 0 0 -1
vn 0 0 -1
vn 0 0 -1
vn 0 0 -1
vn 0 0 -1
vn 0 0 -1
vn 0 0 -1
vn 0 0 -1
vn 0 0 -1
vn 0 0 -1
vn 0 0 -1
vn 0 0 -1
vn 0 0 -1
vn 0 0 -1
vn 0 0 -1
vn 0 0 -1
vn 0 0 -1
vn 0 0 -1
vn 0 0 -1
vn 0 0 -1
vn 0 0 -1
vn 0 0 -1
vn 0 0 -1
vn 0 0 -1
vn 0 0 -1
vn 0 0 -1
vn 0 0 -1
vn 0 0 -1
vn 0 0 -1
vn 0 0 -1
vn 0 0 -1
vn 0 0 -1
vn 0 0 -1
vn 0 0 -1
vn 0 0 -1
vn 0 0 -1
vn 0 0 -1
vn 0 0 -1
vn 0 0 -1
vn 0 0 -1
vn 0 0 -1
vn 0 0 -1
vn 0 0 -1
vn 0 0 -1
vn 0 0 -1
vn 0 0 -1
vn 0 0 -1
vn 0 0 -1
vn 0 0 -1
vn 1 0 0
vn 1 0 0
vn 1 0 0
vn 1 0 0
vn 0 0 1
vn 0 0 1
vn 0 0 1
vn 0 0 1
vn 0 0 1
vn 0 0 1
vn 0 0 1
vn 0 0 1
vn 0 0 1
vn 0 0 1
vn 0 0 1
vn 0 0 1
vn 0 0 1
vn 0 0 1
vn 0 0 1
vn 0 0 1
vn 0 0 1
vn 0 0 1
vn 0 0 1
vn 0 0 1
vn 0 0 1
vn 0 0 1
vn 0 0 1
vn 0 0 1
vn 0 0 1
vn 0 0 1
vn 0 0 1
vn 0 0 1
vn 0 0 1
vn 0 0 1
vn 0 0 1
vn 0 0 1
vn 0 0 1
vn 0 0 1
vn 0 0 1
vn 0 0 1
vn 0 0 1
vn 0 0 1
vn 0 0 1
vn 0 0 1
vn 0 0 1
vn 0 0 1
vn 0 0 1
vn 0 0 1
vn 0 0 1
vn 0 0 1
vn 0 0 1
vn 0 0 1
vn 0 0 1
vn 0 0 1
vn 0 0 1
vn 0 0 1
vn 0 0 1
vn 0 0 1
vn 0 0 1
vn 0 0 1
vn 0 0 1
vn 0 0 1
vn 0 0 1
vn 0 0 1
vn 0 0 1
vn 0 0 1
vn 0 0 1
vn 0 0 1
vn 0 0 1
vn 0 0 1
vn 0 0 1
vn 0 0 1
vn 0 0 1
vn 0 0 1
vn 0 0 1
vn 0 0 1
vn 0 0 1
vn 0 0 1
vn 0 0 1
vn -1 0 0
vn -1 0 0
vn -1 0 0
vn -1 0 0
vn 0 1 0
vn 0 1 0
vn 0 1 0
vn 0 1 0
# 162 vertex normals

usemtl wall-inner
f 66/101/101 61/102/102 53/103/103
f 68/104/104 66/105/105 53/106/106 54/107/107
f 55/108/108 63/109/109 85/110/110 56/111/111
f 56/112/112 85/113/113 86/114/114
f 65/115/115 68/116/116 54/117/117
f 56/118/118 86/119/119 87/120/120
f 65/121/121 54/122/122 67/123/123
f 56/124/124 87/125/125 84/126/126
f 67/127/127 54/128/128 56/129/129 69/130/130
f 56/131/131 84/132/132 83/133/133
f 56/134/134 83/135/135 82/136/136
f 70/137/137 69/138/138 56/139/139
f 56/140/140 82/141/141 81/142/142
f 71/143/143 70/144/144 56/145/145
f 56/146/146 81/147/147 80/148/148
f 72/149/149 71/150/150 56/151/151
f 56/152/152 80/153/153 79/154/154
f 73/155/155 72/156/156 56/157/157
f 56/158/158 79/159/159 78/160/160
f 74/161/161 73/162/162 56/163/163
f 56/164/164 78/165/165 77/166/166
f 75/167/167 74/168/168 56/169/169
f 56/170/170 77/171/171 76/172/172
f 56/173/173 76/174/174 75/175/175
f 55/176/176 56/177/177 58/178/178 57/179/179
f 59/180/180 62/181/181 88/182/182
f 64/183/183 57/184/184 58/185/185 108/186/186
f 109/187/187 108/188/188 58/189/189
f 59/190/190 88/191/191 90/192/192 60/193/193
f 110/194/194 109/195/195 58/196/196
f 60/197/197 90/198/198 89/199/199
f 107/200/200 110/201/201 58/202/202
f 60/203/203 89/204/204 91/205/205 58/206/206
f 106/207/207 107/208/208 58/209/209
f 58/210/210 91/211/211 92/212/212
f 105/213/213 106/214/214 58/215/215
f 58/216/216 92/217/217 93/218/218
f 104/219/219 105/220/220 58/221/221
f 58/222/222 93/223/223 94/224/224
f 103/225/225 104/226/226 58/227/227
f 58/228/228 94/229/229 95/230/230
f 102/231/231 103/232/232 58/233/233
f 58/234/234 95/235/235 96/236/236
f 101/237/237 102/238/238 58/239/239
f 58/240/240 96/241/241 97/242/242
f 100/243/243 101/244/244 58/245/245
f 58/246/246 97/247/247 98/248/248
f 99/249/249 100/250/250 58/251/251
f 98/252/252 99/253/253 58/254/254
f 59/255/255 60/256/256 54/257/257 53/258/258
f 54/259/259 60/260/260 58/261/261 56/262/262
# 51 facets

