#  ==========================================================================
#  
#  Wavefront OBJ format exported by Red-i Productions' "Riptide Pro"
#     (a commercial plugin for Cinema 4D PC & Mac, R9.6 or later)
#  
#  Red-i Productions
#  http://skinprops.com
#  
#  ==========================================================================
mtllib tank-factory.mtl
v -0.321935 1.34715 -0.103479
v 0.208082 1.34715 -0.406982
v 0.075578 1.34715 -0.331106
v -0.0569263 1.34715 -0.255231
v -0.189431 1.34715 -0.179355
v 0.205915 1.34715 0.203778
v 0.0739526 1.34715 0.126964
v -0.0580099 1.34715 0.0501494
v -0.189972 1.34715 -0.0266649
v -0.324102 1.34715 0.507281
v -0.32356 1.34715 0.354591
v -0.323018 1.34715 0.201901
v -0.322477 1.34715 0.0492109
v -0.851952 1.34715 0.200024
v -0.719448 1.34715 0.124148
v -0.586943 1.34715 0.0482725
v -0.454439 1.34715 -0.0276033
v -0.849785 1.34715 -0.410736
v -0.717822 1.34715 -0.333922
v -0.58586 1.34715 -0.257107
v -0.453897 1.34715 -0.180293
v -0.319768 1.34715 -0.714239
v -0.320309 1.34715 -0.561549
v -0.320851 1.34715 -0.408859
v -0.321393 1.34715 -0.256169
# 25 vertices

vt 1.00000 0.50000
vt 0.87500 0.50000
vt 0.68750 0.17524
vt 0.75000 0.06699
vt 0.87500 0.50000
vt 0.75000 0.50000
vt 0.62500 0.28349
vt 0.68750 0.17524
vt 0.75000 0.50000
vt 0.62500 0.50000
vt 0.56250 0.39175
vt 0.62500 0.28349
vt 0.62500 0.50000
vt 0.50000 0.50000
vt 0.56250 0.39175
vt 0.75000 0.06699
vt 0.68750 0.17524
vt 0.31250 0.17524
vt 0.25000 0.06699
vt 0.68750 0.17524
vt 0.62500 0.28349
vt 0.37500 0.28349
vt 0.31250 0.17524
vt 0.62500 0.28349
vt 0.56250 0.39175
vt 0.43750 0.39175
vt 0.37500 0.28349
vt 0.56250 0.39175
vt 0.50000 0.50000
vt 0.43750 0.39175
vt 0.25000 0.06699
vt 0.31250 0.17524
vt 0.12500 0.50000
vt 0.00000 0.50000
vt 0.31250 0.17524
vt 0.37500 0.28349
vt 0.25000 0.50000
vt 0.12500 0.50000
vt 0.37500 0.28349
vt 0.43750 0.39175
vt 0.37500 0.50000
vt 0.25000 0.50000
vt 0.43750 0.39175
vt 0.50000 0.50000
vt 0.37500 0.50000
vt 0.00000 0.50000
vt 0.12500 0.50000
vt 0.31250 0.82476
vt 0.25000 0.93301
vt 0.12500 0.50000
vt 0.25000 0.50000
vt 0.37500 0.71651
vt 0.31250 0.82476
vt 0.25000 0.50000
vt 0.37500 0.50000
vt 0.43750 0.60825
vt 0.37500 0.71651
vt 0.37500 0.50000
vt 0.50000 0.50000
vt 0.43750 0.60825
vt 0.25000 0.93301
vt 0.31250 0.82476
vt 0.68750 0.82476
vt 0.75000 0.93301
vt 0.31250 0.82476
vt 0.37500 0.71651
vt 0.62500 0.71651
vt 0.68750 0.82476
vt 0.37500 0.71651
vt 0.43750 0.60825
vt 0.56250 0.60825
vt 0.62500 0.71651
vt 0.43750 0.60825
vt 0.50000 0.50000
vt 0.56250 0.60825
vt 0.75000 0.93301
vt 0.68750 0.82476
vt 0.87500 0.50000
vt 1.00000 0.50000
vt 0.68750 0.82476
vt 0.62500 0.71651
vt 0.75000 0.50000
vt 0.87500 0.50000
vt 0.62500 0.71651
vt 0.56250 0.60825
vt 0.62500 0.50000
vt 0.75000 0.50000
vt 0.56250 0.60825
vt 0.50000 0.50000
vt 0.62500 0.50000
# 90 texture coordinates

vn 0 1 0
vn 0 1 0
vn 0 1 0
vn 0 1 0
vn 0 1 0
vn 0 1 0
vn 0 1 0
vn 0 1 0
vn 0 1 0
vn 0 1 0
vn 0 1 0
vn 0 1 0
vn 0 1 0
vn 0 1 0
vn 0 1 0
vn 0 1 0
vn 0 1 0
vn 0 1 0
vn 0 1 0
vn 0 1 0
vn 0 1 0
vn 0 1 0
vn 0 1 0
vn 0 1 0
vn 0 1 0
vn 0 1 0
vn 0 1 0
vn 0 1 0
vn 0 1 0
vn 0 1 0
vn 0 1 0
vn 0 1 0
vn 0 1 0
vn 0 1 0
vn 0 1 0
vn 0 1 0
vn 0 1 0
vn 0 1 0
vn 0 1 0
vn 0 1 0
vn 0 1 0
vn 0 1 0
vn 0 1 0
vn 0 1 0
vn 0 1 0
vn 0 1 0
vn 0 1 0
vn 0 1 0
vn 0 1 0
vn 0 1 0
vn 0 1 0
vn 0 1 0
vn 0 1 0
vn 0 1 0
vn 0 1 0
vn 0 1 0
vn 0 1 0
vn 0 1 0
vn 0 1 0
vn 0 1 0
vn 0 1 0
vn 0 1 0
vn 0 1 0
vn 0 1 0
vn 0 1 0
vn 0 1 0
vn 0 1 0
vn 0 1 0
vn 0 1 0
vn 0 1 0
vn 0 1 0
vn 0 1 0
vn 0 1 0
vn 0 1 0
vn 0 1 0
vn 0 1 0
vn 0 1 0
vn 0 1 0
vn 0 1 0
vn 0 1 0
vn 0 1 0
vn 0 1 0
vn 0 1 0
vn 0 1 0
vn 0 1 0
vn 0 1 0
vn 0 1 0
vn 0 1 0
vn 0 1 0
vn 0 1 0
# 90 vertex normals

usemtl rubber
f 2/1/1 3/2/2 7/3/3 6/4/4
f 3/5/5 4/6/6 8/7/7 7/8/8
f 4/9/9 5/10/10 9/11/11 8/12/12
f 5/13/13 1/14/14 9/15/15
f 6/16/16 7/17/17 11/18/18 10/19/19
f 7/20/20 8/21/21 12/22/22 11/23/23
f 8/24/24 9/25/25 13/26/26 12/27/27
f 9/28/28 1/29/29 13/30/30
f 10/31/31 11/32/32 15/33/33 14/34/34
f 11/35/35 12/36/36 16/37/37 15/38/38
f 12/39/39 13/40/40 17/41/41 16/42/42
f 13/43/43 1/44/44 17/45/45
f 14/46/46 15/47/47 19/48/48 18/49/49
f 15/50/50 16/51/51 20/52/52 19/53/53
f 16/54/54 17/55/55 21/56/56 20/57/57
f 17/58/58 1/59/59 21/60/60
f 18/61/61 19/62/62 23/63/63 22/64/64
f 19/65/65 20/66/66 24/67/67 23/68/68
f 20/69/69 21/70/70 25/71/71 24/72/72
f 21/73/73 1/74/74 25/75/75
f 22/76/76 23/77/77 3/78/78 2/79/79
f 23/80/80 24/81/81 4/82/82 3/83/83
f 24/84/84 25/85/85 5/86/86 4/87/87
f 25/88/88 1/89/89 5/90/90
# 24 facets

v 1 0.005 1
v -1 0.005 1
v 1 0.005 -1
v -1 0.005 -1
# 4 vertices

vt 0.00000 1.00000
vt 0.00000 0.00000
vt 1.00000 0.00000
vt 1.00000 1.00000
# 4 texture coordinates

vn 0 1 0
vn 0 1 0
vn 0 1 0
vn 0 1 0
# 4 vertex normals

usemtl floor
f 26/91/91 28/92/92 29/93/93 27/94/94
# 1 facets

v 0.135254 1.16404 -0.365613
v 0.27594 1.16404 -0.446839
v 0.27594 1.16404 -0.446839
v 0.0248706 2.25029 -0.301884
v 0.0248706 2.25029 -0.301884
v -0.057178 2.25029 -0.254513
v -0.057178 2.25029 -0.254513
v 0.135254 1.16404 -0.365613
v 0.135254 1.16404 0.1675
v 0.27594 1.16404 0.248726
v 0.27594 1.16404 0.248726
v 0.0248706 2.25029 0.10377
v 0.0248706 2.25029 0.10377
v -0.057178 2.25029 0.0563997
v -0.057178 2.25029 0.0563997
v 0.135254 1.16404 0.1675
v -0.326436 1.16404 0.434057
v -0.326436 1.16404 0.596508
v -0.326436 1.16404 0.596508
v -0.326436 2.25029 0.306598
v -0.326436 2.25029 0.306598
v -0.326436 2.25029 0.211856
v -0.326436 2.25029 0.211856
v -0.326436 1.16404 0.434057
v -0.788126 1.16404 0.1675
v -0.928813 1.16404 0.248726
v -0.928813 1.16404 0.248726
v -0.677743 2.25029 0.10377
v -0.677743 2.25029 0.10377
v -0.595694 2.25029 0.0563997
v -0.595694 2.25029 0.0563997
v -0.788126 1.16404 0.1675
v -0.788126 1.16404 -0.365613
v -0.928813 1.16404 -0.446839
v -0.928813 1.16404 -0.446839
v -0.677743 2.25029 -0.301884
v -0.677743 2.25029 -0.301884
v -0.595694 2.25029 -0.254513
v -0.595694 2.25029 -0.254513
v -0.788126 1.16404 -0.365613
v -0.326436 1.16404 -0.63217
v -0.326436 1.16404 -0.794621
v -0.326436 1.16404 -0.794621
v -0.326436 2.25029 -0.504711
v -0.326436 2.25029 -0.504711
v -0.326436 2.25029 -0.409969
v -0.326436 2.25029 -0.409969
v -0.326436 1.16404 -0.63217
# 48 vertices

vt 0.11678 0.50000
vt 0.00000 0.50000
vt 0.25000 0.06699
vt 0.30839 0.16812
vt 0.00000 1.00000
vt 0.00000 0.00000
vt 0.16667 0.00000
vt 0.16667 1.00000
vt 1.00000 0.50000
vt 0.88322 0.50000
vt 0.69161 0.16812
vt 0.75000 0.06699
vt 0.00000 1.00000
vt 0.00000 0.00000
vt 0.16667 0.00000
vt 0.16667 1.00000
vt 0.30839 0.16812
vt 0.25000 0.06699
vt 0.75000 0.06699
vt 0.69161 0.16812
vt 0.16667 1.00000
vt 0.16667 0.00000
vt 0.33333 0.00000
vt 0.33333 1.00000
vt 0.75000 0.06699
vt 0.69161 0.16812
vt 0.30839 0.16812
vt 0.25000 0.06699
vt 0.16667 1.00000
vt 0.16667 0.00000
vt 0.33333 0.00000
vt 0.33333 1.00000
vt 0.69161 0.16812
vt 0.75000 0.06699
vt 1.00000 0.50000
vt 0.88322 0.50000
vt 0.33333 1.00000
vt 0.33333 0.00000
vt 0.50000 0.00000
vt 0.50000 1.00000
vt 0.25000 0.06699
vt 0.30839 0.16812
vt 0.11678 0.50000
vt 0.00000 0.50000
vt 0.33333 1.00000
vt 0.33333 0.00000
vt 0.50000 0.00000
vt 0.50000 1.00000
vt 0.88322 0.50000
vt 1.00000 0.50000
vt 0.75000 0.93301
vt 0.69161 0.83188
vt 0.50000 1.00000
vt 0.50000 0.00000
vt 0.66667 0.00000
vt 0.66667 1.00000
vt 0.00000 0.50000
vt 0.11678 0.50000
vt 0.30839 0.83188
vt 0.25000 0.93301
vt 0.50000 1.00000
vt 0.50000 0.00000
vt 0.66667 0.00000
vt 0.66667 1.00000
vt 0.69161 0.83188
vt 0.75000 0.93301
vt 0.25000 0.93301
vt 0.30839 0.83188
vt 0.66667 1.00000
vt 0.66667 0.00000
vt 0.83333 0.00000
vt 0.83333 1.00000
vt 0.25000 0.93301
vt 0.30839 0.83188
vt 0.69161 0.83188
vt 0.75000 0.93301
vt 0.66667 1.00000
vt 0.66667 0.00000
vt 0.83333 0.00000
vt 0.83333 1.00000
vt 0.30839 0.83188
vt 0.25000 0.93301
vt 0.00000 0.50000
vt 0.11678 0.50000
vt 0.83333 1.00000
vt 0.83333 0.00000
vt 1.00000 0.00000
vt 1.00000 1.00000
vt 0.75000 0.93301
vt 0.69161 0.83188
vt 0.88322 0.50000
vt 1.00000 0.50000
vt 0.83333 1.00000
vt 0.83333 0.00000
vt 1.00000 0.00000
vt 1.00000 1.00000
# 96 texture coordinates

vn 0 -1 0
vn 0 -1 0
vn 0 -1 0
vn 0 -1 0
vn 0.974313 0.225199 -6.50051e-008
vn 0.974313 0.225199 -6.50051e-008
vn 0.974313 0.225199 -6.50051e-008
vn 0.974313 0.225199 -6.50051e-008
vn 0 1 0
vn 0 1 0
vn 0 1 0
vn 0 1 0
vn -0.984668 -0.174437 -1.813e-008
vn -0.984668 -0.174437 -1.813e-008
vn -0.984668 -0.174437 -1.813e-008
vn -0.984668 -0.174437 -1.813e-008
vn 0 -1 0
vn 0 -1 0
vn 0 -1 0
vn 0 -1 0
vn 0.487156 0.225199 0.84378
vn 0.487156 0.225199 0.84378
vn 0.487156 0.225199 0.84378
vn 0.487156 0.225199 0.84378
vn 0 1 0
vn 0 1 0
vn 0 1 0
vn 0 1 0
vn -0.492334 -0.174437 -0.852748
vn -0.492334 -0.174437 -0.852748
vn -0.492334 -0.174437 -0.852748
vn -0.492334 -0.174437 -0.852748
vn 0 -1 0
vn 0 -1 0
vn 0 -1 0
vn 0 -1 0
vn -0.487156 0.225199 0.84378
vn -0.487156 0.225199 0.84378
vn -0.487156 0.225199 0.84378
vn -0.487156 0.225199 0.84378
vn 0 1 0
vn 0 1 0
vn 0 1 0
vn 0 1 0
vn 0.492334 -0.174437 -0.852748
vn 0.492334 -0.174437 -0.852748
vn 0.492334 -0.174437 -0.852748
vn 0.492334 -0.174437 -0.852748
vn 0 -1 0
vn 0 -1 0
vn 0 -1 0
vn 0 -1 0
vn -0.974313 0.225199 6.50051e-008
vn -0.974313 0.225199 6.50051e-008
vn -0.974313 0.225199 6.50051e-008
vn -0.974313 0.225199 6.50051e-008
vn 0 1 0
vn 0 1 0
vn 0 1 0
vn 0 1 0
vn 0.984668 -0.174437 1.813e-008
vn 0.984668 -0.174437 1.813e-008
vn 0.984668 -0.174437 1.813e-008
vn 0.984668 -0.174437 1.813e-008
vn 0 -1 0
vn 0 -1 0
vn 0 -1 0
vn 0 -1 0
vn -0.487156 0.225199 -0.84378
vn -0.487156 0.225199 -0.84378
vn -0.487156 0.225199 -0.84378
vn -0.487156 0.225199 -0.84378
vn 0 1 0
vn 0 1 0
vn 0 1 0
vn 0 1 0
vn 0.492334 -0.174437 0.852748
vn 0.492334 -0.174437 0.852748
vn 0.492334 -0.174437 0.852748
vn 0.492334 -0.174437 0.852748
vn 0 -1 0
vn 0 -1 0
vn 0 -1 0
vn 0 -1 0
vn 0.487156 0.225199 -0.84378
vn 0.487156 0.225199 -0.84378
vn 0.487156 0.225199 -0.84378
vn 0.487156 0.225199 -0.84378
vn 0 1 0
vn 0 1 0
vn 0 1 0
vn 0 1 0
vn -0.492334 -0.174437 0.852748
vn -0.492334 -0.174437 0.852748
vn -0.492334 -0.174437 0.852748
vn -0.492334 -0.174437 0.852748
# 96 vertex normals

usemtl TEAM
f 30/95/95 31/96/96 39/97/97 38/98/98
f 32/99/99 33/100/100 41/101/101 40/102/102
f 34/103/103 35/104/104 43/105/105 42/106/106
f 36/107/107 37/108/108 45/109/109 44/110/110
f 38/111/111 39/112/112 47/113/113 46/114/114
f 40/115/115 41/116/116 49/117/117 48/118/118
f 42/119/119 43/120/120 51/121/121 50/122/122
f 44/123/123 45/124/124 53/125/125 52/126/126
f 46/127/127 47/128/128 55/129/129 54/130/130
f 48/131/131 49/132/132 57/133/133 56/134/134
f 50/135/135 51/136/136 59/137/137 58/138/138
f 52/139/139 53/140/140 61/141/141 60/142/142
f 54/143/143 55/144/144 63/145/145 62/146/146
f 56/147/147 57/148/148 65/149/149 64/150/150
f 58/151/151 59/152/152 67/153/153 66/154/154
f 60/155/155 61/156/156 69/157/157 68/158/158
f 62/159/159 63/160/160 71/161/161 70/162/162
f 64/163/163 65/164/164 73/165/165 72/166/166
f 66/167/167 67/168/168 75/169/169 74/170/170
f 68/171/171 69/172/172 77/173/173 76/174/174
f 70/175/175 71/176/176 31/177/177 30/178/178
f 72/179/179 73/180/180 33/181/181 32/182/182
f 74/183/183 75/184/184 35/185/185 34/186/186
f 76/187/187 77/188/188 37/189/189 36/190/190
# 24 facets

v -0.965523 0.0102598 -1.0155
v -0.965523 1.31619 -1.0155
v 1.03448 0.0102598 -1.0155
v 1.03448 1.31619 -1.0155
v 1.03448 0.0102598 0.796708
v 1.03448 1.31619 0.796708
v -0.965523 0.0102598 0.796708
v -0.965523 1.31619 0.796708
v 0.140159 0.0102598 -1.0155
v 0.139408 0.0102598 0.796708
v 0.889915 0.0102598 -1.0155
v 0.890667 0.0102598 0.796708
v 0.348837 0.568318 -1.0155
v 0.140159 0.287876 -1.0155
v 0.464791 0.596727 -1.0155
v 0.214805 0.45366 -1.0155
v 0.490695 0.602881 -1.0155
v 0.499692 0.604886 -1.0155
v 0.504479 0.60585 -1.0155
v 0.507603 0.606394 -1.0155
v 0.509922 0.606721 -1.0155
v 0.511813 0.606917 -1.0155
v 0.513475 0.607023 -1.0155
v 0.515037 0.607057 -1.0155
v 0.516599 0.607023 -1.0155
v 0.518262 0.606917 -1.0155
v 0.520152 0.606721 -1.0155
v 0.522472 0.606394 -1.0155
v 0.525596 0.60585 -1.0155
v 0.530383 0.604886 -1.0155
v 0.539379 0.602881 -1.0155
v 0.565284 0.596727 -1.0155
v 0.889915 0.287876 -1.0155
v 0.81527 0.45366 -1.0155
v 0.681237 0.568318 -1.0155
v 0.139408 0.287876 0.796708
v 0.348086 0.568318 0.796708
v 0.214053 0.45366 0.796708
v 0.51351 0.608847 0.796708
v 0.514297 0.609035 0.796708
v 0.514571 0.609095 0.796708
v 0.514716 0.609125 0.796708
v 0.514811 0.609141 0.796708
v 0.514882 0.609151 0.796708
v 0.514939 0.609157 0.796708
v 0.51499 0.60916 0.796708
v 0.515037 0.609161 0.796708
v 0.515085 0.60916 0.796708
v 0.515135 0.609157 0.796708
v 0.515193 0.609151 0.796708
v 0.515263 0.609141 0.796708
v 0.515358 0.609125 0.796708
v 0.515504 0.609095 0.796708
v 0.515777 0.609035 0.796708
v 0.516565 0.608847 0.796708
v 0.890667 0.287876 0.796708
v 0.816021 0.45366 0.796708
v 0.681989 0.568318 0.796708
# 58 vertices

vt 0.55956 0.63709
vt 0.55956 0.77480
vt 0.00000 0.77480
vt 0.59733 0.55486
vt 0.55956 0.63709
vt 0.00000 0.77480
vt 0.00000 0.12702
vt 1.01215 0.77480
vt 0.93899 0.77480
vt 0.93899 0.63709
vt 1.01215 0.12702
vt 1.01215 0.12702
vt 0.93899 0.63709
vt 0.90121 0.55486
vt 0.66516 0.49798
vt 0.59733 0.55486
vt 0.00000 0.12702
vt 1.01215 0.12702
vt 0.90121 0.55486
vt 0.83338 0.49798
vt 0.66516 0.49798
vt 0.00000 0.12702
vt 0.72384 0.48389
vt 1.01215 0.12702
vt 0.83338 0.49798
vt 0.77470 0.48389
vt 0.72384 0.48389
vt 0.00000 0.12702
vt 1.01215 0.12702
vt 0.73695 0.48084
vt 1.01215 0.12702
vt 0.77470 0.48389
vt 0.76159 0.48084
vt 1.01215 0.12702
vt 0.76159 0.48084
vt 0.75704 0.47985
vt 0.74151 0.47985
vt 0.73695 0.48084
vt 1.01215 0.12702
vt 1.01215 0.12702
vt 0.75704 0.47985
vt 0.75461 0.47937
vt 0.74393 0.47937
vt 0.74151 0.47985
vt 1.01215 0.12702
vt 1.01215 0.12702
vt 0.75461 0.47937
vt 0.75303 0.47910
vt 0.74551 0.47910
vt 0.74393 0.47937
vt 1.01215 0.12702
vt 1.01215 0.12702
vt 0.75303 0.47910
vt 0.75186 0.47894
vt 0.74668 0.47894
vt 0.74551 0.47910
vt 1.01215 0.12702
vt 1.01215 0.12702
vt 0.75186 0.47894
vt 0.75090 0.47884
vt 0.74764 0.47884
vt 0.74668 0.47894
vt 1.01215 0.12702
vt 1.01215 0.12702
vt 0.75090 0.47884
vt 0.75006 0.47879
vt 0.74848 0.47879
vt 0.74764 0.47884
vt 1.01215 0.12702
vt 1.01215 0.12702
vt 0.75006 0.47879
vt 0.74927 0.47877
vt 1.01215 0.12702
vt 0.74927 0.47877
vt 0.74848 0.47879
vt 0.04438 0.77480
vt 0.04438 0.12702
vt 0.96149 0.12702
vt 0.96149 0.77480
vt 1.01215 0.77480
vt 0.45297 0.77480
vt 0.45297 0.63709
vt 0.07278 0.77480
vt 0.00000 0.77480
vt 0.00000 0.12702
vt 0.07278 0.63709
vt 0.11055 0.55486
vt 0.07278 0.63709
vt 0.00000 0.12702
vt 1.01215 0.77480
vt 0.45297 0.63709
vt 0.41519 0.55486
vt 1.01215 0.12702
vt 0.17838 0.49798
vt 0.11055 0.55486
vt 0.00000 0.12702
vt 1.01215 0.12702
vt 0.41519 0.55486
vt 0.34736 0.49798
vt 0.26210 0.47788
vt 0.17838 0.49798
vt 0.00000 0.12702
vt 1.01215 0.12702
vt 0.34736 0.49798
vt 0.26365 0.47788
vt 0.00000 0.12702
vt 0.26250 0.47779
vt 0.26210 0.47788
vt 0.00000 0.12702
vt 0.00000 0.12702
vt 0.26365 0.47788
vt 0.26325 0.47779
vt 0.26264 0.47776
vt 0.26250 0.47779
vt 0.00000 0.12702
vt 0.00000 0.12702
vt 0.26325 0.47779
vt 0.26311 0.47776
vt 0.26271 0.47774
vt 0.26264 0.47776
vt 0.00000 0.12702
vt 0.00000 0.12702
vt 0.26311 0.47776
vt 0.26304 0.47774
vt 0.26276 0.47773
vt 0.26271 0.47774
vt 0.00000 0.12702
vt 0.00000 0.12702
vt 0.26304 0.47774
vt 0.26299 0.47773
vt 0.26280 0.47773
vt 0.26276 0.47773
vt 0.00000 0.12702
vt 0.00000 0.12702
vt 0.26299 0.47773
vt 0.26295 0.47773
vt 0.26282 0.47773
vt 0.26280 0.47773
vt 0.00000 0.12702
vt 0.00000 0.12702
vt 0.26295 0.47773
vt 0.26292 0.47773
vt 0.26285 0.47773
vt 0.26282 0.47773
vt 0.00000 0.12702
vt 0.00000 0.12702
vt 0.26292 0.47773
vt 0.26290 0.47773
vt 0.26287 0.47772
vt 0.26285 0.47773
vt 0.00000 0.12702
vt 0.26290 0.47773
vt 0.26287 0.47772
vt 0.00000 0.12702
vt 0.05066 0.77480
vt 0.05066 0.12702
vt 0.96777 0.12702
vt 0.96777 0.77480
vt 0.00000 0.94856
vt 0.00000 0.04965
vt 1.01215 0.04965
vt 1.01215 0.94856
# 162 texture coordinates

vn 0 0 -1
vn 0 0 -1
vn 0 0 -1
vn 0 0 -1
vn 0 0 -1
vn 0 0 -1
vn 0 0 -1
vn 0 0 -1
vn 0 0 -1
vn 0 0 -1
vn 0 0 -1
vn 0 0 -1
vn 0 0 -1
vn 0 0 -1
vn 0 0 -1
vn 0 0 -1
vn 0 0 -1
vn 0 0 -1
vn 0 0 -1
vn 0 0 -1
vn 0 0 -1
vn 0 0 -1
vn 0 0 -1
vn 0 0 -1
vn 0 0 -1
vn 0 0 -1
vn 0 0 -1
vn 0 0 -1
vn 0 0 -1
vn 0 0 -1
vn 0 0 -1
vn 0 0 -1
vn 0 0 -1
vn 0 0 -1
vn 0 0 -1
vn 0 0 -1
vn 0 0 -1
vn 0 0 -1
vn 0 0 -1
vn 0 0 -1
vn 0 0 -1
vn 0 0 -1
vn 0 0 -1
vn 0 0 -1
vn 0 0 -1
vn 0 0 -1
vn 0 0 -1
vn 0 0 -1
vn 0 0 -1
vn 0 0 -1
vn 0 0 -1
vn 0 0 -1
vn 0 0 -1
vn 0 0 -1
vn 0 0 -1
vn 0 0 -1
vn 0 0 -1
vn 0 0 -1
vn 0 0 -1
vn 0 0 -1
vn 0 0 -1
vn 0 0 -1
vn 0 0 -1
vn 0 0 -1
vn 0 0 -1
vn 0 0 -1
vn 0 0 -1
vn 0 0 -1
vn 0 0 -1
vn 0 0 -1
vn 0 0 -1
vn 0 0 -1
vn 0 0 -1
vn 0 0 -1
vn 0 0 -1
vn 1 0 0
vn 1 0 0
vn 1 0 0
vn 1 0 0
vn 0 0 1
vn 0 0 1
vn 0 0 1
vn 0 0 1
vn 0 0 1
vn 0 0 1
vn 0 0 1
vn 0 0 1
vn 0 0 1
vn 0 0 1
vn 0 0 1
vn 0 0 1
vn 0 0 1
vn 0 0 1
vn 0 0 1
vn 0 0 1
vn 0 0 1
vn 0 0 1
vn 0 0 1
vn 0 0 1
vn 0 0 1
vn 0 0 1
vn 0 0 1
vn 0 0 1
vn 0 0 1
vn 0 0 1
vn 0 0 1
vn 0 0 1
vn 0 0 1
vn 0 0 1
vn 0 0 1
vn 0 0 1
vn 0 0 1
vn 0 0 1
vn 0 0 1
vn 0 0 1
vn 0 0 1
vn 0 0 1
vn 0 0 1
vn 0 0 1
vn 0 0 1
vn 0 0 1
vn 0 0 1
vn 0 0 1
vn 0 0 1
vn 0 0 1
vn 0 0 1
vn 0 0 1
vn 0 0 1
vn 0 0 1
vn 0 0 1
vn 0 0 1
vn 0 0 1
vn 0 0 1
vn 0 0 1
vn 0 0 1
vn 0 0 1
vn 0 0 1
vn 0 0 1
vn 0 0 1
vn 0 0 1
vn 0 0 1
vn 0 0 1
vn 0 0 1
vn 0 0 1
vn 0 0 1
vn 0 0 1
vn 0 0 1
vn 0 0 1
vn 0 0 1
vn 0 0 1
vn 0 0 1
vn 0 0 1
vn 0 0 1
vn 0 0 1
vn -1 0 0
vn -1 0 0
vn -1 0 0
vn -1 0 0
vn 0 1 0
vn 0 1 0
vn 0 1 0
vn 0 1 0
# 162 vertex normals

usemtl wood
f 91/191/191 86/192/192 78/193/193
f 93/194/194 91/195/195 78/196/196 79/197/197
f 80/198/198 88/199/199 110/200/200 81/201/201
f 81/202/202 110/203/203 111/204/204
f 90/205/205 93/206/206 79/207/207
f 81/208/208 111/209/209 112/210/210
f 90/211/211 79/212/212 92/213/213
f 81/214/214 112/215/215 109/216/216
f 92/217/217 79/218/218 81/219/219 94/220/220
f 81/221/221 109/222/222 108/223/223
f 81/224/224 108/225/225 107/226/226
f 95/227/227 94/228/228 81/229/229
f 81/230/230 107/231/231 106/232/232
f 96/233/233 95/234/234 81/235/235
f 81/236/236 106/237/237 105/238/238
f 97/239/239 96/240/240 81/241/241
f 81/242/242 105/243/243 104/244/244
f 98/245/245 97/246/246 81/247/247
f 81/248/248 104/249/249 103/250/250
f 99/251/251 98/252/252 81/253/253
f 81/254/254 103/255/255 102/256/256
f 100/257/257 99/258/258 81/259/259
f 81/260/260 102/261/261 101/262/262
f 81/263/263 101/264/264 100/265/265
f 80/266/266 81/267/267 83/268/268 82/269/269
f 84/270/270 87/271/271 113/272/272
f 89/273/273 82/274/274 83/275/275 133/276/276
f 134/277/277 133/278/278 83/279/279
f 84/280/280 113/281/281 115/282/282 85/283/283
f 135/284/284 134/285/285 83/286/286
f 85/287/287 115/288/288 114/289/289
f 132/290/290 135/291/291 83/292/292
f 85/293/293 114/294/294 116/295/295 83/296/296
f 131/297/297 132/298/298 83/299/299
f 83/300/300 116/301/301 117/302/302
f 130/303/303 131/304/304 83/305/305
f 83/306/306 117/307/307 118/308/308
f 129/309/309 130/310/310 83/311/311
f 83/312/312 118/313/313 119/314/314
f 128/315/315 129/316/316 83/317/317
f 83/318/318 119/319/319 120/320/320
f 127/321/321 128/322/322 83/323/323
f 83/324/324 120/325/325 121/326/326
f 126/327/327 127/328/328 83/329/329
f 83/330/330 121/331/331 122/332/332
f 125/333/333 126/334/334 83/335/335
f 83/336/336 122/337/337 123/338/338
f 124/339/339 125/340/340 83/341/341
f 123/342/342 124/343/343 83/344/344
f 84/345/345 85/346/346 79/347/347 78/348/348
f 79/349/349 85/350/350 83/351/351 81/352/352
# 51 facets

