# Blender v2.73 (sub 0) OBJ File: 'tower.blend'
# www.blender.org
o Cube
v 1.000000 0.000000 -1.000000
v 1.000000 0.000000 1.000000
v -1.000000 0.000000 1.000000
v -1.000000 0.000000 -1.000000
v 0.253082 3.737908 -0.253082
v 0.253082 3.737908 0.253082
v -0.253082 3.737908 0.253082
v -0.253082 3.737908 -0.253082
v 0.253082 4.038667 -0.253082
v -0.253082 4.038667 -0.253082
v -0.253082 4.038667 0.253082
v 0.253082 4.038667 0.253082
v 0.486077 4.354342 -0.486077
v -0.486077 4.354342 -0.486077
v -0.486077 4.354342 0.486077
v 0.486077 4.354342 0.486078
v 0.486077 4.728623 -0.486077
v -0.486077 4.728623 -0.486077
v -0.486077 4.728623 0.486077
v 0.486077 4.728623 0.486078
v 0.202943 5.103435 -0.202943
v -0.202943 5.103435 -0.202943
v -0.202943 5.103435 0.202943
v 0.202942 5.103435 0.202943
vn 0.000000 -1.000000 0.000000
vn 1.000000 0.000000 0.000000
vn 0.980600 0.195900 0.000000
vn -0.000000 0.195900 0.980600
vn -0.980600 0.195900 -0.000000
vn 0.000000 0.195900 -0.980600
vn 0.804600 -0.593800 0.000000
vn 0.000000 0.000000 -1.000000
vn -1.000000 0.000000 -0.000000
vn -0.000000 0.000000 1.000000
vn -0.000000 -0.593800 0.804600
vn -0.804600 -0.593800 -0.000000
vn 0.000000 -0.593800 -0.804600
vn 0.797900 0.602800 0.000000
vn 0.000000 1.000000 0.000000
vn -0.000000 0.602800 0.797900
vn -0.797900 0.602800 -0.000000
vn 0.000000 0.602800 -0.797900
s off
f 1//1 2//1 3//1 4//1
f 16//2 13//2 17//2 20//2
f 1//3 5//3 6//3 2//3
f 2//4 6//4 7//4 3//4
f 3//5 7//5 8//5 4//5
f 5//6 1//6 4//6 8//6
f 12//7 9//7 13//7 16//7
f 8//8 10//8 9//8 5//8
f 7//9 11//9 10//9 8//9
f 6//10 12//10 11//10 7//10
f 5//2 9//2 12//2 6//2
f 11//11 12//11 16//11 15//11
f 10//12 11//12 15//12 14//12
f 9//13 10//13 14//13 13//13
f 20//14 17//14 21//14 24//14
f 15//10 16//10 20//10 19//10
f 14//9 15//9 19//9 18//9
f 13//8 14//8 18//8 17//8
f 21//15 22//15 23//15 24//15
f 19//16 20//16 24//16 23//16
f 18//17 19//17 23//17 22//17
f 17//18 18//18 22//18 21//18
