#  ==========================================================================
#  
#  Wavefront OBJ format exported by Red-i Productions' "Riptide Pro"
#     (a commercial plugin for Cinema 4D PC & Mac, R9.6 or later)
#  
#  Red-i Productions
#  http://skinprops.com
#  
#  ==========================================================================
mtllib training-field.mtl
v 0.87 -0.00515718 0
v 0.952991 -0.00515718 0
v 0.952991 -0.00515718 0
v 0.952991 0.717506 0
v 0.952991 0.717506 0
v 0.87 0.717506 0
v 0.87 0.717506 0
v 0.87 -0.00515718 0
v 0.753442 -0.00515718 0.435
v 0.825315 -0.00515718 0.476496
v 0.825315 -0.00515718 0.476496
v 0.825315 0.717506 0.476496
v 0.825315 0.717506 0.476496
v 0.753442 0.717506 0.435
v 0.753442 0.717506 0.435
v 0.753442 -0.00515718 0.435
v 0.435 -0.00515718 0.753442
v 0.476496 -0.00515718 0.825315
v 0.476496 -0.00515718 0.825315
v 0.476496 0.717506 0.825315
v 0.476496 0.717506 0.825315
v 0.435 0.717506 0.753442
v 0.435 0.717506 0.753442
v 0.435 -0.00515718 0.753442
v 5.32721e-017 -0.00515718 0.87
v 5.83539e-017 -0.00515718 0.952991
v 5.83539e-017 -0.00515718 0.952991
v 5.83539e-017 0.717506 0.952991
v 5.83539e-017 0.717506 0.952991
v 5.32721e-017 0.717506 0.87
v 5.32721e-017 0.717506 0.87
v 5.32721e-017 -0.00515718 0.87
v -0.435 -0.00515718 0.753442
v -0.476496 -0.00515718 0.825315
v -0.476496 -0.00515718 0.825315
v -0.476496 0.717506 0.825315
v -0.476496 0.717506 0.825315
v -0.435 0.717506 0.753442
v -0.435 0.717506 0.753442
v -0.435 -0.00515718 0.753442
v -0.753442 -0.00515718 0.435
v -0.825315 -0.00515718 0.476496
v -0.825315 -0.00515718 0.476496
v -0.825315 0.717506 0.476496
v -0.825315 0.717506 0.476496
v -0.753442 0.717506 0.435
v -0.753442 0.717506 0.435
v -0.753442 -0.00515718 0.435
v -0.87 -0.00515718 1.06544e-016
v -0.952991 -0.00515718 1.16708e-016
v -0.952991 -0.00515718 1.16708e-016
v -0.952991 0.717506 1.16708e-016
v -0.952991 0.717506 1.16708e-016
v -0.87 0.717506 1.06544e-016
v -0.87 0.717506 1.06544e-016
v -0.87 -0.00515718 1.06544e-016
v -0.753442 -0.00515718 -0.435
v -0.825315 -0.00515718 -0.476496
v -0.825315 -0.00515718 -0.476496
v -0.825315 0.717506 -0.476496
v -0.825315 0.717506 -0.476496
v -0.753442 0.717506 -0.435
v -0.753442 0.717506 -0.435
v -0.753442 -0.00515718 -0.435
v -0.435 -0.00515718 -0.753442
v -0.476496 -0.00515718 -0.825315
v -0.476496 -0.00515718 -0.825315
v -0.476496 0.717506 -0.825315
v -0.476496 0.717506 -0.825315
v -0.435 0.717506 -0.753442
v -0.435 0.717506 -0.753442
v -0.435 -0.00515718 -0.753442
v -1.59816e-016 -0.00515718 -0.87
v -1.75062e-016 -0.00515718 -0.952991
v -1.75062e-016 -0.00515718 -0.952991
v -1.75062e-016 0.717506 -0.952991
v -1.75062e-016 0.717506 -0.952991
v -1.59816e-016 0.717506 -0.87
v -1.59816e-016 0.717506 -0.87
v -1.59816e-016 -0.00515718 -0.87
v 0.435 -0.00515718 -0.753442
v 0.476496 -0.00515718 -0.825315
v 0.476496 -0.00515718 -0.825315
v 0.476496 0.717506 -0.825315
v 0.476496 0.717506 -0.825315
v 0.435 0.717506 -0.753442
v 0.435 0.717506 -0.753442
v 0.435 -0.00515718 -0.753442
v 0.753442 -0.00515718 -0.435
v 0.825315 -0.00515718 -0.476496
v 0.825315 -0.00515718 -0.476496
v 0.825315 0.717506 -0.476496
v 0.825315 0.717506 -0.476496
v 0.753442 0.717506 -0.435
v 0.753442 0.717506 -0.435
v 0.753442 -0.00515718 -0.435
# 96 vertices

vt 0.04354 0.50000
vt 0.00000 0.50000
vt 0.06699 0.25000
vt 0.10470 0.27177
vt 0.00000 1.00000
vt 0.00000 0.00000
vt 0.08333 0.00000
vt 0.08333 1.00000
vt 1.00000 0.50000
vt 0.95646 0.50000
vt 0.89530 0.27177
vt 0.93301 0.25000
vt 0.00000 1.00000
vt 0.00000 0.00000
vt 0.08333 0.00000
vt 0.08333 1.00000
vt 0.10470 0.27177
vt 0.06699 0.25000
vt 0.25000 0.06699
vt 0.27177 0.10470
vt 0.08333 1.00000
vt 0.08333 0.00000
vt 0.16667 0.00000
vt 0.16667 1.00000
vt 0.93301 0.25000
vt 0.89530 0.27177
vt 0.72823 0.10470
vt 0.75000 0.06699
vt 0.08333 1.00000
vt 0.08333 0.00000
vt 0.16667 0.00000
vt 0.16667 1.00000
vt 0.27177 0.10470
vt 0.25000 0.06699
vt 0.50000 0.00000
vt 0.50000 0.04354
vt 0.16667 1.00000
vt 0.16667 0.00000
vt 0.25000 0.00000
vt 0.25000 1.00000
vt 0.75000 0.06699
vt 0.72823 0.10470
vt 0.50000 0.04354
vt 0.50000 0.00000
vt 0.16667 1.00000
vt 0.16667 0.00000
vt 0.25000 0.00000
vt 0.25000 1.00000
vt 0.50000 0.04354
vt 0.50000 0.00000
vt 0.75000 0.06699
vt 0.72823 0.10470
vt 0.25000 1.00000
vt 0.25000 0.00000
vt 0.33333 0.00000
vt 0.33333 1.00000
vt 0.50000 0.00000
vt 0.50000 0.04354
vt 0.27177 0.10470
vt 0.25000 0.06699
vt 0.25000 1.00000
vt 0.25000 0.00000
vt 0.33333 0.00000
vt 0.33333 1.00000
vt 0.72823 0.10470
vt 0.75000 0.06699
vt 0.93301 0.25000
vt 0.89530 0.27177
vt 0.33333 1.00000
vt 0.33333 0.00000
vt 0.41667 0.00000
vt 0.41667 1.00000
vt 0.25000 0.06699
vt 0.27177 0.10470
vt 0.10470 0.27177
vt 0.06699 0.25000
vt 0.33333 1.00000
vt 0.33333 0.00000
vt 0.41667 0.00000
vt 0.41667 1.00000
vt 0.89530 0.27177
vt 0.93301 0.25000
vt 1.00000 0.50000
vt 0.95646 0.50000
vt 0.41667 1.00000
vt 0.41667 0.00000
vt 0.50000 0.00000
vt 0.50000 1.00000
vt 0.06699 0.25000
vt 0.10470 0.27177
vt 0.04354 0.50000
vt 0.00000 0.50000
vt 0.41667 1.00000
vt 0.41667 0.00000
vt 0.50000 0.00000
vt 0.50000 1.00000
vt 0.95646 0.50000
vt 1.00000 0.50000
vt 0.93301 0.75000
vt 0.89530 0.72823
vt 0.50000 1.00000
vt 0.50000 0.00000
vt 0.58333 0.00000
vt 0.58333 1.00000
vt 0.00000 0.50000
vt 0.04354 0.50000
vt 0.10470 0.72823
vt 0.06699 0.75000
vt 0.50000 1.00000
vt 0.50000 0.00000
vt 0.58333 0.00000
vt 0.58333 1.00000
vt 0.89530 0.72823
vt 0.93301 0.75000
vt 0.75000 0.93301
vt 0.72823 0.89530
vt 0.58333 1.00000
vt 0.58333 0.00000
vt 0.66667 0.00000
vt 0.66667 1.00000
vt 0.06699 0.75000
vt 0.10470 0.72823
vt 0.27177 0.89530
vt 0.25000 0.93301
vt 0.58333 1.00000
vt 0.58333 0.00000
vt 0.66667 0.00000
vt 0.66667 1.00000
vt 0.72823 0.89530
vt 0.75000 0.93301
vt 0.50000 1.00000
vt 0.50000 0.95646
vt 0.66667 1.00000
vt 0.66667 0.00000
vt 0.75000 0.00000
vt 0.75000 1.00000
vt 0.25000 0.93301
vt 0.27177 0.89530
vt 0.50000 0.95646
vt 0.50000 1.00000
vt 0.66667 1.00000
vt 0.66667 0.00000
vt 0.75000 0.00000
vt 0.75000 1.00000
vt 0.50000 0.95646
vt 0.50000 1.00000
vt 0.25000 0.93301
vt 0.27177 0.89530
vt 0.75000 1.00000
vt 0.75000 0.00000
vt 0.83333 0.00000
vt 0.83333 1.00000
vt 0.50000 1.00000
vt 0.50000 0.95646
vt 0.72823 0.89530
vt 0.75000 0.93301
vt 0.75000 1.00000
vt 0.75000 0.00000
vt 0.83333 0.00000
vt 0.83333 1.00000
vt 0.27177 0.89530
vt 0.25000 0.93301
vt 0.06699 0.75000
vt 0.10470 0.72823
vt 0.83333 1.00000
vt 0.83333 0.00000
vt 0.91667 0.00000
vt 0.91667 1.00000
vt 0.75000 0.93301
vt 0.72823 0.89530
vt 0.89530 0.72823
vt 0.93301 0.75000
vt 0.83333 1.00000
vt 0.83333 0.00000
vt 0.91667 0.00000
vt 0.91667 1.00000
vt 0.10470 0.72823
vt 0.06699 0.75000
vt 0.00000 0.50000
vt 0.04354 0.50000
vt 0.91667 1.00000
vt 0.91667 0.00000
vt 1.00000 0.00000
vt 1.00000 1.00000
vt 0.93301 0.75000
vt 0.89530 0.72823
vt 0.95646 0.50000
vt 1.00000 0.50000
vt 0.91667 1.00000
vt 0.91667 0.00000
vt 1.00000 0.00000
vt 1.00000 1.00000
# 192 texture coordinates

vn 0 -1 0
vn 0 -1 0
vn 0 -1 0
vn 0 -1 0
vn 1 0 0
vn 1 0 0
vn 0.866025 0 0.5
vn 0.866025 0 0.5
vn 0 1 0
vn 0 1 0
vn 0 1 0
vn 0 1 0
vn -1 0 0
vn -1 0 0
vn -0.866025 0 -0.5
vn -0.866025 0 -0.5
vn 0 -1 0
vn 0 -1 0
vn 0 -1 0
vn 0 -1 0
vn 0.866025 0 0.5
vn 0.866025 0 0.5
vn 0.5 0 0.866025
vn 0.5 0 0.866025
vn 0 1 0
vn 0 1 0
vn 0 1 0
vn 0 1 0
vn -0.866025 0 -0.5
vn -0.866025 0 -0.5
vn -0.5 0 -0.866025
vn -0.5 0 -0.866025
vn 0 -1 0
vn 0 -1 0
vn 0 -1 0
vn 0 -1 0
vn 0.5 0 0.866025
vn 0.5 0 0.866025
vn 0 0 1
vn 0 0 1
vn 0 1 0
vn 0 1 0
vn 0 1 0
vn 0 1 0
vn -0.5 0 -0.866025
vn -0.5 0 -0.866025
vn 0 0 -1
vn 0 0 -1
vn 0 -1 0
vn 0 -1 0
vn 0 -1 0
vn 0 -1 0
vn 0 0 1
vn 0 0 1
vn -0.5 0 0.866025
vn -0.5 0 0.866025
vn 0 1 0
vn 0 1 0
vn 0 1 0
vn 0 1 0
vn 0 0 -1
vn 0 0 -1
vn 0.5 0 -0.866025
vn 0.5 0 -0.866025
vn 0 -1 0
vn 0 -1 0
vn 0 -1 0
vn 0 -1 0
vn -0.5 0 0.866025
vn -0.5 0 0.866025
vn -0.866025 0 0.5
vn -0.866025 0 0.5
vn 0 1 0
vn 0 1 0
vn 0 1 0
vn 0 1 0
vn 0.5 0 -0.866025
vn 0.5 0 -0.866025
vn 0.866025 0 -0.5
vn 0.866025 0 -0.5
vn 0 -1 0
vn 0 -1 0
vn 0 -1 0
vn 0 -1 0
vn -0.866025 0 0.5
vn -0.866025 0 0.5
vn -1 0 0
vn -1 0 0
vn 0 1 0
vn 0 1 0
vn 0 1 0
vn 0 1 0
vn 0.866025 0 -0.5
vn 0.866025 0 -0.5
vn 1 0 0
vn 1 0 0
vn 0 -1 0
vn 0 -1 0
vn 0 -1 0
vn 0 -1 0
vn -1 0 0
vn -1 0 0
vn -0.866025 0 -0.5
vn -0.866025 0 -0.5
vn 0 1 0
vn 0 1 0
vn 0 1 0
vn 0 1 0
vn 1 0 0
vn 1 0 0
vn 0.866025 0 0.5
vn 0.866025 0 0.5
vn 0 -1 0
vn 0 -1 0
vn 0 -1 0
vn 0 -1 0
vn -0.866025 0 -0.5
vn -0.866025 0 -0.5
vn -0.5 0 -0.866025
vn -0.5 0 -0.866025
vn 0 1 0
vn 0 1 0
vn 0 1 0
vn 0 1 0
vn 0.866025 0 0.5
vn 0.866025 0 0.5
vn 0.5 0 0.866025
vn 0.5 0 0.866025
vn 0 -1 0
vn 0 -1 0
vn 0 -1 0
vn 0 -1 0
vn -0.5 0 -0.866025
vn -0.5 0 -0.866025
vn 0 0 -1
vn 0 0 -1
vn 0 1 0
vn 0 1 0
vn 0 1 0
vn 0 1 0
vn 0.5 0 0.866025
vn 0.5 0 0.866025
vn 0 0 1
vn 0 0 1
vn 0 -1 0
vn 0 -1 0
vn 0 -1 0
vn 0 -1 0
vn 0 0 -1
vn 0 0 -1
vn 0.5 0 -0.866025
vn 0.5 0 -0.866025
vn 0 1 0
vn 0 1 0
vn 0 1 0
vn 0 1 0
vn 0 0 1
vn 0 0 1
vn -0.5 0 0.866025
vn -0.5 0 0.866025
vn 0 -1 0
vn 0 -1 0
vn 0 -1 0
vn 0 -1 0
vn 0.5 0 -0.866025
vn 0.5 0 -0.866025
vn 0.866025 0 -0.5
vn 0.866025 0 -0.5
vn 0 1 0
vn 0 1 0
vn 0 1 0
vn 0 1 0
vn -0.5 0 0.866025
vn -0.5 0 0.866025
vn -0.866025 0 0.5
vn -0.866025 0 0.5
vn 0 -1 0
vn 0 -1 0
vn 0 -1 0
vn 0 -1 0
vn 0.866025 0 -0.5
vn 0.866025 0 -0.5
vn 1 0 0
vn 1 0 0
vn 0 1 0
vn 0 1 0
vn 0 1 0
vn 0 1 0
vn -0.866025 0 0.5
vn -0.866025 0 0.5
vn -1 0 0
vn -1 0 0
# 192 vertex normals

f 1/1/1 2/2/2 10/3/3 9/4/4
f 3/5/5 4/6/6 12/7/7 11/8/8
f 5/9/9 6/10/10 14/11/11 13/12/12
f 7/13/13 8/14/14 16/15/15 15/16/16
f 9/17/17 10/18/18 18/19/19 17/20/20
f 11/21/21 12/22/22 20/23/23 19/24/24
f 13/25/25 14/26/26 22/27/27 21/28/28
f 15/29/29 16/30/30 24/31/31 23/32/32
f 17/33/33 18/34/34 26/35/35 25/36/36
f 19/37/37 20/38/38 28/39/39 27/40/40
f 21/41/41 22/42/42 30/43/43 29/44/44
f 23/45/45 24/46/46 32/47/47 31/48/48
f 25/49/49 26/50/50 34/51/51 33/52/52
f 27/53/53 28/54/54 36/55/55 35/56/56
f 29/57/57 30/58/58 38/59/59 37/60/60
f 31/61/61 32/62/62 40/63/63 39/64/64
f 33/65/65 34/66/66 42/67/67 41/68/68
f 35/69/69 36/70/70 44/71/71 43/72/72
f 37/73/73 38/74/74 46/75/75 45/76/76
f 39/77/77 40/78/78 48/79/79 47/80/80
f 41/81/81 42/82/82 50/83/83 49/84/84
f 43/85/85 44/86/86 52/87/87 51/88/88
f 45/89/89 46/90/90 54/91/91 53/92/92
f 47/93/93 48/94/94 56/95/95 55/96/96
f 49/97/97 50/98/98 58/99/99 57/100/100
f 51/101/101 52/102/102 60/103/103 59/104/104
f 53/105/105 54/106/106 62/107/107 61/108/108
f 55/109/109 56/110/110 64/111/111 63/112/112
f 57/113/113 58/114/114 66/115/115 65/116/116
f 59/117/117 60/118/118 68/119/119 67/120/120
f 61/121/121 62/122/122 70/123/123 69/124/124
f 63/125/125 64/126/126 72/127/127 71/128/128
f 65/129/129 66/130/130 74/131/131 73/132/132
f 67/133/133 68/134/134 76/135/135 75/136/136
f 69/137/137 70/138/138 78/139/139 77/140/140
f 71/141/141 72/142/142 80/143/143 79/144/144
f 73/145/145 74/146/146 82/147/147 81/148/148
f 75/149/149 76/150/150 84/151/151 83/152/152
f 77/153/153 78/154/154 86/155/155 85/156/156
f 79/157/157 80/158/158 88/159/159 87/160/160
f 81/161/161 82/162/162 90/163/163 89/164/164
f 83/165/165 84/166/166 92/167/167 91/168/168
f 85/169/169 86/170/170 94/171/171 93/172/172
f 87/173/173 88/174/174 96/175/175 95/176/176
f 89/177/177 90/178/178 2/179/179 1/180/180
f 91/181/181 92/182/182 4/183/183 3/184/184
f 93/185/185 94/186/186 6/187/187 5/188/188
f 95/189/189 96/190/190 8/191/191 7/192/192
# 48 facets

