# Blender v2.73 (sub 0) OBJ File: 'drone.blend'
# www.blender.org
o Icosphere
v 0.000000 0.003993 0.000000
v 0.325624 0.252744 0.236577
v -0.124375 0.252744 0.382793
v -0.402492 0.252746 0.000000
v -0.124375 0.252744 -0.382793
v 0.325624 0.252744 -0.236577
v 0.124375 0.655243 0.382793
v -0.325624 0.655243 0.236577
v -0.325624 0.655243 -0.236577
v 0.124375 0.655243 -0.382793
v 0.402492 0.655241 0.000000
v 0.000000 0.903994 0.000000
v -0.073105 0.071199 0.224998
v 0.191395 0.071199 0.139055
v 0.118291 0.217411 0.364056
v 0.382792 0.217412 0.000000
v 0.191395 0.071199 -0.139055
v -0.236579 0.071200 0.000000
v -0.309686 0.217412 0.224999
v -0.073105 0.071199 -0.224998
v -0.309686 0.217412 -0.224999
v 0.118291 0.217411 -0.364056
v 0.427977 0.453993 0.139056
v 0.427977 0.453993 -0.139056
v 0.000000 0.453993 0.450001
v 0.264504 0.453993 0.364058
v -0.427977 0.453993 0.139056
v -0.264504 0.453993 0.364058
v -0.264504 0.453993 -0.364058
v -0.427977 0.453993 -0.139056
v 0.264504 0.453993 -0.364058
v 0.000000 0.453993 -0.450001
v 0.309686 0.690575 0.224999
v -0.118291 0.690576 0.364056
v -0.382792 0.690575 0.000000
v -0.118291 0.690576 -0.364056
v 0.309686 0.690575 -0.224999
v 0.073105 0.836788 0.224998
v 0.236579 0.836787 0.000000
v -0.191395 0.836788 0.139055
v -0.191395 0.836788 -0.139055
v 0.073105 0.836788 -0.224998
vn 0.102400 -0.943500 0.315100
vn 0.700200 -0.661700 0.268000
vn -0.268000 -0.943500 0.194700
vn -0.268000 -0.943500 -0.194700
vn 0.102400 -0.943500 -0.315100
vn 0.905000 -0.330400 0.268000
vn 0.024700 -0.330400 0.943500
vn -0.889700 -0.330400 0.315100
vn -0.574600 -0.330400 -0.748800
vn 0.534600 -0.330400 -0.777900
vn 0.802600 -0.125600 0.583100
vn -0.306600 -0.125600 0.943500
vn -0.992100 -0.125600 0.000000
vn -0.306600 -0.125600 -0.943500
vn 0.802600 -0.125600 -0.583100
vn 0.408900 0.661700 0.628400
vn -0.471300 0.661700 0.583100
vn -0.700200 0.661700 -0.268000
vn 0.038500 0.661700 -0.748800
vn 0.724000 0.661700 -0.194700
vn 0.268000 0.943500 -0.194700
vn 0.491100 0.794700 -0.356800
vn 0.408900 0.661700 -0.628400
vn -0.102400 0.943500 -0.315100
vn -0.187600 0.794700 -0.577300
vn -0.471300 0.661700 -0.583100
vn -0.331300 0.943500 0.000000
vn -0.607100 0.794700 0.000000
vn -0.700200 0.661700 0.268000
vn -0.102400 0.943500 0.315100
vn -0.187600 0.794700 0.577300
vn 0.038500 0.661700 0.748800
vn 0.268000 0.943500 0.194700
vn 0.491100 0.794700 0.356800
vn 0.724000 0.661700 0.194700
vn 0.889700 0.330400 -0.315100
vn 0.794700 0.187600 -0.577300
vn 0.574600 0.330400 -0.748800
vn -0.024700 0.330400 -0.943500
vn -0.303500 0.187600 -0.934200
vn -0.534600 0.330400 -0.777900
vn -0.905000 0.330400 -0.268000
vn -0.982200 0.187600 0.000000
vn -0.905000 0.330400 0.268000
vn -0.534600 0.330400 0.777900
vn -0.303500 0.187600 0.934200
vn -0.024700 0.330400 0.943500
vn 0.574600 0.330400 0.748800
vn 0.794700 0.187600 0.577300
vn 0.889700 0.330400 0.315100
vn 0.306600 0.125600 -0.943500
vn 0.303500 -0.187600 -0.934200
vn 0.024700 -0.330400 -0.943500
vn -0.802600 0.125600 -0.583100
vn -0.794700 -0.187600 -0.577300
vn -0.889700 -0.330400 -0.315100
vn -0.802600 0.125600 0.583100
vn -0.794700 -0.187600 0.577300
vn -0.574600 -0.330400 0.748800
vn 0.306600 0.125600 0.943500
vn 0.303500 -0.187600 0.934200
vn 0.534600 -0.330400 0.777900
vn 0.992100 0.125600 0.000000
vn 0.982200 -0.187600 0.000000
vn 0.905000 -0.330400 -0.268000
vn 0.471300 -0.661700 -0.583100
vn 0.187600 -0.794700 -0.577300
vn -0.038500 -0.661700 -0.748800
vn -0.408900 -0.661700 -0.628400
vn -0.491100 -0.794700 -0.356800
vn -0.724000 -0.661700 -0.194700
vn -0.724000 -0.661700 0.194700
vn -0.491100 -0.794700 0.356800
vn -0.408900 -0.661700 0.628400
vn 0.700200 -0.661700 -0.268000
vn 0.607100 -0.794700 0.000000
vn 0.331300 -0.943500 0.000000
vn -0.038500 -0.661700 0.748800
vn 0.187600 -0.794700 0.577300
vn 0.471300 -0.661700 0.583100
s off
f 1//1 14//1 13//1
f 2//2 14//2 16//2
f 1//3 13//3 18//3
f 1//4 18//4 20//4
f 1//5 20//5 17//5
f 2//6 16//6 23//6
f 3//7 15//7 25//7
f 4//8 19//8 27//8
f 5//9 21//9 29//9
f 6//10 22//10 31//10
f 2//11 23//11 26//11
f 3//12 25//12 28//12
f 4//13 27//13 30//13
f 5//14 29//14 32//14
f 6//15 31//15 24//15
f 7//16 33//16 38//16
f 8//17 34//17 40//17
f 9//18 35//18 41//18
f 10//19 36//19 42//19
f 11//20 37//20 39//20
f 39//21 42//21 12//21
f 39//22 37//22 42//22
f 37//23 10//23 42//23
f 42//24 41//24 12//24
f 42//25 36//25 41//25
f 36//26 9//26 41//26
f 41//27 40//27 12//27
f 41//28 35//28 40//28
f 35//29 8//29 40//29
f 40//30 38//30 12//30
f 40//31 34//31 38//31
f 34//32 7//32 38//32
f 38//33 39//33 12//33
f 38//34 33//34 39//34
f 33//35 11//35 39//35
f 24//36 37//36 11//36
f 24//37 31//37 37//37
f 31//38 10//38 37//38
f 32//39 36//39 10//39
f 32//40 29//40 36//40
f 29//41 9//41 36//41
f 30//42 35//42 9//42
f 30//43 27//43 35//43
f 27//44 8//44 35//44
f 28//45 34//45 8//45
f 28//46 25//46 34//46
f 25//47 7//47 34//47
f 26//48 33//48 7//48
f 26//49 23//49 33//49
f 23//50 11//50 33//50
f 31//51 32//51 10//51
f 31//52 22//52 32//52
f 22//53 5//53 32//53
f 29//54 30//54 9//54
f 29//55 21//55 30//55
f 21//56 4//56 30//56
f 27//57 28//57 8//57
f 27//58 19//58 28//58
f 19//59 3//59 28//59
f 25//60 26//60 7//60
f 25//61 15//61 26//61
f 15//62 2//62 26//62
f 23//63 24//63 11//63
f 23//64 16//64 24//64
f 16//65 6//65 24//65
f 17//66 22//66 6//66
f 17//67 20//67 22//67
f 20//68 5//68 22//68
f 20//69 21//69 5//69
f 20//70 18//70 21//70
f 18//71 4//71 21//71
f 18//72 19//72 4//72
f 18//73 13//73 19//73
f 13//74 3//74 19//74
f 16//75 17//75 6//75
f 16//76 14//76 17//76
f 14//77 1//77 17//77
f 13//78 15//78 3//78
f 13//79 14//79 15//79
f 14//80 2//80 15//80
o Torus.003
v -0.011305 0.510327 0.501895
v -0.126305 0.625327 0.501895
v -0.241305 0.510327 0.501895
v -0.126305 0.395327 0.501895
v -0.356797 0.510327 0.026366
v -0.392334 0.625327 0.135738
v -0.427871 0.510327 0.245109
v -0.392334 0.395327 0.135738
v -0.915814 0.510327 0.208002
v -0.822777 0.625327 0.275597
v -0.729740 0.510327 0.343193
v -0.822777 0.395327 0.275597
v -0.915814 0.510327 0.795788
v -0.822777 0.625327 0.728192
v -0.729740 0.510327 0.660597
v -0.822777 0.395327 0.728192
v -0.356797 0.510327 0.977423
v -0.392334 0.625327 0.868052
v -0.427871 0.510327 0.758681
v -0.392334 0.395327 0.868052
v 0.011305 0.510327 0.501895
v 0.126305 0.625327 0.501895
v 0.241305 0.510327 0.501895
v 0.126305 0.395327 0.501895
v 0.356797 0.510327 0.026366
v 0.392334 0.625327 0.135738
v 0.427871 0.510327 0.245109
v 0.392334 0.395327 0.135738
v 0.915814 0.510327 0.208002
v 0.822777 0.625327 0.275597
v 0.729740 0.510327 0.343193
v 0.822777 0.395327 0.275597
v 0.915814 0.510327 0.795788
v 0.822777 0.625327 0.728192
v 0.729740 0.510327 0.660597
v 0.822777 0.395327 0.728192
v 0.356797 0.510327 0.977423
v 0.392334 0.625327 0.868052
v 0.427871 0.510327 0.758681
v 0.392334 0.395327 0.868052
v -0.011305 0.510327 -0.501895
v -0.126305 0.625327 -0.501895
v -0.241305 0.510327 -0.501895
v -0.126305 0.395327 -0.501895
v -0.356797 0.510327 -0.026366
v -0.392334 0.625327 -0.135738
v -0.427871 0.510327 -0.245109
v -0.392334 0.395327 -0.135738
v -0.915814 0.510327 -0.208002
v -0.822777 0.625327 -0.275597
v -0.729740 0.510327 -0.343193
v -0.822777 0.395327 -0.275597
v -0.915814 0.510327 -0.795788
v -0.822777 0.625327 -0.728192
v -0.729740 0.510327 -0.660597
v -0.822777 0.395327 -0.728192
v -0.356797 0.510327 -0.977423
v -0.392334 0.625327 -0.868052
v -0.427871 0.510327 -0.758680
v -0.392334 0.395327 -0.868052
v 0.011305 0.510327 -0.501895
v 0.126305 0.625327 -0.501895
v 0.241305 0.510327 -0.501895
v 0.126305 0.395327 -0.501895
v 0.356797 0.510327 -0.026366
v 0.392334 0.625327 -0.135738
v 0.427871 0.510327 -0.245109
v 0.392334 0.395327 -0.135738
v 0.915814 0.510327 -0.208002
v 0.822777 0.625327 -0.275597
v 0.729740 0.510327 -0.343193
v 0.822777 0.395327 -0.275597
v 0.915814 0.510327 -0.795788
v 0.822777 0.625327 -0.728192
v 0.729740 0.510327 -0.660597
v 0.822777 0.395327 -0.728192
v 0.356797 0.510327 -0.977423
v 0.392334 0.625327 -0.868052
v 0.427871 0.510327 -0.758680
v 0.392334 0.395327 -0.868052
vn 0.629000 0.629000 -0.457000
vn -0.629000 0.629000 0.457000
vn -0.629000 -0.629000 0.457000
vn 0.629000 -0.629000 -0.457000
vn -0.240200 0.629000 -0.739400
vn 0.240200 0.629000 0.739400
vn 0.240200 -0.629000 0.739400
vn -0.240200 -0.629000 -0.739400
vn -0.777400 0.629000 0.000000
vn 0.777400 0.629000 0.000000
vn 0.777400 -0.629000 0.000000
vn -0.777400 -0.629000 0.000000
vn -0.240200 0.629000 0.739400
vn 0.240200 0.629000 -0.739400
vn 0.240200 -0.629000 -0.739400
vn -0.240200 -0.629000 0.739400
vn 0.629000 0.629000 0.457000
vn -0.629000 0.629000 -0.457000
vn -0.629000 -0.629000 -0.457000
vn 0.629000 -0.629000 0.457000
s off
f 43//81 47//81 48//81 44//81
f 44//82 48//82 49//82 45//82
f 45//83 49//83 50//83 46//83
f 43//84 46//84 50//84 47//84
f 47//85 51//85 52//85 48//85
f 48//86 52//86 53//86 49//86
f 49//87 53//87 54//87 50//87
f 50//88 54//88 51//88 47//88
f 51//89 55//89 56//89 52//89
f 52//90 56//90 57//90 53//90
f 53//91 57//91 58//91 54//91
f 54//92 58//92 55//92 51//92
f 55//93 59//93 60//93 56//93
f 56//94 60//94 61//94 57//94
f 57//95 61//95 62//95 58//95
f 58//96 62//96 59//96 55//96
f 59//97 43//97 44//97 60//97
f 60//98 44//98 45//98 61//98
f 61//99 45//99 46//99 62//99
f 62//100 46//100 43//100 59//100
f 63//98 64//98 68//98 67//98
f 64//97 65//97 69//97 68//97
f 65//100 66//100 70//100 69//100
f 63//99 67//99 70//99 66//99
f 67//94 68//94 72//94 71//94
f 68//93 69//93 73//93 72//93
f 69//96 70//96 74//96 73//96
f 70//95 67//95 71//95 74//95
f 71//90 72//90 76//90 75//90
f 72//89 73//89 77//89 76//89
f 73//92 74//92 78//92 77//92
f 74//91 71//91 75//91 78//91
f 75//86 76//86 80//86 79//86
f 76//85 77//85 81//85 80//85
f 77//88 78//88 82//88 81//88
f 78//87 75//87 79//87 82//87
f 79//82 80//82 64//82 63//82
f 80//81 81//81 65//81 64//81
f 81//84 82//84 66//84 65//84
f 82//83 79//83 63//83 66//83
f 83//97 84//97 88//97 87//97
f 84//98 85//98 89//98 88//98
f 85//99 86//99 90//99 89//99
f 83//100 87//100 90//100 86//100
f 87//93 88//93 92//93 91//93
f 88//94 89//94 93//94 92//94
f 89//95 90//95 94//95 93//95
f 90//96 87//96 91//96 94//96
f 91//89 92//89 96//89 95//89
f 92//90 93//90 97//90 96//90
f 93//91 94//91 98//91 97//91
f 94//92 91//92 95//92 98//92
f 95//85 96//85 100//85 99//85
f 96//86 97//86 101//86 100//86
f 97//87 98//87 102//87 101//87
f 98//88 95//88 99//88 102//88
f 99//81 100//81 84//81 83//81
f 100//82 101//82 85//82 84//82
f 101//83 102//83 86//83 85//83
f 102//84 99//84 83//84 86//84
f 103//82 107//82 108//82 104//82
f 104//81 108//81 109//81 105//81
f 105//84 109//84 110//84 106//84
f 103//83 106//83 110//83 107//83
f 107//86 111//86 112//86 108//86
f 108//85 112//85 113//85 109//85
f 109//88 113//88 114//88 110//88
f 110//87 114//87 111//87 107//87
f 111//90 115//90 116//90 112//90
f 112//89 116//89 117//89 113//89
f 113//92 117//92 118//92 114//92
f 114//91 118//91 115//91 111//91
f 115//94 119//94 120//94 116//94
f 116//93 120//93 121//93 117//93
f 117//96 121//96 122//96 118//96
f 118//95 122//95 119//95 115//95
f 119//98 103//98 104//98 120//98
f 120//97 104//97 105//97 121//97
f 121//100 105//100 106//100 122//100
f 122//99 106//99 103//99 119//99
